<svg id="Layer_1" data-name="Layer 1" xmlns="http://www.w3.org/2000/svg" viewBox="0 0 246.328 197.487">
  <defs>
    <style>
      .cls-1 {
        opacity: 0.0008;
      }

      .cls-10, .cls-12, .cls-13, .cls-14, .cls-15, .cls-17, .cls-18, .cls-19, .cls-2, .cls-20, .cls-22, .cls-23, .cls-24, .cls-25, .cls-27, .cls-28, .cls-29, .cls-3, .cls-30, .cls-32, .cls-33, .cls-34, .cls-35, .cls-37, .cls-38, .cls-39, .cls-4, .cls-40, .cls-42, .cls-43, .cls-44, .cls-45, .cls-47, .cls-48, .cls-49, .cls-5, .cls-50, .cls-52, .cls-53, .cls-54, .cls-55, .cls-57, .cls-58, .cls-59, .cls-60, .cls-62, .cls-63, .cls-64, .cls-65, .cls-67, .cls-68, .cls-69, .cls-7, .cls-70, .cls-72, .cls-73, .cls-74, .cls-75, .cls-76, .cls-77, .cls-78, .cls-79, .cls-8, .cls-80, .cls-81, .cls-82, .cls-83, .cls-9 {
        fill: none;
        stroke-linecap: round;
        stroke-linejoin: round;
      }

      .cls-12, .cls-17, .cls-2, .cls-22, .cls-27, .cls-32, .cls-37, .cls-42, .cls-47, .cls-52, .cls-57, .cls-62, .cls-67, .cls-7, .cls-72, .cls-76 {
        stroke: #ff2154;
      }

      .cls-2, .cls-3, .cls-4, .cls-5 {
        stroke-width: 17px;
      }

      .cls-13, .cls-18, .cls-23, .cls-28, .cls-3, .cls-33, .cls-38, .cls-43, .cls-48, .cls-53, .cls-58, .cls-63, .cls-68, .cls-73, .cls-77, .cls-8 {
        stroke: #ed8000;
      }

      .cls-14, .cls-19, .cls-24, .cls-29, .cls-34, .cls-39, .cls-4, .cls-44, .cls-49, .cls-54, .cls-59, .cls-64, .cls-69, .cls-74, .cls-78, .cls-9 {
        stroke: #87308f;
      }

      .cls-10, .cls-15, .cls-20, .cls-25, .cls-30, .cls-35, .cls-40, .cls-45, .cls-5, .cls-50, .cls-55, .cls-60, .cls-65, .cls-70, .cls-75, .cls-79 {
        stroke: #009a78;
      }

      .cls-6 {
        opacity: 0.0025;
      }

      .cls-10, .cls-7, .cls-8, .cls-9 {
        stroke-width: 16px;
      }

      .cls-11 {
        opacity: 0.005;
      }

      .cls-12, .cls-13, .cls-14, .cls-15 {
        stroke-width: 15px;
      }

      .cls-16 {
        opacity: 0.0084;
      }

      .cls-17, .cls-18, .cls-19, .cls-20 {
        stroke-width: 14px;
      }

      .cls-21 {
        opacity: 0.0128;
      }

      .cls-22, .cls-23, .cls-24, .cls-25 {
        stroke-width: 13px;
      }

      .cls-26 {
        opacity: 0.0181;
      }

      .cls-27, .cls-28, .cls-29, .cls-30 {
        stroke-width: 12px;
      }

      .cls-31 {
        opacity: 0.0246;
      }

      .cls-32, .cls-33, .cls-34, .cls-35 {
        stroke-width: 11px;
      }

      .cls-36 {
        opacity: 0.0324;
      }

      .cls-37, .cls-38, .cls-39, .cls-40 {
        stroke-width: 10px;
      }

      .cls-41 {
        opacity: 0.0416;
      }

      .cls-42, .cls-43, .cls-44, .cls-45 {
        stroke-width: 9px;
      }

      .cls-46 {
        opacity: 0.0526;
      }

      .cls-47, .cls-48, .cls-49, .cls-50 {
        stroke-width: 8px;
      }

      .cls-51 {
        opacity: 0.0658;
      }

      .cls-52, .cls-53, .cls-54, .cls-55 {
        stroke-width: 7px;
      }

      .cls-56 {
        opacity: 0.0822;
      }

      .cls-57, .cls-58, .cls-59, .cls-60 {
        stroke-width: 6px;
      }

      .cls-61 {
        opacity: 0.1033;
      }

      .cls-62, .cls-63, .cls-64, .cls-65 {
        stroke-width: 5px;
      }

      .cls-66 {
        opacity: 0.1339;
      }

      .cls-67, .cls-68, .cls-69, .cls-70 {
        stroke-width: 4px;
      }

      .cls-71 {
        opacity: 0.2361;
      }

      .cls-72, .cls-73, .cls-74, .cls-75 {
        stroke-width: 3px;
      }

      .cls-76, .cls-77, .cls-78, .cls-79 {
        stroke-width: 2px;
      }

      .cls-80 {
        stroke: #ffc1cf;
      }

      .cls-80, .cls-81, .cls-82, .cls-83 {
        stroke-width: 0.6667px;
      }

      .cls-81 {
        stroke: #fadbb8;
      }

      .cls-82 {
        stroke: #ddc5e0;
      }

      .cls-83 {
        stroke: #b8e3d9;
      }
    </style>
  </defs>
  <g>
    <g class="cls-1">
      <polygon class="cls-2" points="232.019 180.399 226.877 184.902 237.828 188.987 232.019 180.399"/>
      <polygon class="cls-2" points="216.327 157.198 201.819 175.553 211.985 179.346 221.059 182.733 227.313 173.446 221.692 165.127 216.327 157.198"/>
      <polygon class="cls-2" points="170.362 163.816 183.987 168.9 192.196 171.963 210.762 148.973 202.595 136.892 198.088 130.228 170.362 163.816"/>
      <polygon class="cls-2" points="183.987 168.9 192.196 171.963 210.762 148.973 202.595 136.892 183.987 168.9"/>
      <polygon class="cls-2" points="201.819 175.553 211.985 179.346 221.692 165.127 216.327 157.198 201.819 175.553"/>
      <path class="cls-2" d="M190.4062,130.0857S176.0469,111.37,170.8947,88.829" transform="translate(-0.0002 -0.0001)"/>
      <path class="cls-3" d="M177.1762,133.1046s-46.1334-36.1938-57.9415-77.5494" transform="translate(-0.0002 -0.0001)"/>
      <path class="cls-2" d="M144.3131,126.12S82.9831,78.5975,42.9113,86.4211" transform="translate(-0.0002 -0.0001)"/>
      <path class="cls-4" d="M165.3308,148.7411s-27.8742-18.1248-64.21-20.821" transform="translate(-0.0002 -0.0001)"/>
      <path class="cls-2" d="M164.1577,157.3033s-22.0025-10.4357-52.4013-3.2733" transform="translate(-0.0002 -0.0001)"/>
      <path class="cls-5" d="M159.2932,98.4726S145.4769,81.965,146.5344,51.0281" transform="translate(-0.0002 -0.0001)"/>
      <path class="cls-5" d="M112.664,142.8011s-22.7749-.8788-39.4972,6.6675" transform="translate(-0.0002 -0.0001)"/>
      <path class="cls-4" d="M119.7479,93.8336s-30.29-20.9653-48.0422-51.2581" transform="translate(-0.0002 -0.0001)"/>
      <polygon class="cls-2" points="165.591 65.299 172.209 63.777 175.482 69.726 176.078 62.962 182.748 61.688 176.499 59.03 177.348 52.293 172.89 57.415 166.745 54.525 170.238 60.348 165.591 65.299"/>
      <polygon class="cls-2" points="109.593 51.01 104.377 46.13 107.646 39.778 101.392 43.231 96.362 38.16 97.714 45.174 91.335 48.392 98.424 49.273 99.513 56.333 102.542 49.864 109.593 51.01"/>
      <polygon class="cls-2" points="81.637 119.953 78.384 118.669 78.731 115.189 76.504 117.885 73.301 116.48 75.178 119.431 72.852 122.043 76.238 121.17 78.003 124.189 78.22 120.699 81.637 119.953"/>
      <polygon class="cls-2" points="90.232 175.657 96.199 173.878 99.541 179.131 99.692 172.906 105.722 171.351 99.848 169.283 100.232 163.069 96.451 168.016 90.659 165.73 94.195 170.855 90.232 175.657"/>
      <polygon class="cls-3" points="141.495 54.065 138.774 48.102 143.766 43.855 137.254 44.6 134.758 38.54 133.454 44.964 126.919 45.465 132.626 48.69 131.083 55.06 135.913 50.629 141.495 54.065"/>
      <polygon class="cls-3" points="53.849 74.843 62.443 72.597 66.952 80.251 67.472 71.383 76.145 69.46 67.872 66.225 68.723 57.382 63.09 64.251 54.943 60.709 59.735 68.189 53.849 74.843"/>
      <polygon class="cls-3" points="53.351 104.57 47.294 108.006 42.334 103.118 43.73 109.94 37.549 113.148 44.469 113.928 45.609 120.798 48.489 114.458 55.375 115.496 50.236 110.797 53.351 104.57"/>
      <polygon class="cls-3" points="63.722 176.61 70.07 172.913 75.361 178.01 73.806 170.83 80.288 167.372 72.979 166.632 71.694 159.399 68.732 166.122 61.456 165.109 66.934 170.004 63.722 176.61"/>
      <polygon class="cls-5" points="112.81 28.885 119.03 25.513 123.973 30.575 122.688 23.618 129.029 20.481 122.016 19.553 120.992 12.553 117.942 18.936 110.968 17.747 116.097 22.62 112.81 28.885"/>
      <polygon class="cls-5" points="30.653 84.875 26.746 82.392 28.066 77.955 24.497 80.903 20.686 78.276 22.387 82.582 18.71 85.395 23.331 85.107 24.871 89.473 26.025 84.99 30.653 84.875"/>
      <polygon class="cls-5" points="27.49 144.63 39.453 147.662 39.805 159.997 46.385 149.557 58.226 153.035 50.331 143.55 57.297 133.363 45.836 137.942 38.301 128.169 39.114 140.483 27.49 144.63"/>
      <polygon class="cls-5" points="126.302 103.56 129.384 102.897 130.864 105.68 131.186 102.544 134.29 101.997 131.407 100.722 131.846 97.6 129.742 99.948 126.909 98.566 128.492 101.292 126.302 103.56"/>
      <polygon class="cls-4" points="167.483 136.179 163.224 135.061 163.136 130.659 160.757 134.364 156.543 133.087 159.331 136.495 156.815 140.108 160.918 138.509 163.577 142.019 163.324 137.623 167.483 136.179"/>
      <polygon class="cls-4" points="158.531 111.403 163.231 109.499 166.347 113.5 165.988 108.442 170.756 106.715 165.835 105.493 165.665 100.425 162.982 104.728 158.11 103.322 161.373 107.204 158.531 111.403"/>
      <polygon class="cls-4" points="193.946 100.454 199.027 96.632 204.091 100.476 202.027 94.463 207.247 90.834 200.89 90.939 199.053 84.852 197.188 90.931 190.832 90.798 196.036 94.45 193.946 100.454"/>
      <polygon class="cls-4" points="10.1 127.031 16.028 123.92 20.641 128.773 19.514 122.173 25.555 119.286 18.93 118.318 18.051 111.681 15.083 117.682 8.5 116.468 13.29 121.145 10.1 127.031"/>
      <polygon class="cls-4" points="51.175 46.05 45.187 43.122 46.368 36.562 41.733 41.352 35.859 38.201 38.982 44.09 34.17 48.703 40.736 47.552 43.636 53.554 44.571 46.954 51.175 46.05"/>
      <polygon class="cls-4" points="83.356 19.123 88.741 17.865 91.422 22.701 91.89 17.191 97.318 16.136 92.222 13.988 92.896 8.5 89.279 12.682 84.267 10.346 87.127 15.078 83.356 19.123"/>
    </g>
    <g class="cls-6">
      <polygon class="cls-7" points="232.019 180.399 226.877 184.902 237.828 188.987 232.019 180.399"/>
      <polygon class="cls-7" points="216.327 157.198 201.819 175.553 211.985 179.346 221.059 182.733 227.313 173.446 221.692 165.127 216.327 157.198"/>
      <polygon class="cls-7" points="170.362 163.816 183.987 168.9 192.196 171.963 210.762 148.973 202.595 136.892 198.088 130.228 170.362 163.816"/>
      <polygon class="cls-7" points="183.987 168.9 192.196 171.963 210.762 148.973 202.595 136.892 183.987 168.9"/>
      <polygon class="cls-7" points="201.819 175.553 211.985 179.346 221.692 165.127 216.327 157.198 201.819 175.553"/>
      <path class="cls-7" d="M190.4062,130.0857S176.0469,111.37,170.8947,88.829" transform="translate(-0.0002 -0.0001)"/>
      <path class="cls-8" d="M177.1762,133.1046s-46.1334-36.1938-57.9415-77.5494" transform="translate(-0.0002 -0.0001)"/>
      <path class="cls-7" d="M144.3131,126.12S82.9831,78.5975,42.9113,86.4211" transform="translate(-0.0002 -0.0001)"/>
      <path class="cls-9" d="M165.3308,148.7411s-27.8742-18.1248-64.21-20.821" transform="translate(-0.0002 -0.0001)"/>
      <path class="cls-7" d="M164.1577,157.3033s-22.0025-10.4357-52.4013-3.2733" transform="translate(-0.0002 -0.0001)"/>
      <path class="cls-10" d="M159.2932,98.4726S145.4769,81.965,146.5344,51.0281" transform="translate(-0.0002 -0.0001)"/>
      <path class="cls-10" d="M112.664,142.8011s-22.7749-.8788-39.4972,6.6675" transform="translate(-0.0002 -0.0001)"/>
      <path class="cls-9" d="M119.7479,93.8336s-30.29-20.9653-48.0422-51.2581" transform="translate(-0.0002 -0.0001)"/>
      <polygon class="cls-7" points="165.591 65.299 172.209 63.777 175.482 69.726 176.078 62.962 182.748 61.688 176.499 59.03 177.348 52.293 172.89 57.415 166.745 54.525 170.238 60.348 165.591 65.299"/>
      <polygon class="cls-7" points="109.593 51.01 104.377 46.13 107.646 39.778 101.392 43.231 96.362 38.16 97.714 45.174 91.335 48.392 98.424 49.273 99.513 56.333 102.542 49.864 109.593 51.01"/>
      <polygon class="cls-7" points="81.637 119.953 78.384 118.669 78.731 115.189 76.504 117.885 73.301 116.48 75.178 119.431 72.852 122.043 76.238 121.17 78.003 124.189 78.22 120.699 81.637 119.953"/>
      <polygon class="cls-7" points="90.232 175.657 96.199 173.878 99.541 179.131 99.692 172.906 105.722 171.351 99.848 169.283 100.232 163.069 96.451 168.016 90.659 165.73 94.195 170.855 90.232 175.657"/>
      <polygon class="cls-8" points="141.495 54.065 138.774 48.102 143.766 43.855 137.254 44.6 134.758 38.54 133.454 44.964 126.919 45.465 132.626 48.69 131.083 55.06 135.913 50.629 141.495 54.065"/>
      <polygon class="cls-8" points="53.849 74.843 62.443 72.597 66.952 80.251 67.472 71.383 76.145 69.46 67.872 66.225 68.723 57.382 63.09 64.251 54.943 60.709 59.735 68.189 53.849 74.843"/>
      <polygon class="cls-8" points="53.351 104.57 47.294 108.006 42.334 103.118 43.73 109.94 37.549 113.148 44.469 113.928 45.609 120.798 48.489 114.458 55.375 115.496 50.236 110.797 53.351 104.57"/>
      <polygon class="cls-8" points="63.722 176.61 70.07 172.913 75.361 178.01 73.806 170.83 80.288 167.372 72.979 166.632 71.694 159.399 68.732 166.122 61.456 165.109 66.934 170.004 63.722 176.61"/>
      <polygon class="cls-10" points="112.81 28.885 119.03 25.513 123.973 30.575 122.688 23.618 129.029 20.481 122.016 19.553 120.992 12.553 117.942 18.936 110.968 17.747 116.097 22.62 112.81 28.885"/>
      <polygon class="cls-10" points="30.653 84.875 26.746 82.392 28.066 77.955 24.497 80.903 20.686 78.276 22.387 82.582 18.71 85.395 23.331 85.107 24.871 89.473 26.025 84.99 30.653 84.875"/>
      <polygon class="cls-10" points="27.49 144.63 39.453 147.662 39.805 159.997 46.385 149.557 58.226 153.035 50.331 143.55 57.297 133.363 45.836 137.942 38.301 128.169 39.114 140.483 27.49 144.63"/>
      <polygon class="cls-10" points="126.302 103.56 129.384 102.897 130.864 105.68 131.186 102.544 134.29 101.997 131.407 100.722 131.846 97.6 129.742 99.948 126.909 98.566 128.492 101.292 126.302 103.56"/>
      <polygon class="cls-9" points="167.483 136.179 163.224 135.061 163.136 130.659 160.757 134.364 156.543 133.087 159.331 136.495 156.815 140.108 160.918 138.509 163.577 142.019 163.324 137.623 167.483 136.179"/>
      <polygon class="cls-9" points="158.531 111.403 163.231 109.499 166.347 113.5 165.988 108.442 170.756 106.715 165.835 105.493 165.665 100.425 162.982 104.728 158.11 103.322 161.373 107.204 158.531 111.403"/>
      <polygon class="cls-9" points="193.946 100.454 199.027 96.632 204.091 100.476 202.027 94.463 207.247 90.834 200.89 90.939 199.053 84.852 197.188 90.931 190.832 90.798 196.036 94.45 193.946 100.454"/>
      <polygon class="cls-9" points="10.1 127.031 16.028 123.92 20.641 128.773 19.514 122.173 25.555 119.286 18.93 118.318 18.051 111.681 15.083 117.682 8.5 116.468 13.29 121.145 10.1 127.031"/>
      <polygon class="cls-9" points="51.175 46.05 45.187 43.122 46.368 36.562 41.733 41.352 35.859 38.201 38.982 44.09 34.17 48.703 40.736 47.552 43.636 53.554 44.571 46.954 51.175 46.05"/>
      <polygon class="cls-9" points="83.356 19.123 88.741 17.865 91.422 22.701 91.89 17.191 97.318 16.136 92.222 13.988 92.896 8.5 89.279 12.682 84.267 10.346 87.127 15.078 83.356 19.123"/>
    </g>
    <g class="cls-11">
      <polygon class="cls-12" points="232.019 180.399 226.877 184.902 237.828 188.987 232.019 180.399"/>
      <polygon class="cls-12" points="216.327 157.198 201.819 175.553 211.985 179.346 221.059 182.733 227.313 173.446 221.692 165.127 216.327 157.198"/>
      <polygon class="cls-12" points="170.362 163.816 183.987 168.9 192.196 171.963 210.762 148.973 202.595 136.892 198.088 130.228 170.362 163.816"/>
      <polygon class="cls-12" points="183.987 168.9 192.196 171.963 210.762 148.973 202.595 136.892 183.987 168.9"/>
      <polygon class="cls-12" points="201.819 175.553 211.985 179.346 221.692 165.127 216.327 157.198 201.819 175.553"/>
      <path class="cls-12" d="M190.4062,130.0857S176.0469,111.37,170.8947,88.829" transform="translate(-0.0002 -0.0001)"/>
      <path class="cls-13" d="M177.1762,133.1046s-46.1334-36.1938-57.9415-77.5494" transform="translate(-0.0002 -0.0001)"/>
      <path class="cls-12" d="M144.3131,126.12S82.9831,78.5975,42.9113,86.4211" transform="translate(-0.0002 -0.0001)"/>
      <path class="cls-14" d="M165.3308,148.7411s-27.8742-18.1248-64.21-20.821" transform="translate(-0.0002 -0.0001)"/>
      <path class="cls-12" d="M164.1577,157.3033s-22.0025-10.4357-52.4013-3.2733" transform="translate(-0.0002 -0.0001)"/>
      <path class="cls-15" d="M159.2932,98.4726S145.4769,81.965,146.5344,51.0281" transform="translate(-0.0002 -0.0001)"/>
      <path class="cls-15" d="M112.664,142.8011s-22.7749-.8788-39.4972,6.6675" transform="translate(-0.0002 -0.0001)"/>
      <path class="cls-14" d="M119.7479,93.8336s-30.29-20.9653-48.0422-51.2581" transform="translate(-0.0002 -0.0001)"/>
      <polygon class="cls-12" points="165.591 65.299 172.209 63.777 175.482 69.726 176.078 62.962 182.748 61.688 176.499 59.03 177.348 52.293 172.89 57.415 166.745 54.525 170.238 60.348 165.591 65.299"/>
      <polygon class="cls-12" points="109.593 51.01 104.377 46.13 107.646 39.778 101.392 43.231 96.362 38.16 97.714 45.174 91.335 48.392 98.424 49.273 99.513 56.333 102.542 49.864 109.593 51.01"/>
      <polygon class="cls-12" points="81.637 119.953 78.384 118.669 78.731 115.189 76.504 117.885 73.301 116.48 75.178 119.431 72.852 122.043 76.238 121.17 78.003 124.189 78.22 120.699 81.637 119.953"/>
      <polygon class="cls-12" points="90.232 175.657 96.199 173.878 99.541 179.131 99.692 172.906 105.722 171.351 99.848 169.283 100.232 163.069 96.451 168.016 90.659 165.73 94.195 170.855 90.232 175.657"/>
      <polygon class="cls-13" points="141.495 54.065 138.774 48.102 143.766 43.855 137.254 44.6 134.758 38.54 133.454 44.964 126.919 45.465 132.626 48.69 131.083 55.06 135.913 50.629 141.495 54.065"/>
      <polygon class="cls-13" points="53.849 74.843 62.443 72.597 66.952 80.251 67.472 71.383 76.145 69.46 67.872 66.225 68.723 57.382 63.09 64.251 54.943 60.709 59.735 68.189 53.849 74.843"/>
      <polygon class="cls-13" points="53.351 104.57 47.294 108.006 42.334 103.118 43.73 109.94 37.549 113.148 44.469 113.928 45.609 120.798 48.489 114.458 55.375 115.496 50.236 110.797 53.351 104.57"/>
      <polygon class="cls-13" points="63.722 176.61 70.07 172.913 75.361 178.01 73.806 170.83 80.288 167.372 72.979 166.632 71.694 159.399 68.732 166.122 61.456 165.109 66.934 170.004 63.722 176.61"/>
      <polygon class="cls-15" points="112.81 28.885 119.03 25.513 123.973 30.575 122.688 23.618 129.029 20.481 122.016 19.553 120.992 12.553 117.942 18.936 110.968 17.747 116.097 22.62 112.81 28.885"/>
      <polygon class="cls-15" points="30.653 84.875 26.746 82.392 28.066 77.955 24.497 80.903 20.686 78.276 22.387 82.582 18.71 85.395 23.331 85.107 24.871 89.473 26.025 84.99 30.653 84.875"/>
      <polygon class="cls-15" points="27.49 144.63 39.453 147.662 39.805 159.997 46.385 149.557 58.226 153.035 50.331 143.55 57.297 133.363 45.836 137.942 38.301 128.169 39.114 140.483 27.49 144.63"/>
      <polygon class="cls-15" points="126.302 103.56 129.384 102.897 130.864 105.68 131.186 102.544 134.29 101.997 131.407 100.722 131.846 97.6 129.742 99.948 126.909 98.566 128.492 101.292 126.302 103.56"/>
      <polygon class="cls-14" points="167.483 136.179 163.224 135.061 163.136 130.659 160.757 134.364 156.543 133.087 159.331 136.495 156.815 140.108 160.918 138.509 163.577 142.019 163.324 137.623 167.483 136.179"/>
      <polygon class="cls-14" points="158.531 111.403 163.231 109.499 166.347 113.5 165.988 108.442 170.756 106.715 165.835 105.493 165.665 100.425 162.982 104.728 158.11 103.322 161.373 107.204 158.531 111.403"/>
      <polygon class="cls-14" points="193.946 100.454 199.027 96.632 204.091 100.476 202.027 94.463 207.247 90.834 200.89 90.939 199.053 84.852 197.188 90.931 190.832 90.798 196.036 94.45 193.946 100.454"/>
      <polygon class="cls-14" points="10.1 127.031 16.028 123.92 20.641 128.773 19.514 122.173 25.555 119.286 18.93 118.318 18.051 111.681 15.083 117.682 8.5 116.468 13.29 121.145 10.1 127.031"/>
      <polygon class="cls-14" points="51.175 46.05 45.187 43.122 46.368 36.562 41.733 41.352 35.859 38.201 38.982 44.09 34.17 48.703 40.736 47.552 43.636 53.554 44.571 46.954 51.175 46.05"/>
      <polygon class="cls-14" points="83.356 19.123 88.741 17.865 91.422 22.701 91.89 17.191 97.318 16.136 92.222 13.988 92.896 8.5 89.279 12.682 84.267 10.346 87.127 15.078 83.356 19.123"/>
    </g>
    <g class="cls-16">
      <polygon class="cls-17" points="232.019 180.399 226.877 184.902 237.828 188.987 232.019 180.399"/>
      <polygon class="cls-17" points="216.327 157.198 201.819 175.553 211.985 179.346 221.059 182.733 227.313 173.446 221.692 165.127 216.327 157.198"/>
      <polygon class="cls-17" points="170.362 163.816 183.987 168.9 192.196 171.963 210.762 148.973 202.595 136.892 198.088 130.228 170.362 163.816"/>
      <polygon class="cls-17" points="183.987 168.9 192.196 171.963 210.762 148.973 202.595 136.892 183.987 168.9"/>
      <polygon class="cls-17" points="201.819 175.553 211.985 179.346 221.692 165.127 216.327 157.198 201.819 175.553"/>
      <path class="cls-17" d="M190.4062,130.0857S176.0469,111.37,170.8947,88.829" transform="translate(-0.0002 -0.0001)"/>
      <path class="cls-18" d="M177.1762,133.1046s-46.1334-36.1938-57.9415-77.5494" transform="translate(-0.0002 -0.0001)"/>
      <path class="cls-17" d="M144.3131,126.12S82.9831,78.5975,42.9113,86.4211" transform="translate(-0.0002 -0.0001)"/>
      <path class="cls-19" d="M165.3308,148.7411s-27.8742-18.1248-64.21-20.821" transform="translate(-0.0002 -0.0001)"/>
      <path class="cls-17" d="M164.1577,157.3033s-22.0025-10.4357-52.4013-3.2733" transform="translate(-0.0002 -0.0001)"/>
      <path class="cls-20" d="M159.2932,98.4726S145.4769,81.965,146.5344,51.0281" transform="translate(-0.0002 -0.0001)"/>
      <path class="cls-20" d="M112.664,142.8011s-22.7749-.8788-39.4972,6.6675" transform="translate(-0.0002 -0.0001)"/>
      <path class="cls-19" d="M119.7479,93.8336s-30.29-20.9653-48.0422-51.2581" transform="translate(-0.0002 -0.0001)"/>
      <polygon class="cls-17" points="165.591 65.299 172.209 63.777 175.482 69.726 176.078 62.962 182.748 61.688 176.499 59.03 177.348 52.293 172.89 57.415 166.745 54.525 170.238 60.348 165.591 65.299"/>
      <polygon class="cls-17" points="109.593 51.01 104.377 46.13 107.646 39.778 101.392 43.231 96.362 38.16 97.714 45.174 91.335 48.392 98.424 49.273 99.513 56.333 102.542 49.864 109.593 51.01"/>
      <polygon class="cls-17" points="81.637 119.953 78.384 118.669 78.731 115.189 76.504 117.885 73.301 116.48 75.178 119.431 72.852 122.043 76.238 121.17 78.003 124.189 78.22 120.699 81.637 119.953"/>
      <polygon class="cls-17" points="90.232 175.657 96.199 173.878 99.541 179.131 99.692 172.906 105.722 171.351 99.848 169.283 100.232 163.069 96.451 168.016 90.659 165.73 94.195 170.855 90.232 175.657"/>
      <polygon class="cls-18" points="141.495 54.065 138.774 48.102 143.766 43.855 137.254 44.6 134.758 38.54 133.454 44.964 126.919 45.465 132.626 48.69 131.083 55.06 135.913 50.629 141.495 54.065"/>
      <polygon class="cls-18" points="53.849 74.843 62.443 72.597 66.952 80.251 67.472 71.383 76.145 69.46 67.872 66.225 68.723 57.382 63.09 64.251 54.943 60.709 59.735 68.189 53.849 74.843"/>
      <polygon class="cls-18" points="53.351 104.57 47.294 108.006 42.334 103.118 43.73 109.94 37.549 113.148 44.469 113.928 45.609 120.798 48.489 114.458 55.375 115.496 50.236 110.797 53.351 104.57"/>
      <polygon class="cls-18" points="63.722 176.61 70.07 172.913 75.361 178.01 73.806 170.83 80.288 167.372 72.979 166.632 71.694 159.399 68.732 166.122 61.456 165.109 66.934 170.004 63.722 176.61"/>
      <polygon class="cls-20" points="112.81 28.885 119.03 25.513 123.973 30.575 122.688 23.618 129.029 20.481 122.016 19.553 120.992 12.553 117.942 18.936 110.968 17.747 116.097 22.62 112.81 28.885"/>
      <polygon class="cls-20" points="30.653 84.875 26.746 82.392 28.066 77.955 24.497 80.903 20.686 78.276 22.387 82.582 18.71 85.395 23.331 85.107 24.871 89.473 26.025 84.99 30.653 84.875"/>
      <polygon class="cls-20" points="27.49 144.63 39.453 147.662 39.805 159.997 46.385 149.557 58.226 153.035 50.331 143.55 57.297 133.363 45.836 137.942 38.301 128.169 39.114 140.483 27.49 144.63"/>
      <polygon class="cls-20" points="126.302 103.56 129.384 102.897 130.864 105.68 131.186 102.544 134.29 101.997 131.407 100.722 131.846 97.6 129.742 99.948 126.909 98.566 128.492 101.292 126.302 103.56"/>
      <polygon class="cls-19" points="167.483 136.179 163.224 135.061 163.136 130.659 160.757 134.364 156.543 133.087 159.331 136.495 156.815 140.108 160.918 138.509 163.577 142.019 163.324 137.623 167.483 136.179"/>
      <polygon class="cls-19" points="158.531 111.403 163.231 109.499 166.347 113.5 165.988 108.442 170.756 106.715 165.835 105.493 165.665 100.425 162.982 104.728 158.11 103.322 161.373 107.204 158.531 111.403"/>
      <polygon class="cls-19" points="193.946 100.454 199.027 96.632 204.091 100.476 202.027 94.463 207.247 90.834 200.89 90.939 199.053 84.852 197.188 90.931 190.832 90.798 196.036 94.45 193.946 100.454"/>
      <polygon class="cls-19" points="10.1 127.031 16.028 123.92 20.641 128.773 19.514 122.173 25.555 119.286 18.93 118.318 18.051 111.681 15.083 117.682 8.5 116.468 13.29 121.145 10.1 127.031"/>
      <polygon class="cls-19" points="51.175 46.05 45.187 43.122 46.368 36.562 41.733 41.352 35.859 38.201 38.982 44.09 34.17 48.703 40.736 47.552 43.636 53.554 44.571 46.954 51.175 46.05"/>
      <polygon class="cls-19" points="83.356 19.123 88.741 17.865 91.422 22.701 91.89 17.191 97.318 16.136 92.222 13.988 92.896 8.5 89.279 12.682 84.267 10.346 87.127 15.078 83.356 19.123"/>
    </g>
    <g class="cls-21">
      <polygon class="cls-22" points="232.019 180.399 226.877 184.902 237.828 188.987 232.019 180.399"/>
      <polygon class="cls-22" points="216.327 157.198 201.819 175.553 211.985 179.346 221.059 182.733 227.313 173.446 221.692 165.127 216.327 157.198"/>
      <polygon class="cls-22" points="170.362 163.816 183.987 168.9 192.196 171.963 210.762 148.973 202.595 136.892 198.088 130.228 170.362 163.816"/>
      <polygon class="cls-22" points="183.987 168.9 192.196 171.963 210.762 148.973 202.595 136.892 183.987 168.9"/>
      <polygon class="cls-22" points="201.819 175.553 211.985 179.346 221.692 165.127 216.327 157.198 201.819 175.553"/>
      <path class="cls-22" d="M190.4062,130.0857S176.0469,111.37,170.8947,88.829" transform="translate(-0.0002 -0.0001)"/>
      <path class="cls-23" d="M177.1762,133.1046s-46.1334-36.1938-57.9415-77.5494" transform="translate(-0.0002 -0.0001)"/>
      <path class="cls-22" d="M144.3131,126.12S82.9831,78.5975,42.9113,86.4211" transform="translate(-0.0002 -0.0001)"/>
      <path class="cls-24" d="M165.3308,148.7411s-27.8742-18.1248-64.21-20.821" transform="translate(-0.0002 -0.0001)"/>
      <path class="cls-22" d="M164.1577,157.3033s-22.0025-10.4357-52.4013-3.2733" transform="translate(-0.0002 -0.0001)"/>
      <path class="cls-25" d="M159.2932,98.4726S145.4769,81.965,146.5344,51.0281" transform="translate(-0.0002 -0.0001)"/>
      <path class="cls-25" d="M112.664,142.8011s-22.7749-.8788-39.4972,6.6675" transform="translate(-0.0002 -0.0001)"/>
      <path class="cls-24" d="M119.7479,93.8336s-30.29-20.9653-48.0422-51.2581" transform="translate(-0.0002 -0.0001)"/>
      <polygon class="cls-22" points="165.591 65.299 172.209 63.777 175.482 69.726 176.078 62.962 182.748 61.688 176.499 59.03 177.348 52.293 172.89 57.415 166.745 54.525 170.238 60.348 165.591 65.299"/>
      <polygon class="cls-22" points="109.593 51.01 104.377 46.13 107.646 39.778 101.392 43.231 96.362 38.16 97.714 45.174 91.335 48.392 98.424 49.273 99.513 56.333 102.542 49.864 109.593 51.01"/>
      <polygon class="cls-22" points="81.637 119.953 78.384 118.669 78.731 115.189 76.504 117.885 73.301 116.48 75.178 119.431 72.852 122.043 76.238 121.17 78.003 124.189 78.22 120.699 81.637 119.953"/>
      <polygon class="cls-22" points="90.232 175.657 96.199 173.878 99.541 179.131 99.692 172.906 105.722 171.351 99.848 169.283 100.232 163.069 96.451 168.016 90.659 165.73 94.195 170.855 90.232 175.657"/>
      <polygon class="cls-23" points="141.495 54.065 138.774 48.102 143.766 43.855 137.254 44.6 134.758 38.54 133.454 44.964 126.919 45.465 132.626 48.69 131.083 55.06 135.913 50.629 141.495 54.065"/>
      <polygon class="cls-23" points="53.849 74.843 62.443 72.597 66.952 80.251 67.472 71.383 76.145 69.46 67.872 66.225 68.723 57.382 63.09 64.251 54.943 60.709 59.735 68.189 53.849 74.843"/>
      <polygon class="cls-23" points="53.351 104.57 47.294 108.006 42.334 103.118 43.73 109.94 37.549 113.148 44.469 113.928 45.609 120.798 48.489 114.458 55.375 115.496 50.236 110.797 53.351 104.57"/>
      <polygon class="cls-23" points="63.722 176.61 70.07 172.913 75.361 178.01 73.806 170.83 80.288 167.372 72.979 166.632 71.694 159.399 68.732 166.122 61.456 165.109 66.934 170.004 63.722 176.61"/>
      <polygon class="cls-25" points="112.81 28.885 119.03 25.513 123.973 30.575 122.688 23.618 129.029 20.481 122.016 19.553 120.992 12.553 117.942 18.936 110.968 17.747 116.097 22.62 112.81 28.885"/>
      <polygon class="cls-25" points="30.653 84.875 26.746 82.392 28.066 77.955 24.497 80.903 20.686 78.276 22.387 82.582 18.71 85.395 23.331 85.107 24.871 89.473 26.025 84.99 30.653 84.875"/>
      <polygon class="cls-25" points="27.49 144.63 39.453 147.662 39.805 159.997 46.385 149.557 58.226 153.035 50.331 143.55 57.297 133.363 45.836 137.942 38.301 128.169 39.114 140.483 27.49 144.63"/>
      <polygon class="cls-25" points="126.302 103.56 129.384 102.897 130.864 105.68 131.186 102.544 134.29 101.997 131.407 100.722 131.846 97.6 129.742 99.948 126.909 98.566 128.492 101.292 126.302 103.56"/>
      <polygon class="cls-24" points="167.483 136.179 163.224 135.061 163.136 130.659 160.757 134.364 156.543 133.087 159.331 136.495 156.815 140.108 160.918 138.509 163.577 142.019 163.324 137.623 167.483 136.179"/>
      <polygon class="cls-24" points="158.531 111.403 163.231 109.499 166.347 113.5 165.988 108.442 170.756 106.715 165.835 105.493 165.665 100.425 162.982 104.728 158.11 103.322 161.373 107.204 158.531 111.403"/>
      <polygon class="cls-24" points="193.946 100.454 199.027 96.632 204.091 100.476 202.027 94.463 207.247 90.834 200.89 90.939 199.053 84.852 197.188 90.931 190.832 90.798 196.036 94.45 193.946 100.454"/>
      <polygon class="cls-24" points="10.1 127.031 16.028 123.92 20.641 128.773 19.514 122.173 25.555 119.286 18.93 118.318 18.051 111.681 15.083 117.682 8.5 116.468 13.29 121.145 10.1 127.031"/>
      <polygon class="cls-24" points="51.175 46.05 45.187 43.122 46.368 36.562 41.733 41.352 35.859 38.201 38.982 44.09 34.17 48.703 40.736 47.552 43.636 53.554 44.571 46.954 51.175 46.05"/>
      <polygon class="cls-24" points="83.356 19.123 88.741 17.865 91.422 22.701 91.89 17.191 97.318 16.136 92.222 13.988 92.896 8.5 89.279 12.682 84.267 10.346 87.127 15.078 83.356 19.123"/>
    </g>
    <g class="cls-26">
      <polygon class="cls-27" points="232.019 180.399 226.877 184.902 237.828 188.987 232.019 180.399"/>
      <polygon class="cls-27" points="216.327 157.198 201.819 175.553 211.985 179.346 221.059 182.733 227.313 173.446 221.692 165.127 216.327 157.198"/>
      <polygon class="cls-27" points="170.362 163.816 183.987 168.9 192.196 171.963 210.762 148.973 202.595 136.892 198.088 130.228 170.362 163.816"/>
      <polygon class="cls-27" points="183.987 168.9 192.196 171.963 210.762 148.973 202.595 136.892 183.987 168.9"/>
      <polygon class="cls-27" points="201.819 175.553 211.985 179.346 221.692 165.127 216.327 157.198 201.819 175.553"/>
      <path class="cls-27" d="M190.4062,130.0857S176.0469,111.37,170.8947,88.829" transform="translate(-0.0002 -0.0001)"/>
      <path class="cls-28" d="M177.1762,133.1046s-46.1334-36.1938-57.9415-77.5494" transform="translate(-0.0002 -0.0001)"/>
      <path class="cls-27" d="M144.3131,126.12S82.9831,78.5975,42.9113,86.4211" transform="translate(-0.0002 -0.0001)"/>
      <path class="cls-29" d="M165.3308,148.7411s-27.8742-18.1248-64.21-20.821" transform="translate(-0.0002 -0.0001)"/>
      <path class="cls-27" d="M164.1577,157.3033s-22.0025-10.4357-52.4013-3.2733" transform="translate(-0.0002 -0.0001)"/>
      <path class="cls-30" d="M159.2932,98.4726S145.4769,81.965,146.5344,51.0281" transform="translate(-0.0002 -0.0001)"/>
      <path class="cls-30" d="M112.664,142.8011s-22.7749-.8788-39.4972,6.6675" transform="translate(-0.0002 -0.0001)"/>
      <path class="cls-29" d="M119.7479,93.8336s-30.29-20.9653-48.0422-51.2581" transform="translate(-0.0002 -0.0001)"/>
      <polygon class="cls-27" points="165.591 65.299 172.209 63.777 175.482 69.726 176.078 62.962 182.748 61.688 176.499 59.03 177.348 52.293 172.89 57.415 166.745 54.525 170.238 60.348 165.591 65.299"/>
      <polygon class="cls-27" points="109.593 51.01 104.377 46.13 107.646 39.778 101.392 43.231 96.362 38.16 97.714 45.174 91.335 48.392 98.424 49.273 99.513 56.333 102.542 49.864 109.593 51.01"/>
      <polygon class="cls-27" points="81.637 119.953 78.384 118.669 78.731 115.189 76.504 117.885 73.301 116.48 75.178 119.431 72.852 122.043 76.238 121.17 78.003 124.189 78.22 120.699 81.637 119.953"/>
      <polygon class="cls-27" points="90.232 175.657 96.199 173.878 99.541 179.131 99.692 172.906 105.722 171.351 99.848 169.283 100.232 163.069 96.451 168.016 90.659 165.73 94.195 170.855 90.232 175.657"/>
      <polygon class="cls-28" points="141.495 54.065 138.774 48.102 143.766 43.855 137.254 44.6 134.758 38.54 133.454 44.964 126.919 45.465 132.626 48.69 131.083 55.06 135.913 50.629 141.495 54.065"/>
      <polygon class="cls-28" points="53.849 74.843 62.443 72.597 66.952 80.251 67.472 71.383 76.145 69.46 67.872 66.225 68.723 57.382 63.09 64.251 54.943 60.709 59.735 68.189 53.849 74.843"/>
      <polygon class="cls-28" points="53.351 104.57 47.294 108.006 42.334 103.118 43.73 109.94 37.549 113.148 44.469 113.928 45.609 120.798 48.489 114.458 55.375 115.496 50.236 110.797 53.351 104.57"/>
      <polygon class="cls-28" points="63.722 176.61 70.07 172.913 75.361 178.01 73.806 170.83 80.288 167.372 72.979 166.632 71.694 159.399 68.732 166.122 61.456 165.109 66.934 170.004 63.722 176.61"/>
      <polygon class="cls-30" points="112.81 28.885 119.03 25.513 123.973 30.575 122.688 23.618 129.029 20.481 122.016 19.553 120.992 12.553 117.942 18.936 110.968 17.747 116.097 22.62 112.81 28.885"/>
      <polygon class="cls-30" points="30.653 84.875 26.746 82.392 28.066 77.955 24.497 80.903 20.686 78.276 22.387 82.582 18.71 85.395 23.331 85.107 24.871 89.473 26.025 84.99 30.653 84.875"/>
      <polygon class="cls-30" points="27.49 144.63 39.453 147.662 39.805 159.997 46.385 149.557 58.226 153.035 50.331 143.55 57.297 133.363 45.836 137.942 38.301 128.169 39.114 140.483 27.49 144.63"/>
      <polygon class="cls-30" points="126.302 103.56 129.384 102.897 130.864 105.68 131.186 102.544 134.29 101.997 131.407 100.722 131.846 97.6 129.742 99.948 126.909 98.566 128.492 101.292 126.302 103.56"/>
      <polygon class="cls-29" points="167.483 136.179 163.224 135.061 163.136 130.659 160.757 134.364 156.543 133.087 159.331 136.495 156.815 140.108 160.918 138.509 163.577 142.019 163.324 137.623 167.483 136.179"/>
      <polygon class="cls-29" points="158.531 111.403 163.231 109.499 166.347 113.5 165.988 108.442 170.756 106.715 165.835 105.493 165.665 100.425 162.982 104.728 158.11 103.322 161.373 107.204 158.531 111.403"/>
      <polygon class="cls-29" points="193.946 100.454 199.027 96.632 204.091 100.476 202.027 94.463 207.247 90.834 200.89 90.939 199.053 84.852 197.188 90.931 190.832 90.798 196.036 94.45 193.946 100.454"/>
      <polygon class="cls-29" points="10.1 127.031 16.028 123.92 20.641 128.773 19.514 122.173 25.555 119.286 18.93 118.318 18.051 111.681 15.083 117.682 8.5 116.468 13.29 121.145 10.1 127.031"/>
      <polygon class="cls-29" points="51.175 46.05 45.187 43.122 46.368 36.562 41.733 41.352 35.859 38.201 38.982 44.09 34.17 48.703 40.736 47.552 43.636 53.554 44.571 46.954 51.175 46.05"/>
      <polygon class="cls-29" points="83.356 19.123 88.741 17.865 91.422 22.701 91.89 17.191 97.318 16.136 92.222 13.988 92.896 8.5 89.279 12.682 84.267 10.346 87.127 15.078 83.356 19.123"/>
    </g>
    <g class="cls-31">
      <polygon class="cls-32" points="232.019 180.399 226.877 184.902 237.828 188.987 232.019 180.399"/>
      <polygon class="cls-32" points="216.327 157.198 201.819 175.553 211.985 179.346 221.059 182.733 227.313 173.446 221.692 165.127 216.327 157.198"/>
      <polygon class="cls-32" points="170.362 163.816 183.987 168.9 192.196 171.963 210.762 148.973 202.595 136.892 198.088 130.228 170.362 163.816"/>
      <polygon class="cls-32" points="183.987 168.9 192.196 171.963 210.762 148.973 202.595 136.892 183.987 168.9"/>
      <polygon class="cls-32" points="201.819 175.553 211.985 179.346 221.692 165.127 216.327 157.198 201.819 175.553"/>
      <path class="cls-32" d="M190.4062,130.0857S176.0469,111.37,170.8947,88.829" transform="translate(-0.0002 -0.0001)"/>
      <path class="cls-33" d="M177.1762,133.1046s-46.1334-36.1938-57.9415-77.5494" transform="translate(-0.0002 -0.0001)"/>
      <path class="cls-32" d="M144.3131,126.12S82.9831,78.5975,42.9113,86.4211" transform="translate(-0.0002 -0.0001)"/>
      <path class="cls-34" d="M165.3308,148.7411s-27.8742-18.1248-64.21-20.821" transform="translate(-0.0002 -0.0001)"/>
      <path class="cls-32" d="M164.1577,157.3033s-22.0025-10.4357-52.4013-3.2733" transform="translate(-0.0002 -0.0001)"/>
      <path class="cls-35" d="M159.2932,98.4726S145.4769,81.965,146.5344,51.0281" transform="translate(-0.0002 -0.0001)"/>
      <path class="cls-35" d="M112.664,142.8011s-22.7749-.8788-39.4972,6.6675" transform="translate(-0.0002 -0.0001)"/>
      <path class="cls-34" d="M119.7479,93.8336s-30.29-20.9653-48.0422-51.2581" transform="translate(-0.0002 -0.0001)"/>
      <polygon class="cls-32" points="165.591 65.299 172.209 63.777 175.482 69.726 176.078 62.962 182.748 61.688 176.499 59.03 177.348 52.293 172.89 57.415 166.745 54.525 170.238 60.348 165.591 65.299"/>
      <polygon class="cls-32" points="109.593 51.01 104.377 46.13 107.646 39.778 101.392 43.231 96.362 38.16 97.714 45.174 91.335 48.392 98.424 49.273 99.513 56.333 102.542 49.864 109.593 51.01"/>
      <polygon class="cls-32" points="81.637 119.953 78.384 118.669 78.731 115.189 76.504 117.885 73.301 116.48 75.178 119.431 72.852 122.043 76.238 121.17 78.003 124.189 78.22 120.699 81.637 119.953"/>
      <polygon class="cls-32" points="90.232 175.657 96.199 173.878 99.541 179.131 99.692 172.906 105.722 171.351 99.848 169.283 100.232 163.069 96.451 168.016 90.659 165.73 94.195 170.855 90.232 175.657"/>
      <polygon class="cls-33" points="141.495 54.065 138.774 48.102 143.766 43.855 137.254 44.6 134.758 38.54 133.454 44.964 126.919 45.465 132.626 48.69 131.083 55.06 135.913 50.629 141.495 54.065"/>
      <polygon class="cls-33" points="53.849 74.843 62.443 72.597 66.952 80.251 67.472 71.383 76.145 69.46 67.872 66.225 68.723 57.382 63.09 64.251 54.943 60.709 59.735 68.189 53.849 74.843"/>
      <polygon class="cls-33" points="53.351 104.57 47.294 108.006 42.334 103.118 43.73 109.94 37.549 113.148 44.469 113.928 45.609 120.798 48.489 114.458 55.375 115.496 50.236 110.797 53.351 104.57"/>
      <polygon class="cls-33" points="63.722 176.61 70.07 172.913 75.361 178.01 73.806 170.83 80.288 167.372 72.979 166.632 71.694 159.399 68.732 166.122 61.456 165.109 66.934 170.004 63.722 176.61"/>
      <polygon class="cls-35" points="112.81 28.885 119.03 25.513 123.973 30.575 122.688 23.618 129.029 20.481 122.016 19.553 120.992 12.553 117.942 18.936 110.968 17.747 116.097 22.62 112.81 28.885"/>
      <polygon class="cls-35" points="30.653 84.875 26.746 82.392 28.066 77.955 24.497 80.903 20.686 78.276 22.387 82.582 18.71 85.395 23.331 85.107 24.871 89.473 26.025 84.99 30.653 84.875"/>
      <polygon class="cls-35" points="27.49 144.63 39.453 147.662 39.805 159.997 46.385 149.557 58.226 153.035 50.331 143.55 57.297 133.363 45.836 137.942 38.301 128.169 39.114 140.483 27.49 144.63"/>
      <polygon class="cls-35" points="126.302 103.56 129.384 102.897 130.864 105.68 131.186 102.544 134.29 101.997 131.407 100.722 131.846 97.6 129.742 99.948 126.909 98.566 128.492 101.292 126.302 103.56"/>
      <polygon class="cls-34" points="167.483 136.179 163.224 135.061 163.136 130.659 160.757 134.364 156.543 133.087 159.331 136.495 156.815 140.108 160.918 138.509 163.577 142.019 163.324 137.623 167.483 136.179"/>
      <polygon class="cls-34" points="158.531 111.403 163.231 109.499 166.347 113.5 165.988 108.442 170.756 106.715 165.835 105.493 165.665 100.425 162.982 104.728 158.11 103.322 161.373 107.204 158.531 111.403"/>
      <polygon class="cls-34" points="193.946 100.454 199.027 96.632 204.091 100.476 202.027 94.463 207.247 90.834 200.89 90.939 199.053 84.852 197.188 90.931 190.832 90.798 196.036 94.45 193.946 100.454"/>
      <polygon class="cls-34" points="10.1 127.031 16.028 123.92 20.641 128.773 19.514 122.173 25.555 119.286 18.93 118.318 18.051 111.681 15.083 117.682 8.5 116.468 13.29 121.145 10.1 127.031"/>
      <polygon class="cls-34" points="51.175 46.05 45.187 43.122 46.368 36.562 41.733 41.352 35.859 38.201 38.982 44.09 34.17 48.703 40.736 47.552 43.636 53.554 44.571 46.954 51.175 46.05"/>
      <polygon class="cls-34" points="83.356 19.123 88.741 17.865 91.422 22.701 91.89 17.191 97.318 16.136 92.222 13.988 92.896 8.5 89.279 12.682 84.267 10.346 87.127 15.078 83.356 19.123"/>
    </g>
    <g class="cls-36">
      <polygon class="cls-37" points="232.019 180.399 226.877 184.902 237.828 188.987 232.019 180.399"/>
      <polygon class="cls-37" points="216.327 157.198 201.819 175.553 211.985 179.346 221.059 182.733 227.313 173.446 221.692 165.127 216.327 157.198"/>
      <polygon class="cls-37" points="170.362 163.816 183.987 168.9 192.196 171.963 210.762 148.973 202.595 136.892 198.088 130.228 170.362 163.816"/>
      <polygon class="cls-37" points="183.987 168.9 192.196 171.963 210.762 148.973 202.595 136.892 183.987 168.9"/>
      <polygon class="cls-37" points="201.819 175.553 211.985 179.346 221.692 165.127 216.327 157.198 201.819 175.553"/>
      <path class="cls-37" d="M190.4062,130.0857S176.0469,111.37,170.8947,88.829" transform="translate(-0.0002 -0.0001)"/>
      <path class="cls-38" d="M177.1762,133.1046s-46.1334-36.1938-57.9415-77.5494" transform="translate(-0.0002 -0.0001)"/>
      <path class="cls-37" d="M144.3131,126.12S82.9831,78.5975,42.9113,86.4211" transform="translate(-0.0002 -0.0001)"/>
      <path class="cls-39" d="M165.3308,148.7411s-27.8742-18.1248-64.21-20.821" transform="translate(-0.0002 -0.0001)"/>
      <path class="cls-37" d="M164.1577,157.3033s-22.0025-10.4357-52.4013-3.2733" transform="translate(-0.0002 -0.0001)"/>
      <path class="cls-40" d="M159.2932,98.4726S145.4769,81.965,146.5344,51.0281" transform="translate(-0.0002 -0.0001)"/>
      <path class="cls-40" d="M112.664,142.8011s-22.7749-.8788-39.4972,6.6675" transform="translate(-0.0002 -0.0001)"/>
      <path class="cls-39" d="M119.7479,93.8336s-30.29-20.9653-48.0422-51.2581" transform="translate(-0.0002 -0.0001)"/>
      <polygon class="cls-37" points="165.591 65.299 172.209 63.777 175.482 69.726 176.078 62.962 182.748 61.688 176.499 59.03 177.348 52.293 172.89 57.415 166.745 54.525 170.238 60.348 165.591 65.299"/>
      <polygon class="cls-37" points="109.593 51.01 104.377 46.13 107.646 39.778 101.392 43.231 96.362 38.16 97.714 45.174 91.335 48.392 98.424 49.273 99.513 56.333 102.542 49.864 109.593 51.01"/>
      <polygon class="cls-37" points="81.637 119.953 78.384 118.669 78.731 115.189 76.504 117.885 73.301 116.48 75.178 119.431 72.852 122.043 76.238 121.17 78.003 124.189 78.22 120.699 81.637 119.953"/>
      <polygon class="cls-37" points="90.232 175.657 96.199 173.878 99.541 179.131 99.692 172.906 105.722 171.351 99.848 169.283 100.232 163.069 96.451 168.016 90.659 165.73 94.195 170.855 90.232 175.657"/>
      <polygon class="cls-38" points="141.495 54.065 138.774 48.102 143.766 43.855 137.254 44.6 134.758 38.54 133.454 44.964 126.919 45.465 132.626 48.69 131.083 55.06 135.913 50.629 141.495 54.065"/>
      <polygon class="cls-38" points="53.849 74.843 62.443 72.597 66.952 80.251 67.472 71.383 76.145 69.46 67.872 66.225 68.723 57.382 63.09 64.251 54.943 60.709 59.735 68.189 53.849 74.843"/>
      <polygon class="cls-38" points="53.351 104.57 47.294 108.006 42.334 103.118 43.73 109.94 37.549 113.148 44.469 113.928 45.609 120.798 48.489 114.458 55.375 115.496 50.236 110.797 53.351 104.57"/>
      <polygon class="cls-38" points="63.722 176.61 70.07 172.913 75.361 178.01 73.806 170.83 80.288 167.372 72.979 166.632 71.694 159.399 68.732 166.122 61.456 165.109 66.934 170.004 63.722 176.61"/>
      <polygon class="cls-40" points="112.81 28.885 119.03 25.513 123.973 30.575 122.688 23.618 129.029 20.481 122.016 19.553 120.992 12.553 117.942 18.936 110.968 17.747 116.097 22.62 112.81 28.885"/>
      <polygon class="cls-40" points="30.653 84.875 26.746 82.392 28.066 77.955 24.497 80.903 20.686 78.276 22.387 82.582 18.71 85.395 23.331 85.107 24.871 89.473 26.025 84.99 30.653 84.875"/>
      <polygon class="cls-40" points="27.49 144.63 39.453 147.662 39.805 159.997 46.385 149.557 58.226 153.035 50.331 143.55 57.297 133.363 45.836 137.942 38.301 128.169 39.114 140.483 27.49 144.63"/>
      <polygon class="cls-40" points="126.302 103.56 129.384 102.897 130.864 105.68 131.186 102.544 134.29 101.997 131.407 100.722 131.846 97.6 129.742 99.948 126.909 98.566 128.492 101.292 126.302 103.56"/>
      <polygon class="cls-39" points="167.483 136.179 163.224 135.061 163.136 130.659 160.757 134.364 156.543 133.087 159.331 136.495 156.815 140.108 160.918 138.509 163.577 142.019 163.324 137.623 167.483 136.179"/>
      <polygon class="cls-39" points="158.531 111.403 163.231 109.499 166.347 113.5 165.988 108.442 170.756 106.715 165.835 105.493 165.665 100.425 162.982 104.728 158.11 103.322 161.373 107.204 158.531 111.403"/>
      <polygon class="cls-39" points="193.946 100.454 199.027 96.632 204.091 100.476 202.027 94.463 207.247 90.834 200.89 90.939 199.053 84.852 197.188 90.931 190.832 90.798 196.036 94.45 193.946 100.454"/>
      <polygon class="cls-39" points="10.1 127.031 16.028 123.92 20.641 128.773 19.514 122.173 25.555 119.286 18.93 118.318 18.051 111.681 15.083 117.682 8.5 116.468 13.29 121.145 10.1 127.031"/>
      <polygon class="cls-39" points="51.175 46.05 45.187 43.122 46.368 36.562 41.733 41.352 35.859 38.201 38.982 44.09 34.17 48.703 40.736 47.552 43.636 53.554 44.571 46.954 51.175 46.05"/>
      <polygon class="cls-39" points="83.356 19.123 88.741 17.865 91.422 22.701 91.89 17.191 97.318 16.136 92.222 13.988 92.896 8.5 89.279 12.682 84.267 10.346 87.127 15.078 83.356 19.123"/>
    </g>
    <g class="cls-41">
      <polygon class="cls-42" points="232.019 180.399 226.877 184.902 237.828 188.987 232.019 180.399"/>
      <polygon class="cls-42" points="216.327 157.198 201.819 175.553 211.985 179.346 221.059 182.733 227.313 173.446 221.692 165.127 216.327 157.198"/>
      <polygon class="cls-42" points="170.362 163.816 183.987 168.9 192.196 171.963 210.762 148.973 202.595 136.892 198.088 130.228 170.362 163.816"/>
      <polygon class="cls-42" points="183.987 168.9 192.196 171.963 210.762 148.973 202.595 136.892 183.987 168.9"/>
      <polygon class="cls-42" points="201.819 175.553 211.985 179.346 221.692 165.127 216.327 157.198 201.819 175.553"/>
      <path class="cls-42" d="M190.4062,130.0857S176.0469,111.37,170.8947,88.829" transform="translate(-0.0002 -0.0001)"/>
      <path class="cls-43" d="M177.1762,133.1046s-46.1334-36.1938-57.9415-77.5494" transform="translate(-0.0002 -0.0001)"/>
      <path class="cls-42" d="M144.3131,126.12S82.9831,78.5975,42.9113,86.4211" transform="translate(-0.0002 -0.0001)"/>
      <path class="cls-44" d="M165.3308,148.7411s-27.8742-18.1248-64.21-20.821" transform="translate(-0.0002 -0.0001)"/>
      <path class="cls-42" d="M164.1577,157.3033s-22.0025-10.4357-52.4013-3.2733" transform="translate(-0.0002 -0.0001)"/>
      <path class="cls-45" d="M159.2932,98.4726S145.4769,81.965,146.5344,51.0281" transform="translate(-0.0002 -0.0001)"/>
      <path class="cls-45" d="M112.664,142.8011s-22.7749-.8788-39.4972,6.6675" transform="translate(-0.0002 -0.0001)"/>
      <path class="cls-44" d="M119.7479,93.8336s-30.29-20.9653-48.0422-51.2581" transform="translate(-0.0002 -0.0001)"/>
      <polygon class="cls-42" points="165.591 65.299 172.209 63.777 175.482 69.726 176.078 62.962 182.748 61.688 176.499 59.03 177.348 52.293 172.89 57.415 166.745 54.525 170.238 60.348 165.591 65.299"/>
      <polygon class="cls-42" points="109.593 51.01 104.377 46.13 107.646 39.778 101.392 43.231 96.362 38.16 97.714 45.174 91.335 48.392 98.424 49.273 99.513 56.333 102.542 49.864 109.593 51.01"/>
      <polygon class="cls-42" points="81.637 119.953 78.384 118.669 78.731 115.189 76.504 117.885 73.301 116.48 75.178 119.431 72.852 122.043 76.238 121.17 78.003 124.189 78.22 120.699 81.637 119.953"/>
      <polygon class="cls-42" points="90.232 175.657 96.199 173.878 99.541 179.131 99.692 172.906 105.722 171.351 99.848 169.283 100.232 163.069 96.451 168.016 90.659 165.73 94.195 170.855 90.232 175.657"/>
      <polygon class="cls-43" points="141.495 54.065 138.774 48.102 143.766 43.855 137.254 44.6 134.758 38.54 133.454 44.964 126.919 45.465 132.626 48.69 131.083 55.06 135.913 50.629 141.495 54.065"/>
      <polygon class="cls-43" points="53.849 74.843 62.443 72.597 66.952 80.251 67.472 71.383 76.145 69.46 67.872 66.225 68.723 57.382 63.09 64.251 54.943 60.709 59.735 68.189 53.849 74.843"/>
      <polygon class="cls-43" points="53.351 104.57 47.294 108.006 42.334 103.118 43.73 109.94 37.549 113.148 44.469 113.928 45.609 120.798 48.489 114.458 55.375 115.496 50.236 110.797 53.351 104.57"/>
      <polygon class="cls-43" points="63.722 176.61 70.07 172.913 75.361 178.01 73.806 170.83 80.288 167.372 72.979 166.632 71.694 159.399 68.732 166.122 61.456 165.109 66.934 170.004 63.722 176.61"/>
      <polygon class="cls-45" points="112.81 28.885 119.03 25.513 123.973 30.575 122.688 23.618 129.029 20.481 122.016 19.553 120.992 12.553 117.942 18.936 110.968 17.747 116.097 22.62 112.81 28.885"/>
      <polygon class="cls-45" points="30.653 84.875 26.746 82.392 28.066 77.955 24.497 80.903 20.686 78.276 22.387 82.582 18.71 85.395 23.331 85.107 24.871 89.473 26.025 84.99 30.653 84.875"/>
      <polygon class="cls-45" points="27.49 144.63 39.453 147.662 39.805 159.997 46.385 149.557 58.226 153.035 50.331 143.55 57.297 133.363 45.836 137.942 38.301 128.169 39.114 140.483 27.49 144.63"/>
      <polygon class="cls-45" points="126.302 103.56 129.384 102.897 130.864 105.68 131.186 102.544 134.29 101.997 131.407 100.722 131.846 97.6 129.742 99.948 126.909 98.566 128.492 101.292 126.302 103.56"/>
      <polygon class="cls-44" points="167.483 136.179 163.224 135.061 163.136 130.659 160.757 134.364 156.543 133.087 159.331 136.495 156.815 140.108 160.918 138.509 163.577 142.019 163.324 137.623 167.483 136.179"/>
      <polygon class="cls-44" points="158.531 111.403 163.231 109.499 166.347 113.5 165.988 108.442 170.756 106.715 165.835 105.493 165.665 100.425 162.982 104.728 158.11 103.322 161.373 107.204 158.531 111.403"/>
      <polygon class="cls-44" points="193.946 100.454 199.027 96.632 204.091 100.476 202.027 94.463 207.247 90.834 200.89 90.939 199.053 84.852 197.188 90.931 190.832 90.798 196.036 94.45 193.946 100.454"/>
      <polygon class="cls-44" points="10.1 127.031 16.028 123.92 20.641 128.773 19.514 122.173 25.555 119.286 18.93 118.318 18.051 111.681 15.083 117.682 8.5 116.468 13.29 121.145 10.1 127.031"/>
      <polygon class="cls-44" points="51.175 46.05 45.187 43.122 46.368 36.562 41.733 41.352 35.859 38.201 38.982 44.09 34.17 48.703 40.736 47.552 43.636 53.554 44.571 46.954 51.175 46.05"/>
      <polygon class="cls-44" points="83.356 19.123 88.741 17.865 91.422 22.701 91.89 17.191 97.318 16.136 92.222 13.988 92.896 8.5 89.279 12.682 84.267 10.346 87.127 15.078 83.356 19.123"/>
    </g>
    <g class="cls-46">
      <polygon class="cls-47" points="232.019 180.399 226.877 184.902 237.828 188.987 232.019 180.399"/>
      <polygon class="cls-47" points="216.327 157.198 201.819 175.553 211.985 179.346 221.059 182.733 227.313 173.446 221.692 165.127 216.327 157.198"/>
      <polygon class="cls-47" points="170.362 163.816 183.987 168.9 192.196 171.963 210.762 148.973 202.595 136.892 198.088 130.228 170.362 163.816"/>
      <polygon class="cls-47" points="183.987 168.9 192.196 171.963 210.762 148.973 202.595 136.892 183.987 168.9"/>
      <polygon class="cls-47" points="201.819 175.553 211.985 179.346 221.692 165.127 216.327 157.198 201.819 175.553"/>
      <path class="cls-47" d="M190.4062,130.0857S176.0469,111.37,170.8947,88.829" transform="translate(-0.0002 -0.0001)"/>
      <path class="cls-48" d="M177.1762,133.1046s-46.1334-36.1938-57.9415-77.5494" transform="translate(-0.0002 -0.0001)"/>
      <path class="cls-47" d="M144.3131,126.12S82.9831,78.5975,42.9113,86.4211" transform="translate(-0.0002 -0.0001)"/>
      <path class="cls-49" d="M165.3308,148.7411s-27.8742-18.1248-64.21-20.821" transform="translate(-0.0002 -0.0001)"/>
      <path class="cls-47" d="M164.1577,157.3033s-22.0025-10.4357-52.4013-3.2733" transform="translate(-0.0002 -0.0001)"/>
      <path class="cls-50" d="M159.2932,98.4726S145.4769,81.965,146.5344,51.0281" transform="translate(-0.0002 -0.0001)"/>
      <path class="cls-50" d="M112.664,142.8011s-22.7749-.8788-39.4972,6.6675" transform="translate(-0.0002 -0.0001)"/>
      <path class="cls-49" d="M119.7479,93.8336s-30.29-20.9653-48.0422-51.2581" transform="translate(-0.0002 -0.0001)"/>
      <polygon class="cls-47" points="165.591 65.299 172.209 63.777 175.482 69.726 176.078 62.962 182.748 61.688 176.499 59.03 177.348 52.293 172.89 57.415 166.745 54.525 170.238 60.348 165.591 65.299"/>
      <polygon class="cls-47" points="109.593 51.01 104.377 46.13 107.646 39.778 101.392 43.231 96.362 38.16 97.714 45.174 91.335 48.392 98.424 49.273 99.513 56.333 102.542 49.864 109.593 51.01"/>
      <polygon class="cls-47" points="81.637 119.953 78.384 118.669 78.731 115.189 76.504 117.885 73.301 116.48 75.178 119.431 72.852 122.043 76.238 121.17 78.003 124.189 78.22 120.699 81.637 119.953"/>
      <polygon class="cls-47" points="90.232 175.657 96.199 173.878 99.541 179.131 99.692 172.906 105.722 171.351 99.848 169.283 100.232 163.069 96.451 168.016 90.659 165.73 94.195 170.855 90.232 175.657"/>
      <polygon class="cls-48" points="141.495 54.065 138.774 48.102 143.766 43.855 137.254 44.6 134.758 38.54 133.454 44.964 126.919 45.465 132.626 48.69 131.083 55.06 135.913 50.629 141.495 54.065"/>
      <polygon class="cls-48" points="53.849 74.843 62.443 72.597 66.952 80.251 67.472 71.383 76.145 69.46 67.872 66.225 68.723 57.382 63.09 64.251 54.943 60.709 59.735 68.189 53.849 74.843"/>
      <polygon class="cls-48" points="53.351 104.57 47.294 108.006 42.334 103.118 43.73 109.94 37.549 113.148 44.469 113.928 45.609 120.798 48.489 114.458 55.375 115.496 50.236 110.797 53.351 104.57"/>
      <polygon class="cls-48" points="63.722 176.61 70.07 172.913 75.361 178.01 73.806 170.83 80.288 167.372 72.979 166.632 71.694 159.399 68.732 166.122 61.456 165.109 66.934 170.004 63.722 176.61"/>
      <polygon class="cls-50" points="112.81 28.885 119.03 25.513 123.973 30.575 122.688 23.618 129.029 20.481 122.016 19.553 120.992 12.553 117.942 18.936 110.968 17.747 116.097 22.62 112.81 28.885"/>
      <polygon class="cls-50" points="30.653 84.875 26.746 82.392 28.066 77.955 24.497 80.903 20.686 78.276 22.387 82.582 18.71 85.395 23.331 85.107 24.871 89.473 26.025 84.99 30.653 84.875"/>
      <polygon class="cls-50" points="27.49 144.63 39.453 147.662 39.805 159.997 46.385 149.557 58.226 153.035 50.331 143.55 57.297 133.363 45.836 137.942 38.301 128.169 39.114 140.483 27.49 144.63"/>
      <polygon class="cls-50" points="126.302 103.56 129.384 102.897 130.864 105.68 131.186 102.544 134.29 101.997 131.407 100.722 131.846 97.6 129.742 99.948 126.909 98.566 128.492 101.292 126.302 103.56"/>
      <polygon class="cls-49" points="167.483 136.179 163.224 135.061 163.136 130.659 160.757 134.364 156.543 133.087 159.331 136.495 156.815 140.108 160.918 138.509 163.577 142.019 163.324 137.623 167.483 136.179"/>
      <polygon class="cls-49" points="158.531 111.403 163.231 109.499 166.347 113.5 165.988 108.442 170.756 106.715 165.835 105.493 165.665 100.425 162.982 104.728 158.11 103.322 161.373 107.204 158.531 111.403"/>
      <polygon class="cls-49" points="193.946 100.454 199.027 96.632 204.091 100.476 202.027 94.463 207.247 90.834 200.89 90.939 199.053 84.852 197.188 90.931 190.832 90.798 196.036 94.45 193.946 100.454"/>
      <polygon class="cls-49" points="10.1 127.031 16.028 123.92 20.641 128.773 19.514 122.173 25.555 119.286 18.93 118.318 18.051 111.681 15.083 117.682 8.5 116.468 13.29 121.145 10.1 127.031"/>
      <polygon class="cls-49" points="51.175 46.05 45.187 43.122 46.368 36.562 41.733 41.352 35.859 38.201 38.982 44.09 34.17 48.703 40.736 47.552 43.636 53.554 44.571 46.954 51.175 46.05"/>
      <polygon class="cls-49" points="83.356 19.123 88.741 17.865 91.422 22.701 91.89 17.191 97.318 16.136 92.222 13.988 92.896 8.5 89.279 12.682 84.267 10.346 87.127 15.078 83.356 19.123"/>
    </g>
    <g class="cls-51">
      <polygon class="cls-52" points="232.019 180.399 226.877 184.902 237.828 188.987 232.019 180.399"/>
      <polygon class="cls-52" points="216.327 157.198 201.819 175.553 211.985 179.346 221.059 182.733 227.313 173.446 221.692 165.127 216.327 157.198"/>
      <polygon class="cls-52" points="170.362 163.816 183.987 168.9 192.196 171.963 210.762 148.973 202.595 136.892 198.088 130.228 170.362 163.816"/>
      <polygon class="cls-52" points="183.987 168.9 192.196 171.963 210.762 148.973 202.595 136.892 183.987 168.9"/>
      <polygon class="cls-52" points="201.819 175.553 211.985 179.346 221.692 165.127 216.327 157.198 201.819 175.553"/>
      <path class="cls-52" d="M190.4062,130.0857S176.0469,111.37,170.8947,88.829" transform="translate(-0.0002 -0.0001)"/>
      <path class="cls-53" d="M177.1762,133.1046s-46.1334-36.1938-57.9415-77.5494" transform="translate(-0.0002 -0.0001)"/>
      <path class="cls-52" d="M144.3131,126.12S82.9831,78.5975,42.9113,86.4211" transform="translate(-0.0002 -0.0001)"/>
      <path class="cls-54" d="M165.3308,148.7411s-27.8742-18.1248-64.21-20.821" transform="translate(-0.0002 -0.0001)"/>
      <path class="cls-52" d="M164.1577,157.3033s-22.0025-10.4357-52.4013-3.2733" transform="translate(-0.0002 -0.0001)"/>
      <path class="cls-55" d="M159.2932,98.4726S145.4769,81.965,146.5344,51.0281" transform="translate(-0.0002 -0.0001)"/>
      <path class="cls-55" d="M112.664,142.8011s-22.7749-.8788-39.4972,6.6675" transform="translate(-0.0002 -0.0001)"/>
      <path class="cls-54" d="M119.7479,93.8336s-30.29-20.9653-48.0422-51.2581" transform="translate(-0.0002 -0.0001)"/>
      <polygon class="cls-52" points="165.591 65.299 172.209 63.777 175.482 69.726 176.078 62.962 182.748 61.688 176.499 59.03 177.348 52.293 172.89 57.415 166.745 54.525 170.238 60.348 165.591 65.299"/>
      <polygon class="cls-52" points="109.593 51.01 104.377 46.13 107.646 39.778 101.392 43.231 96.362 38.16 97.714 45.174 91.335 48.392 98.424 49.273 99.513 56.333 102.542 49.864 109.593 51.01"/>
      <polygon class="cls-52" points="81.637 119.953 78.384 118.669 78.731 115.189 76.504 117.885 73.301 116.48 75.178 119.431 72.852 122.043 76.238 121.17 78.003 124.189 78.22 120.699 81.637 119.953"/>
      <polygon class="cls-52" points="90.232 175.657 96.199 173.878 99.541 179.131 99.692 172.906 105.722 171.351 99.848 169.283 100.232 163.069 96.451 168.016 90.659 165.73 94.195 170.855 90.232 175.657"/>
      <polygon class="cls-53" points="141.495 54.065 138.774 48.102 143.766 43.855 137.254 44.6 134.758 38.54 133.454 44.964 126.919 45.465 132.626 48.69 131.083 55.06 135.913 50.629 141.495 54.065"/>
      <polygon class="cls-53" points="53.849 74.843 62.443 72.597 66.952 80.251 67.472 71.383 76.145 69.46 67.872 66.225 68.723 57.382 63.09 64.251 54.943 60.709 59.735 68.189 53.849 74.843"/>
      <polygon class="cls-53" points="53.351 104.57 47.294 108.006 42.334 103.118 43.73 109.94 37.549 113.148 44.469 113.928 45.609 120.798 48.489 114.458 55.375 115.496 50.236 110.797 53.351 104.57"/>
      <polygon class="cls-53" points="63.722 176.61 70.07 172.913 75.361 178.01 73.806 170.83 80.288 167.372 72.979 166.632 71.694 159.399 68.732 166.122 61.456 165.109 66.934 170.004 63.722 176.61"/>
      <polygon class="cls-55" points="112.81 28.885 119.03 25.513 123.973 30.575 122.688 23.618 129.029 20.481 122.016 19.553 120.992 12.553 117.942 18.936 110.968 17.747 116.097 22.62 112.81 28.885"/>
      <polygon class="cls-55" points="30.653 84.875 26.746 82.392 28.066 77.955 24.497 80.903 20.686 78.276 22.387 82.582 18.71 85.395 23.331 85.107 24.871 89.473 26.025 84.99 30.653 84.875"/>
      <polygon class="cls-55" points="27.49 144.63 39.453 147.662 39.805 159.997 46.385 149.557 58.226 153.035 50.331 143.55 57.297 133.363 45.836 137.942 38.301 128.169 39.114 140.483 27.49 144.63"/>
      <polygon class="cls-55" points="126.302 103.56 129.384 102.897 130.864 105.68 131.186 102.544 134.29 101.997 131.407 100.722 131.846 97.6 129.742 99.948 126.909 98.566 128.492 101.292 126.302 103.56"/>
      <polygon class="cls-54" points="167.483 136.179 163.224 135.061 163.136 130.659 160.757 134.364 156.543 133.087 159.331 136.495 156.815 140.108 160.918 138.509 163.577 142.019 163.324 137.623 167.483 136.179"/>
      <polygon class="cls-54" points="158.531 111.403 163.231 109.499 166.347 113.5 165.988 108.442 170.756 106.715 165.835 105.493 165.665 100.425 162.982 104.728 158.11 103.322 161.373 107.204 158.531 111.403"/>
      <polygon class="cls-54" points="193.946 100.454 199.027 96.632 204.091 100.476 202.027 94.463 207.247 90.834 200.89 90.939 199.053 84.852 197.188 90.931 190.832 90.798 196.036 94.45 193.946 100.454"/>
      <polygon class="cls-54" points="10.1 127.031 16.028 123.92 20.641 128.773 19.514 122.173 25.555 119.286 18.93 118.318 18.051 111.681 15.083 117.682 8.5 116.468 13.29 121.145 10.1 127.031"/>
      <polygon class="cls-54" points="51.175 46.05 45.187 43.122 46.368 36.562 41.733 41.352 35.859 38.201 38.982 44.09 34.17 48.703 40.736 47.552 43.636 53.554 44.571 46.954 51.175 46.05"/>
      <polygon class="cls-54" points="83.356 19.123 88.741 17.865 91.422 22.701 91.89 17.191 97.318 16.136 92.222 13.988 92.896 8.5 89.279 12.682 84.267 10.346 87.127 15.078 83.356 19.123"/>
    </g>
    <g class="cls-56">
      <polygon class="cls-57" points="232.019 180.399 226.877 184.902 237.828 188.987 232.019 180.399"/>
      <polygon class="cls-57" points="216.327 157.198 201.819 175.553 211.985 179.346 221.059 182.733 227.313 173.446 221.692 165.127 216.327 157.198"/>
      <polygon class="cls-57" points="170.362 163.816 183.987 168.9 192.196 171.963 210.762 148.973 202.595 136.892 198.088 130.228 170.362 163.816"/>
      <polygon class="cls-57" points="183.987 168.9 192.196 171.963 210.762 148.973 202.595 136.892 183.987 168.9"/>
      <polygon class="cls-57" points="201.819 175.553 211.985 179.346 221.692 165.127 216.327 157.198 201.819 175.553"/>
      <path class="cls-57" d="M190.4062,130.0857S176.0469,111.37,170.8947,88.829" transform="translate(-0.0002 -0.0001)"/>
      <path class="cls-58" d="M177.1762,133.1046s-46.1334-36.1938-57.9415-77.5494" transform="translate(-0.0002 -0.0001)"/>
      <path class="cls-57" d="M144.3131,126.12S82.9831,78.5975,42.9113,86.4211" transform="translate(-0.0002 -0.0001)"/>
      <path class="cls-59" d="M165.3308,148.7411s-27.8742-18.1248-64.21-20.821" transform="translate(-0.0002 -0.0001)"/>
      <path class="cls-57" d="M164.1577,157.3033s-22.0025-10.4357-52.4013-3.2733" transform="translate(-0.0002 -0.0001)"/>
      <path class="cls-60" d="M159.2932,98.4726S145.4769,81.965,146.5344,51.0281" transform="translate(-0.0002 -0.0001)"/>
      <path class="cls-60" d="M112.664,142.8011s-22.7749-.8788-39.4972,6.6675" transform="translate(-0.0002 -0.0001)"/>
      <path class="cls-59" d="M119.7479,93.8336s-30.29-20.9653-48.0422-51.2581" transform="translate(-0.0002 -0.0001)"/>
      <polygon class="cls-57" points="165.591 65.299 172.209 63.777 175.482 69.726 176.078 62.962 182.748 61.688 176.499 59.03 177.348 52.293 172.89 57.415 166.745 54.525 170.238 60.348 165.591 65.299"/>
      <polygon class="cls-57" points="109.593 51.01 104.377 46.13 107.646 39.778 101.392 43.231 96.362 38.16 97.714 45.174 91.335 48.392 98.424 49.273 99.513 56.333 102.542 49.864 109.593 51.01"/>
      <polygon class="cls-57" points="81.637 119.953 78.384 118.669 78.731 115.189 76.504 117.885 73.301 116.48 75.178 119.431 72.852 122.043 76.238 121.17 78.003 124.189 78.22 120.699 81.637 119.953"/>
      <polygon class="cls-57" points="90.232 175.657 96.199 173.878 99.541 179.131 99.692 172.906 105.722 171.351 99.848 169.283 100.232 163.069 96.451 168.016 90.659 165.73 94.195 170.855 90.232 175.657"/>
      <polygon class="cls-58" points="141.495 54.065 138.774 48.102 143.766 43.855 137.254 44.6 134.758 38.54 133.454 44.964 126.919 45.465 132.626 48.69 131.083 55.06 135.913 50.629 141.495 54.065"/>
      <polygon class="cls-58" points="53.849 74.843 62.443 72.597 66.952 80.251 67.472 71.383 76.145 69.46 67.872 66.225 68.723 57.382 63.09 64.251 54.943 60.709 59.735 68.189 53.849 74.843"/>
      <polygon class="cls-58" points="53.351 104.57 47.294 108.006 42.334 103.118 43.73 109.94 37.549 113.148 44.469 113.928 45.609 120.798 48.489 114.458 55.375 115.496 50.236 110.797 53.351 104.57"/>
      <polygon class="cls-58" points="63.722 176.61 70.07 172.913 75.361 178.01 73.806 170.83 80.288 167.372 72.979 166.632 71.694 159.399 68.732 166.122 61.456 165.109 66.934 170.004 63.722 176.61"/>
      <polygon class="cls-60" points="112.81 28.885 119.03 25.513 123.973 30.575 122.688 23.618 129.029 20.481 122.016 19.553 120.992 12.553 117.942 18.936 110.968 17.747 116.097 22.62 112.81 28.885"/>
      <polygon class="cls-60" points="30.653 84.875 26.746 82.392 28.066 77.955 24.497 80.903 20.686 78.276 22.387 82.582 18.71 85.395 23.331 85.107 24.871 89.473 26.025 84.99 30.653 84.875"/>
      <polygon class="cls-60" points="27.49 144.63 39.453 147.662 39.805 159.997 46.385 149.557 58.226 153.035 50.331 143.55 57.297 133.363 45.836 137.942 38.301 128.169 39.114 140.483 27.49 144.63"/>
      <polygon class="cls-60" points="126.302 103.56 129.384 102.897 130.864 105.68 131.186 102.544 134.29 101.997 131.407 100.722 131.846 97.6 129.742 99.948 126.909 98.566 128.492 101.292 126.302 103.56"/>
      <polygon class="cls-59" points="167.483 136.179 163.224 135.061 163.136 130.659 160.757 134.364 156.543 133.087 159.331 136.495 156.815 140.108 160.918 138.509 163.577 142.019 163.324 137.623 167.483 136.179"/>
      <polygon class="cls-59" points="158.531 111.403 163.231 109.499 166.347 113.5 165.988 108.442 170.756 106.715 165.835 105.493 165.665 100.425 162.982 104.728 158.11 103.322 161.373 107.204 158.531 111.403"/>
      <polygon class="cls-59" points="193.946 100.454 199.027 96.632 204.091 100.476 202.027 94.463 207.247 90.834 200.89 90.939 199.053 84.852 197.188 90.931 190.832 90.798 196.036 94.45 193.946 100.454"/>
      <polygon class="cls-59" points="10.1 127.031 16.028 123.92 20.641 128.773 19.514 122.173 25.555 119.286 18.93 118.318 18.051 111.681 15.083 117.682 8.5 116.468 13.29 121.145 10.1 127.031"/>
      <polygon class="cls-59" points="51.175 46.05 45.187 43.122 46.368 36.562 41.733 41.352 35.859 38.201 38.982 44.09 34.17 48.703 40.736 47.552 43.636 53.554 44.571 46.954 51.175 46.05"/>
      <polygon class="cls-59" points="83.356 19.123 88.741 17.865 91.422 22.701 91.89 17.191 97.318 16.136 92.222 13.988 92.896 8.5 89.279 12.682 84.267 10.346 87.127 15.078 83.356 19.123"/>
    </g>
    <g class="cls-61">
      <polygon class="cls-62" points="232.019 180.399 226.877 184.902 237.828 188.987 232.019 180.399"/>
      <polygon class="cls-62" points="216.327 157.198 201.819 175.553 211.985 179.346 221.059 182.733 227.313 173.446 221.692 165.127 216.327 157.198"/>
      <polygon class="cls-62" points="170.362 163.816 183.987 168.9 192.196 171.963 210.762 148.973 202.595 136.892 198.088 130.228 170.362 163.816"/>
      <polygon class="cls-62" points="183.987 168.9 192.196 171.963 210.762 148.973 202.595 136.892 183.987 168.9"/>
      <polygon class="cls-62" points="201.819 175.553 211.985 179.346 221.692 165.127 216.327 157.198 201.819 175.553"/>
      <path class="cls-62" d="M190.4062,130.0857S176.0469,111.37,170.8947,88.829" transform="translate(-0.0002 -0.0001)"/>
      <path class="cls-63" d="M177.1762,133.1046s-46.1334-36.1938-57.9415-77.5494" transform="translate(-0.0002 -0.0001)"/>
      <path class="cls-62" d="M144.3131,126.12S82.9831,78.5975,42.9113,86.4211" transform="translate(-0.0002 -0.0001)"/>
      <path class="cls-64" d="M165.3308,148.7411s-27.8742-18.1248-64.21-20.821" transform="translate(-0.0002 -0.0001)"/>
      <path class="cls-62" d="M164.1577,157.3033s-22.0025-10.4357-52.4013-3.2733" transform="translate(-0.0002 -0.0001)"/>
      <path class="cls-65" d="M159.2932,98.4726S145.4769,81.965,146.5344,51.0281" transform="translate(-0.0002 -0.0001)"/>
      <path class="cls-65" d="M112.664,142.8011s-22.7749-.8788-39.4972,6.6675" transform="translate(-0.0002 -0.0001)"/>
      <path class="cls-64" d="M119.7479,93.8336s-30.29-20.9653-48.0422-51.2581" transform="translate(-0.0002 -0.0001)"/>
      <polygon class="cls-62" points="165.591 65.299 172.209 63.777 175.482 69.726 176.078 62.962 182.748 61.688 176.499 59.03 177.348 52.293 172.89 57.415 166.745 54.525 170.238 60.348 165.591 65.299"/>
      <polygon class="cls-62" points="109.593 51.01 104.377 46.13 107.646 39.778 101.392 43.231 96.362 38.16 97.714 45.174 91.335 48.392 98.424 49.273 99.513 56.333 102.542 49.864 109.593 51.01"/>
      <polygon class="cls-62" points="81.637 119.953 78.384 118.669 78.731 115.189 76.504 117.885 73.301 116.48 75.178 119.431 72.852 122.043 76.238 121.17 78.003 124.189 78.22 120.699 81.637 119.953"/>
      <polygon class="cls-62" points="90.232 175.657 96.199 173.878 99.541 179.131 99.692 172.906 105.722 171.351 99.848 169.283 100.232 163.069 96.451 168.016 90.659 165.73 94.195 170.855 90.232 175.657"/>
      <polygon class="cls-63" points="141.495 54.065 138.774 48.102 143.766 43.855 137.254 44.6 134.758 38.54 133.454 44.964 126.919 45.465 132.626 48.69 131.083 55.06 135.913 50.629 141.495 54.065"/>
      <polygon class="cls-63" points="53.849 74.843 62.443 72.597 66.952 80.251 67.472 71.383 76.145 69.46 67.872 66.225 68.723 57.382 63.09 64.251 54.943 60.709 59.735 68.189 53.849 74.843"/>
      <polygon class="cls-63" points="53.351 104.57 47.294 108.006 42.334 103.118 43.73 109.94 37.549 113.148 44.469 113.928 45.609 120.798 48.489 114.458 55.375 115.496 50.236 110.797 53.351 104.57"/>
      <polygon class="cls-63" points="63.722 176.61 70.07 172.913 75.361 178.01 73.806 170.83 80.288 167.372 72.979 166.632 71.694 159.399 68.732 166.122 61.456 165.109 66.934 170.004 63.722 176.61"/>
      <polygon class="cls-65" points="112.81 28.885 119.03 25.513 123.973 30.575 122.688 23.618 129.029 20.481 122.016 19.553 120.992 12.553 117.942 18.936 110.968 17.747 116.097 22.62 112.81 28.885"/>
      <polygon class="cls-65" points="30.653 84.875 26.746 82.392 28.066 77.955 24.497 80.903 20.686 78.276 22.387 82.582 18.71 85.395 23.331 85.107 24.871 89.473 26.025 84.99 30.653 84.875"/>
      <polygon class="cls-65" points="27.49 144.63 39.453 147.662 39.805 159.997 46.385 149.557 58.226 153.035 50.331 143.55 57.297 133.363 45.836 137.942 38.301 128.169 39.114 140.483 27.49 144.63"/>
      <polygon class="cls-65" points="126.302 103.56 129.384 102.897 130.864 105.68 131.186 102.544 134.29 101.997 131.407 100.722 131.846 97.6 129.742 99.948 126.909 98.566 128.492 101.292 126.302 103.56"/>
      <polygon class="cls-64" points="167.483 136.179 163.224 135.061 163.136 130.659 160.757 134.364 156.543 133.087 159.331 136.495 156.815 140.108 160.918 138.509 163.577 142.019 163.324 137.623 167.483 136.179"/>
      <polygon class="cls-64" points="158.531 111.403 163.231 109.499 166.347 113.5 165.988 108.442 170.756 106.715 165.835 105.493 165.665 100.425 162.982 104.728 158.11 103.322 161.373 107.204 158.531 111.403"/>
      <polygon class="cls-64" points="193.946 100.454 199.027 96.632 204.091 100.476 202.027 94.463 207.247 90.834 200.89 90.939 199.053 84.852 197.188 90.931 190.832 90.798 196.036 94.45 193.946 100.454"/>
      <polygon class="cls-64" points="10.1 127.031 16.028 123.92 20.641 128.773 19.514 122.173 25.555 119.286 18.93 118.318 18.051 111.681 15.083 117.682 8.5 116.468 13.29 121.145 10.1 127.031"/>
      <polygon class="cls-64" points="51.175 46.05 45.187 43.122 46.368 36.562 41.733 41.352 35.859 38.201 38.982 44.09 34.17 48.703 40.736 47.552 43.636 53.554 44.571 46.954 51.175 46.05"/>
      <polygon class="cls-64" points="83.356 19.123 88.741 17.865 91.422 22.701 91.89 17.191 97.318 16.136 92.222 13.988 92.896 8.5 89.279 12.682 84.267 10.346 87.127 15.078 83.356 19.123"/>
    </g>
    <g class="cls-66">
      <polygon class="cls-67" points="232.019 180.399 226.877 184.902 237.828 188.987 232.019 180.399"/>
      <polygon class="cls-67" points="216.327 157.198 201.819 175.553 211.985 179.346 221.059 182.733 227.313 173.446 221.692 165.127 216.327 157.198"/>
      <polygon class="cls-67" points="170.362 163.816 183.987 168.9 192.196 171.963 210.762 148.973 202.595 136.892 198.088 130.228 170.362 163.816"/>
      <polygon class="cls-67" points="183.987 168.9 192.196 171.963 210.762 148.973 202.595 136.892 183.987 168.9"/>
      <polygon class="cls-67" points="201.819 175.553 211.985 179.346 221.692 165.127 216.327 157.198 201.819 175.553"/>
      <path class="cls-67" d="M190.4062,130.0857S176.0469,111.37,170.8947,88.829" transform="translate(-0.0002 -0.0001)"/>
      <path class="cls-68" d="M177.1762,133.1046s-46.1334-36.1938-57.9415-77.5494" transform="translate(-0.0002 -0.0001)"/>
      <path class="cls-67" d="M144.3131,126.12S82.9831,78.5975,42.9113,86.4211" transform="translate(-0.0002 -0.0001)"/>
      <path class="cls-69" d="M165.3308,148.7411s-27.8742-18.1248-64.21-20.821" transform="translate(-0.0002 -0.0001)"/>
      <path class="cls-67" d="M164.1577,157.3033s-22.0025-10.4357-52.4013-3.2733" transform="translate(-0.0002 -0.0001)"/>
      <path class="cls-70" d="M159.2932,98.4726S145.4769,81.965,146.5344,51.0281" transform="translate(-0.0002 -0.0001)"/>
      <path class="cls-70" d="M112.664,142.8011s-22.7749-.8788-39.4972,6.6675" transform="translate(-0.0002 -0.0001)"/>
      <path class="cls-69" d="M119.7479,93.8336s-30.29-20.9653-48.0422-51.2581" transform="translate(-0.0002 -0.0001)"/>
      <polygon class="cls-67" points="165.591 65.299 172.209 63.777 175.482 69.726 176.078 62.962 182.748 61.688 176.499 59.03 177.348 52.293 172.89 57.415 166.745 54.525 170.238 60.348 165.591 65.299"/>
      <polygon class="cls-67" points="109.593 51.01 104.377 46.13 107.646 39.778 101.392 43.231 96.362 38.16 97.714 45.174 91.335 48.392 98.424 49.273 99.513 56.333 102.542 49.864 109.593 51.01"/>
      <polygon class="cls-67" points="81.637 119.953 78.384 118.669 78.731 115.189 76.504 117.885 73.301 116.48 75.178 119.431 72.852 122.043 76.238 121.17 78.003 124.189 78.22 120.699 81.637 119.953"/>
      <polygon class="cls-67" points="90.232 175.657 96.199 173.878 99.541 179.131 99.692 172.906 105.722 171.351 99.848 169.283 100.232 163.069 96.451 168.016 90.659 165.73 94.195 170.855 90.232 175.657"/>
      <polygon class="cls-68" points="141.495 54.065 138.774 48.102 143.766 43.855 137.254 44.6 134.758 38.54 133.454 44.964 126.919 45.465 132.626 48.69 131.083 55.06 135.913 50.629 141.495 54.065"/>
      <polygon class="cls-68" points="53.849 74.843 62.443 72.597 66.952 80.251 67.472 71.383 76.145 69.46 67.872 66.225 68.723 57.382 63.09 64.251 54.943 60.709 59.735 68.189 53.849 74.843"/>
      <polygon class="cls-68" points="53.351 104.57 47.294 108.006 42.334 103.118 43.73 109.94 37.549 113.148 44.469 113.928 45.609 120.798 48.489 114.458 55.375 115.496 50.236 110.797 53.351 104.57"/>
      <polygon class="cls-68" points="63.722 176.61 70.07 172.913 75.361 178.01 73.806 170.83 80.288 167.372 72.979 166.632 71.694 159.399 68.732 166.122 61.456 165.109 66.934 170.004 63.722 176.61"/>
      <polygon class="cls-70" points="112.81 28.885 119.03 25.513 123.973 30.575 122.688 23.618 129.029 20.481 122.016 19.553 120.992 12.553 117.942 18.936 110.968 17.747 116.097 22.62 112.81 28.885"/>
      <polygon class="cls-70" points="30.653 84.875 26.746 82.392 28.066 77.955 24.497 80.903 20.686 78.276 22.387 82.582 18.71 85.395 23.331 85.107 24.871 89.473 26.025 84.99 30.653 84.875"/>
      <polygon class="cls-70" points="27.49 144.63 39.453 147.662 39.805 159.997 46.385 149.557 58.226 153.035 50.331 143.55 57.297 133.363 45.836 137.942 38.301 128.169 39.114 140.483 27.49 144.63"/>
      <polygon class="cls-70" points="126.302 103.56 129.384 102.897 130.864 105.68 131.186 102.544 134.29 101.997 131.407 100.722 131.846 97.6 129.742 99.948 126.909 98.566 128.492 101.292 126.302 103.56"/>
      <polygon class="cls-69" points="167.483 136.179 163.224 135.061 163.136 130.659 160.757 134.364 156.543 133.087 159.331 136.495 156.815 140.108 160.918 138.509 163.577 142.019 163.324 137.623 167.483 136.179"/>
      <polygon class="cls-69" points="158.531 111.403 163.231 109.499 166.347 113.5 165.988 108.442 170.756 106.715 165.835 105.493 165.665 100.425 162.982 104.728 158.11 103.322 161.373 107.204 158.531 111.403"/>
      <polygon class="cls-69" points="193.946 100.454 199.027 96.632 204.091 100.476 202.027 94.463 207.247 90.834 200.89 90.939 199.053 84.852 197.188 90.931 190.832 90.798 196.036 94.45 193.946 100.454"/>
      <polygon class="cls-69" points="10.1 127.031 16.028 123.92 20.641 128.773 19.514 122.173 25.555 119.286 18.93 118.318 18.051 111.681 15.083 117.682 8.5 116.468 13.29 121.145 10.1 127.031"/>
      <polygon class="cls-69" points="51.175 46.05 45.187 43.122 46.368 36.562 41.733 41.352 35.859 38.201 38.982 44.09 34.17 48.703 40.736 47.552 43.636 53.554 44.571 46.954 51.175 46.05"/>
      <polygon class="cls-69" points="83.356 19.123 88.741 17.865 91.422 22.701 91.89 17.191 97.318 16.136 92.222 13.988 92.896 8.5 89.279 12.682 84.267 10.346 87.127 15.078 83.356 19.123"/>
    </g>
    <g class="cls-71">
      <polygon class="cls-72" points="232.019 180.399 226.877 184.902 237.828 188.987 232.019 180.399"/>
      <polygon class="cls-72" points="216.327 157.198 201.819 175.553 211.985 179.346 221.059 182.733 227.313 173.446 221.692 165.127 216.327 157.198"/>
      <polygon class="cls-72" points="170.362 163.816 183.987 168.9 192.196 171.963 210.762 148.973 202.595 136.892 198.088 130.228 170.362 163.816"/>
      <polygon class="cls-72" points="183.987 168.9 192.196 171.963 210.762 148.973 202.595 136.892 183.987 168.9"/>
      <polygon class="cls-72" points="201.819 175.553 211.985 179.346 221.692 165.127 216.327 157.198 201.819 175.553"/>
      <path class="cls-72" d="M190.4062,130.0857S176.0469,111.37,170.8947,88.829" transform="translate(-0.0002 -0.0001)"/>
      <path class="cls-73" d="M177.1762,133.1046s-46.1334-36.1938-57.9415-77.5494" transform="translate(-0.0002 -0.0001)"/>
      <path class="cls-72" d="M144.3131,126.12S82.9831,78.5975,42.9113,86.4211" transform="translate(-0.0002 -0.0001)"/>
      <path class="cls-74" d="M165.3308,148.7411s-27.8742-18.1248-64.21-20.821" transform="translate(-0.0002 -0.0001)"/>
      <path class="cls-72" d="M164.1577,157.3033s-22.0025-10.4357-52.4013-3.2733" transform="translate(-0.0002 -0.0001)"/>
      <path class="cls-75" d="M159.2932,98.4726S145.4769,81.965,146.5344,51.0281" transform="translate(-0.0002 -0.0001)"/>
      <path class="cls-75" d="M112.664,142.8011s-22.7749-.8788-39.4972,6.6675" transform="translate(-0.0002 -0.0001)"/>
      <path class="cls-74" d="M119.7479,93.8336s-30.29-20.9653-48.0422-51.2581" transform="translate(-0.0002 -0.0001)"/>
      <polygon class="cls-72" points="165.591 65.299 172.209 63.777 175.482 69.726 176.078 62.962 182.748 61.688 176.499 59.03 177.348 52.293 172.89 57.415 166.745 54.525 170.238 60.348 165.591 65.299"/>
      <polygon class="cls-72" points="109.593 51.01 104.377 46.13 107.646 39.778 101.392 43.231 96.362 38.16 97.714 45.174 91.335 48.392 98.424 49.273 99.513 56.333 102.542 49.864 109.593 51.01"/>
      <polygon class="cls-72" points="81.637 119.953 78.384 118.669 78.731 115.189 76.504 117.885 73.301 116.48 75.178 119.431 72.852 122.043 76.238 121.17 78.003 124.189 78.22 120.699 81.637 119.953"/>
      <polygon class="cls-72" points="90.232 175.657 96.199 173.878 99.541 179.131 99.692 172.906 105.722 171.351 99.848 169.283 100.232 163.069 96.451 168.016 90.659 165.73 94.195 170.855 90.232 175.657"/>
      <polygon class="cls-73" points="141.495 54.065 138.774 48.102 143.766 43.855 137.254 44.6 134.758 38.54 133.454 44.964 126.919 45.465 132.626 48.69 131.083 55.06 135.913 50.629 141.495 54.065"/>
      <polygon class="cls-73" points="53.849 74.843 62.443 72.597 66.952 80.251 67.472 71.383 76.145 69.46 67.872 66.225 68.723 57.382 63.09 64.251 54.943 60.709 59.735 68.189 53.849 74.843"/>
      <polygon class="cls-73" points="53.351 104.57 47.294 108.006 42.334 103.118 43.73 109.94 37.549 113.148 44.469 113.928 45.609 120.798 48.489 114.458 55.375 115.496 50.236 110.797 53.351 104.57"/>
      <polygon class="cls-73" points="63.722 176.61 70.07 172.913 75.361 178.01 73.806 170.83 80.288 167.372 72.979 166.632 71.694 159.399 68.732 166.122 61.456 165.109 66.934 170.004 63.722 176.61"/>
      <polygon class="cls-75" points="112.81 28.885 119.03 25.513 123.973 30.575 122.688 23.618 129.029 20.481 122.016 19.553 120.992 12.553 117.942 18.936 110.968 17.747 116.097 22.62 112.81 28.885"/>
      <polygon class="cls-75" points="30.653 84.875 26.746 82.392 28.066 77.955 24.497 80.903 20.686 78.276 22.387 82.582 18.71 85.395 23.331 85.107 24.871 89.473 26.025 84.99 30.653 84.875"/>
      <polygon class="cls-75" points="27.49 144.63 39.453 147.662 39.805 159.997 46.385 149.557 58.226 153.035 50.331 143.55 57.297 133.363 45.836 137.942 38.301 128.169 39.114 140.483 27.49 144.63"/>
      <polygon class="cls-75" points="126.302 103.56 129.384 102.897 130.864 105.68 131.186 102.544 134.29 101.997 131.407 100.722 131.846 97.6 129.742 99.948 126.909 98.566 128.492 101.292 126.302 103.56"/>
      <polygon class="cls-74" points="167.483 136.179 163.224 135.061 163.136 130.659 160.757 134.364 156.543 133.087 159.331 136.495 156.815 140.108 160.918 138.509 163.577 142.019 163.324 137.623 167.483 136.179"/>
      <polygon class="cls-74" points="158.531 111.403 163.231 109.499 166.347 113.5 165.988 108.442 170.756 106.715 165.835 105.493 165.665 100.425 162.982 104.728 158.11 103.322 161.373 107.204 158.531 111.403"/>
      <polygon class="cls-74" points="193.946 100.454 199.027 96.632 204.091 100.476 202.027 94.463 207.247 90.834 200.89 90.939 199.053 84.852 197.188 90.931 190.832 90.798 196.036 94.45 193.946 100.454"/>
      <polygon class="cls-74" points="10.1 127.031 16.028 123.92 20.641 128.773 19.514 122.173 25.555 119.286 18.93 118.318 18.051 111.681 15.083 117.682 8.5 116.468 13.29 121.145 10.1 127.031"/>
      <polygon class="cls-74" points="51.175 46.05 45.187 43.122 46.368 36.562 41.733 41.352 35.859 38.201 38.982 44.09 34.17 48.703 40.736 47.552 43.636 53.554 44.571 46.954 51.175 46.05"/>
      <polygon class="cls-74" points="83.356 19.123 88.741 17.865 91.422 22.701 91.89 17.191 97.318 16.136 92.222 13.988 92.896 8.5 89.279 12.682 84.267 10.346 87.127 15.078 83.356 19.123"/>
    </g>
    <g>
      <polygon class="cls-76" points="232.019 180.399 226.877 184.902 237.828 188.987 232.019 180.399"/>
      <polygon class="cls-76" points="216.327 157.198 201.819 175.553 211.985 179.346 221.059 182.733 227.313 173.446 221.692 165.127 216.327 157.198"/>
      <polygon class="cls-76" points="170.362 163.816 183.987 168.9 192.196 171.963 210.762 148.973 202.595 136.892 198.088 130.228 170.362 163.816"/>
      <polygon class="cls-76" points="183.987 168.9 192.196 171.963 210.762 148.973 202.595 136.892 183.987 168.9"/>
      <polygon class="cls-76" points="201.819 175.553 211.985 179.346 221.692 165.127 216.327 157.198 201.819 175.553"/>
      <path class="cls-76" d="M190.4062,130.0857S176.0469,111.37,170.8947,88.829" transform="translate(-0.0002 -0.0001)"/>
      <path class="cls-77" d="M177.1762,133.1046s-46.1334-36.1938-57.9415-77.5494" transform="translate(-0.0002 -0.0001)"/>
      <path class="cls-76" d="M144.3131,126.12S82.9831,78.5975,42.9113,86.4211" transform="translate(-0.0002 -0.0001)"/>
      <path class="cls-78" d="M165.3308,148.7411s-27.8742-18.1248-64.21-20.821" transform="translate(-0.0002 -0.0001)"/>
      <path class="cls-76" d="M164.1577,157.3033s-22.0025-10.4357-52.4013-3.2733" transform="translate(-0.0002 -0.0001)"/>
      <path class="cls-79" d="M159.2932,98.4726S145.4769,81.965,146.5344,51.0281" transform="translate(-0.0002 -0.0001)"/>
      <path class="cls-79" d="M112.664,142.8011s-22.7749-.8788-39.4972,6.6675" transform="translate(-0.0002 -0.0001)"/>
      <path class="cls-78" d="M119.7479,93.8336s-30.29-20.9653-48.0422-51.2581" transform="translate(-0.0002 -0.0001)"/>
      <polygon class="cls-76" points="165.591 65.299 172.209 63.777 175.482 69.726 176.078 62.962 182.748 61.688 176.499 59.03 177.348 52.293 172.89 57.415 166.745 54.525 170.238 60.348 165.591 65.299"/>
      <polygon class="cls-76" points="109.593 51.01 104.377 46.13 107.646 39.778 101.392 43.231 96.362 38.16 97.714 45.174 91.335 48.392 98.424 49.273 99.513 56.333 102.542 49.864 109.593 51.01"/>
      <polygon class="cls-76" points="81.637 119.953 78.384 118.669 78.731 115.189 76.504 117.885 73.301 116.48 75.178 119.431 72.852 122.043 76.238 121.17 78.003 124.189 78.22 120.699 81.637 119.953"/>
      <polygon class="cls-76" points="90.232 175.657 96.199 173.878 99.541 179.131 99.692 172.906 105.722 171.351 99.848 169.283 100.232 163.069 96.451 168.016 90.659 165.73 94.195 170.855 90.232 175.657"/>
      <polygon class="cls-77" points="141.495 54.065 138.774 48.102 143.766 43.855 137.254 44.6 134.758 38.54 133.454 44.964 126.919 45.465 132.626 48.69 131.083 55.06 135.913 50.629 141.495 54.065"/>
      <polygon class="cls-77" points="53.849 74.843 62.443 72.597 66.952 80.251 67.472 71.383 76.145 69.46 67.872 66.225 68.723 57.382 63.09 64.251 54.943 60.709 59.735 68.189 53.849 74.843"/>
      <polygon class="cls-77" points="53.351 104.57 47.294 108.006 42.334 103.118 43.73 109.94 37.549 113.148 44.469 113.928 45.609 120.798 48.489 114.458 55.375 115.496 50.236 110.797 53.351 104.57"/>
      <polygon class="cls-77" points="63.722 176.61 70.07 172.913 75.361 178.01 73.806 170.83 80.288 167.372 72.979 166.632 71.694 159.399 68.732 166.122 61.456 165.109 66.934 170.004 63.722 176.61"/>
      <polygon class="cls-79" points="112.81 28.885 119.03 25.513 123.973 30.575 122.688 23.618 129.029 20.481 122.016 19.553 120.992 12.553 117.942 18.936 110.968 17.747 116.097 22.62 112.81 28.885"/>
      <polygon class="cls-79" points="30.653 84.875 26.746 82.392 28.066 77.955 24.497 80.903 20.686 78.276 22.387 82.582 18.71 85.395 23.331 85.107 24.871 89.473 26.025 84.99 30.653 84.875"/>
      <polygon class="cls-79" points="27.49 144.63 39.453 147.662 39.805 159.997 46.385 149.557 58.226 153.035 50.331 143.55 57.297 133.363 45.836 137.942 38.301 128.169 39.114 140.483 27.49 144.63"/>
      <polygon class="cls-79" points="126.302 103.56 129.384 102.897 130.864 105.68 131.186 102.544 134.29 101.997 131.407 100.722 131.846 97.6 129.742 99.948 126.909 98.566 128.492 101.292 126.302 103.56"/>
      <polygon class="cls-78" points="167.483 136.179 163.224 135.061 163.136 130.659 160.757 134.364 156.543 133.087 159.331 136.495 156.815 140.108 160.918 138.509 163.577 142.019 163.324 137.623 167.483 136.179"/>
      <polygon class="cls-78" points="158.531 111.403 163.231 109.499 166.347 113.5 165.988 108.442 170.756 106.715 165.835 105.493 165.665 100.425 162.982 104.728 158.11 103.322 161.373 107.204 158.531 111.403"/>
      <polygon class="cls-78" points="193.946 100.454 199.027 96.632 204.091 100.476 202.027 94.463 207.247 90.834 200.89 90.939 199.053 84.852 197.188 90.931 190.832 90.798 196.036 94.45 193.946 100.454"/>
      <polygon class="cls-78" points="10.1 127.031 16.028 123.92 20.641 128.773 19.514 122.173 25.555 119.286 18.93 118.318 18.051 111.681 15.083 117.682 8.5 116.468 13.29 121.145 10.1 127.031"/>
      <polygon class="cls-78" points="51.175 46.05 45.187 43.122 46.368 36.562 41.733 41.352 35.859 38.201 38.982 44.09 34.17 48.703 40.736 47.552 43.636 53.554 44.571 46.954 51.175 46.05"/>
      <polygon class="cls-78" points="83.356 19.123 88.741 17.865 91.422 22.701 91.89 17.191 97.318 16.136 92.222 13.988 92.896 8.5 89.279 12.682 84.267 10.346 87.127 15.078 83.356 19.123"/>
    </g>
    <g>
      <polygon class="cls-80" points="232.019 180.399 226.877 184.902 237.828 188.987 232.019 180.399"/>
      <polygon class="cls-80" points="216.327 157.198 201.819 175.553 211.985 179.346 221.059 182.733 227.313 173.446 221.692 165.127 216.327 157.198"/>
      <polygon class="cls-80" points="170.362 163.816 183.987 168.9 192.196 171.963 210.762 148.973 202.595 136.892 198.088 130.228 170.362 163.816"/>
      <polygon class="cls-80" points="183.987 168.9 192.196 171.963 210.762 148.973 202.595 136.892 183.987 168.9"/>
      <polygon class="cls-80" points="201.819 175.553 211.985 179.346 221.692 165.127 216.327 157.198 201.819 175.553"/>
      <path class="cls-80" d="M190.4062,130.0857S176.0469,111.37,170.8947,88.829" transform="translate(-0.0002 -0.0001)"/>
      <path class="cls-81" d="M177.1762,133.1046s-46.1334-36.1938-57.9415-77.5494" transform="translate(-0.0002 -0.0001)"/>
      <path class="cls-80" d="M144.3131,126.12S82.9831,78.5975,42.9113,86.4211" transform="translate(-0.0002 -0.0001)"/>
      <path class="cls-82" d="M165.3308,148.7411s-27.8742-18.1248-64.21-20.821" transform="translate(-0.0002 -0.0001)"/>
      <path class="cls-80" d="M164.1577,157.3033s-22.0025-10.4357-52.4013-3.2733" transform="translate(-0.0002 -0.0001)"/>
      <path class="cls-83" d="M159.2932,98.4726S145.4769,81.965,146.5344,51.0281" transform="translate(-0.0002 -0.0001)"/>
      <path class="cls-83" d="M112.664,142.8011s-22.7749-.8788-39.4972,6.6675" transform="translate(-0.0002 -0.0001)"/>
      <path class="cls-82" d="M119.7479,93.8336s-30.29-20.9653-48.0422-51.2581" transform="translate(-0.0002 -0.0001)"/>
      <polygon class="cls-80" points="165.591 65.299 172.209 63.777 175.482 69.726 176.078 62.962 182.748 61.688 176.499 59.03 177.348 52.293 172.89 57.415 166.745 54.525 170.238 60.348 165.591 65.299"/>
      <polygon class="cls-80" points="109.593 51.01 104.377 46.13 107.646 39.778 101.392 43.231 96.362 38.16 97.714 45.174 91.335 48.392 98.424 49.273 99.513 56.333 102.542 49.864 109.593 51.01"/>
      <polygon class="cls-80" points="81.637 119.953 78.384 118.669 78.731 115.189 76.504 117.885 73.301 116.48 75.178 119.431 72.852 122.043 76.238 121.17 78.003 124.189 78.22 120.699 81.637 119.953"/>
      <polygon class="cls-80" points="90.232 175.657 96.199 173.878 99.541 179.131 99.692 172.906 105.722 171.351 99.848 169.283 100.232 163.069 96.451 168.016 90.659 165.73 94.195 170.855 90.232 175.657"/>
      <polygon class="cls-81" points="141.495 54.065 138.774 48.102 143.766 43.855 137.254 44.6 134.758 38.54 133.454 44.964 126.919 45.465 132.626 48.69 131.083 55.06 135.913 50.629 141.495 54.065"/>
      <polygon class="cls-81" points="53.849 74.843 62.443 72.597 66.952 80.251 67.472 71.383 76.145 69.46 67.872 66.225 68.723 57.382 63.09 64.251 54.943 60.709 59.735 68.189 53.849 74.843"/>
      <polygon class="cls-81" points="53.351 104.57 47.294 108.006 42.334 103.118 43.73 109.94 37.549 113.148 44.469 113.928 45.609 120.798 48.489 114.458 55.375 115.496 50.236 110.797 53.351 104.57"/>
      <polygon class="cls-81" points="63.722 176.61 70.07 172.913 75.361 178.01 73.806 170.83 80.288 167.372 72.979 166.632 71.694 159.399 68.732 166.122 61.456 165.109 66.934 170.004 63.722 176.61"/>
      <polygon class="cls-83" points="112.81 28.885 119.03 25.513 123.973 30.575 122.688 23.618 129.029 20.481 122.016 19.553 120.992 12.553 117.942 18.936 110.968 17.747 116.097 22.62 112.81 28.885"/>
      <polygon class="cls-83" points="30.653 84.875 26.746 82.392 28.066 77.955 24.497 80.903 20.686 78.276 22.387 82.582 18.71 85.395 23.331 85.107 24.871 89.473 26.025 84.99 30.653 84.875"/>
      <polygon class="cls-83" points="27.49 144.63 39.453 147.662 39.805 159.997 46.385 149.557 58.226 153.035 50.331 143.55 57.297 133.363 45.836 137.942 38.301 128.169 39.114 140.483 27.49 144.63"/>
      <polygon class="cls-83" points="126.302 103.56 129.384 102.897 130.864 105.68 131.186 102.544 134.29 101.997 131.407 100.722 131.846 97.6 129.742 99.948 126.909 98.566 128.492 101.292 126.302 103.56"/>
      <polygon class="cls-82" points="167.483 136.179 163.224 135.061 163.136 130.659 160.757 134.364 156.543 133.087 159.331 136.495 156.815 140.108 160.918 138.509 163.577 142.019 163.324 137.623 167.483 136.179"/>
      <polygon class="cls-82" points="158.531 111.403 163.231 109.499 166.347 113.5 165.988 108.442 170.756 106.715 165.835 105.493 165.665 100.425 162.982 104.728 158.11 103.322 161.373 107.204 158.531 111.403"/>
      <polygon class="cls-82" points="193.946 100.454 199.027 96.632 204.091 100.476 202.027 94.463 207.247 90.834 200.89 90.939 199.053 84.852 197.188 90.931 190.832 90.798 196.036 94.45 193.946 100.454"/>
      <polygon class="cls-82" points="10.1 127.031 16.028 123.92 20.641 128.773 19.514 122.173 25.555 119.286 18.93 118.318 18.051 111.681 15.083 117.682 8.5 116.468 13.29 121.145 10.1 127.031"/>
      <polygon class="cls-82" points="51.175 46.05 45.187 43.122 46.368 36.562 41.733 41.352 35.859 38.201 38.982 44.09 34.17 48.703 40.736 47.552 43.636 53.554 44.571 46.954 51.175 46.05"/>
      <polygon class="cls-82" points="83.356 19.123 88.741 17.865 91.422 22.701 91.89 17.191 97.318 16.136 92.222 13.988 92.896 8.5 89.279 12.682 84.267 10.346 87.127 15.078 83.356 19.123"/>
    </g>
  </g>
</svg>
