<svg id="Layer_1" data-name="Layer 1" xmlns="http://www.w3.org/2000/svg" viewBox="0 0 246.3284 197.4872">
  <defs>
    <style>
      .cls-1 {
        opacity: 0.0008;
      }

      .cls-10, .cls-12, .cls-13, .cls-14, .cls-15, .cls-17, .cls-18, .cls-19, .cls-2, .cls-20, .cls-22, .cls-23, .cls-24, .cls-25, .cls-27, .cls-28, .cls-29, .cls-3, .cls-30, .cls-32, .cls-33, .cls-34, .cls-35, .cls-37, .cls-38, .cls-39, .cls-4, .cls-40, .cls-42, .cls-43, .cls-44, .cls-45, .cls-47, .cls-48, .cls-49, .cls-5, .cls-50, .cls-52, .cls-53, .cls-54, .cls-55, .cls-57, .cls-58, .cls-59, .cls-60, .cls-62, .cls-63, .cls-64, .cls-65, .cls-67, .cls-68, .cls-69, .cls-7, .cls-70, .cls-72, .cls-73, .cls-74, .cls-75, .cls-76, .cls-77, .cls-78, .cls-79, .cls-8, .cls-80, .cls-81, .cls-82, .cls-83, .cls-9 {
        fill: none;
        stroke-linecap: round;
        stroke-linejoin: round;
      }

      .cls-12, .cls-17, .cls-2, .cls-22, .cls-27, .cls-32, .cls-37, .cls-42, .cls-47, .cls-52, .cls-57, .cls-62, .cls-67, .cls-7, .cls-72, .cls-76 {
        stroke: #ff2154;
      }

      .cls-2, .cls-3, .cls-4, .cls-5 {
        stroke-width: 17px;
      }

      .cls-13, .cls-18, .cls-23, .cls-28, .cls-3, .cls-33, .cls-38, .cls-43, .cls-48, .cls-53, .cls-58, .cls-63, .cls-68, .cls-73, .cls-77, .cls-8 {
        stroke: #ed8000;
      }

      .cls-14, .cls-19, .cls-24, .cls-29, .cls-34, .cls-39, .cls-4, .cls-44, .cls-49, .cls-54, .cls-59, .cls-64, .cls-69, .cls-74, .cls-78, .cls-9 {
        stroke: #87308f;
      }

      .cls-10, .cls-15, .cls-20, .cls-25, .cls-30, .cls-35, .cls-40, .cls-45, .cls-5, .cls-50, .cls-55, .cls-60, .cls-65, .cls-70, .cls-75, .cls-79 {
        stroke: #009a78;
      }

      .cls-6 {
        opacity: 0.0025;
      }

      .cls-10, .cls-7, .cls-8, .cls-9 {
        stroke-width: 16px;
      }

      .cls-11 {
        opacity: 0.005;
      }

      .cls-12, .cls-13, .cls-14, .cls-15 {
        stroke-width: 15px;
      }

      .cls-16 {
        opacity: 0.0084;
      }

      .cls-17, .cls-18, .cls-19, .cls-20 {
        stroke-width: 14px;
      }

      .cls-21 {
        opacity: 0.0128;
      }

      .cls-22, .cls-23, .cls-24, .cls-25 {
        stroke-width: 13px;
      }

      .cls-26 {
        opacity: 0.0181;
      }

      .cls-27, .cls-28, .cls-29, .cls-30 {
        stroke-width: 12px;
      }

      .cls-31 {
        opacity: 0.0246;
      }

      .cls-32, .cls-33, .cls-34, .cls-35 {
        stroke-width: 11px;
      }

      .cls-36 {
        opacity: 0.0324;
      }

      .cls-37, .cls-38, .cls-39, .cls-40 {
        stroke-width: 10px;
      }

      .cls-41 {
        opacity: 0.0416;
      }

      .cls-42, .cls-43, .cls-44, .cls-45 {
        stroke-width: 9px;
      }

      .cls-46 {
        opacity: 0.0526;
      }

      .cls-47, .cls-48, .cls-49, .cls-50 {
        stroke-width: 8px;
      }

      .cls-51 {
        opacity: 0.0658;
      }

      .cls-52, .cls-53, .cls-54, .cls-55 {
        stroke-width: 7px;
      }

      .cls-56 {
        opacity: 0.0822;
      }

      .cls-57, .cls-58, .cls-59, .cls-60 {
        stroke-width: 6px;
      }

      .cls-61 {
        opacity: 0.1033;
      }

      .cls-62, .cls-63, .cls-64, .cls-65 {
        stroke-width: 5px;
      }

      .cls-66 {
        opacity: 0.1339;
      }

      .cls-67, .cls-68, .cls-69, .cls-70 {
        stroke-width: 4px;
      }

      .cls-71 {
        opacity: 0.2361;
      }

      .cls-72, .cls-73, .cls-74, .cls-75 {
        stroke-width: 3px;
      }

      .cls-76, .cls-77, .cls-78, .cls-79 {
        stroke-width: 2px;
      }

      .cls-80 {
        stroke: #ffc1cf;
      }

      .cls-80, .cls-81, .cls-82, .cls-83 {
        stroke-width: 0.6667px;
      }

      .cls-81 {
        stroke: #fadbb8;
      }

      .cls-82 {
        stroke: #ddc5e0;
      }

      .cls-83 {
        stroke: #b8e3d9;
      }
    </style>
  </defs>
  <g>
    <g class="cls-1">
      <polygon class="cls-2" points="14.309 180.399 19.451 184.902 8.5 188.987 14.309 180.399"/>
      <polygon class="cls-2" points="30.001 157.198 44.509 175.553 34.343 179.346 25.269 182.733 19.015 173.446 24.636 165.127 30.001 157.198"/>
      <polygon class="cls-2" points="75.966 163.816 62.341 168.9 54.132 171.963 35.566 148.973 43.733 136.892 48.24 130.228 75.966 163.816"/>
      <polygon class="cls-2" points="62.341 168.9 54.132 171.963 35.566 148.973 43.733 136.892 62.341 168.9"/>
      <polygon class="cls-2" points="44.509 175.553 34.343 179.346 24.636 165.127 30.001 157.198 44.509 175.553"/>
      <path class="cls-2" d="M117.05,179.0146s14.3593-18.7159,19.5115-41.2567" transform="translate(-61.128 -48.929)"/>
      <path class="cls-3" d="M130.28,182.0335s46.1334-36.1938,57.9415-77.5494" transform="translate(-61.128 -48.929)"/>
      <path class="cls-2" d="M163.1431,175.0488s61.33-47.5224,101.4018-39.6988" transform="translate(-61.128 -48.929)"/>
      <path class="cls-4" d="M142.1254,197.67s27.8742-18.1248,64.21-20.821" transform="translate(-61.128 -48.929)"/>
      <path class="cls-2" d="M143.2985,206.2322s22.0025-10.4357,52.4013-3.2733" transform="translate(-61.128 -48.929)"/>
      <path class="cls-5" d="M148.163,147.4015s13.8163-16.5076,12.7588-47.4445" transform="translate(-61.128 -48.929)"/>
      <path class="cls-5" d="M194.7922,191.73s22.7749-.8788,39.4972,6.6675" transform="translate(-61.128 -48.929)"/>
      <path class="cls-4" d="M187.7083,142.7625s30.29-20.9653,48.0422-51.2581" transform="translate(-61.128 -48.929)"/>
      <polygon class="cls-2" points="80.737 65.299 74.119 63.777 70.846 69.726 70.25 62.962 63.58 61.688 69.829 59.03 68.98 52.293 73.438 57.415 79.583 54.525 76.09 60.348 80.737 65.299"/>
      <polygon class="cls-2" points="136.735 51.01 141.951 46.13 138.682 39.778 144.936 43.231 149.966 38.16 148.614 45.174 154.993 48.392 147.904 49.273 146.815 56.333 143.786 49.864 136.735 51.01"/>
      <polygon class="cls-2" points="164.691 119.953 167.944 118.669 167.597 115.189 169.824 117.885 173.027 116.48 171.15 119.431 173.476 122.043 170.09 121.17 168.325 124.189 168.108 120.699 164.691 119.953"/>
      <polygon class="cls-2" points="156.096 175.657 150.129 173.878 146.787 179.131 146.636 172.906 140.606 171.351 146.48 169.283 146.096 163.069 149.877 168.016 155.669 165.73 152.133 170.855 156.096 175.657"/>
      <polygon class="cls-3" points="104.833 54.065 107.554 48.102 102.562 43.855 109.074 44.6 111.57 38.54 112.874 44.964 119.409 45.465 113.702 48.69 115.245 55.06 110.415 50.629 104.833 54.065"/>
      <polygon class="cls-3" points="192.479 74.843 183.885 72.597 179.376 80.251 178.856 71.383 170.183 69.46 178.456 66.225 177.605 57.382 183.238 64.251 191.385 60.709 186.593 68.189 192.479 74.843"/>
      <polygon class="cls-3" points="192.977 104.57 199.034 108.006 203.994 103.118 202.598 109.94 208.779 113.148 201.859 113.928 200.719 120.798 197.839 114.458 190.953 115.496 196.092 110.797 192.977 104.57"/>
      <polygon class="cls-3" points="182.606 176.61 176.258 172.913 170.967 178.01 172.522 170.83 166.04 167.372 173.349 166.632 174.634 159.399 177.596 166.122 184.872 165.109 179.394 170.004 182.606 176.61"/>
      <polygon class="cls-5" points="133.518 28.885 127.298 25.513 122.355 30.575 123.64 23.618 117.299 20.481 124.312 19.553 125.336 12.553 128.386 18.936 135.36 17.747 130.231 22.62 133.518 28.885"/>
      <polygon class="cls-5" points="215.675 84.875 219.582 82.392 218.262 77.955 221.831 80.903 225.642 78.276 223.941 82.582 227.618 85.395 222.997 85.107 221.457 89.473 220.303 84.99 215.675 84.875"/>
      <polygon class="cls-5" points="218.838 144.63 206.875 147.662 206.523 159.997 199.943 149.557 188.102 153.035 195.997 143.55 189.031 133.363 200.492 137.942 208.027 128.169 207.214 140.483 218.838 144.63"/>
      <polygon class="cls-5" points="120.026 103.56 116.944 102.897 115.464 105.68 115.142 102.544 112.038 101.997 114.921 100.722 114.482 97.6 116.586 99.948 119.419 98.566 117.836 101.292 120.026 103.56"/>
      <polygon class="cls-4" points="78.845 136.179 83.104 135.061 83.192 130.659 85.571 134.364 89.785 133.087 86.997 136.495 89.513 140.108 85.41 138.509 82.751 142.019 83.004 137.623 78.845 136.179"/>
      <polygon class="cls-4" points="87.797 111.403 83.097 109.499 79.981 113.5 80.34 108.442 75.572 106.715 80.493 105.493 80.663 100.425 83.346 104.728 88.218 103.322 84.955 107.204 87.797 111.403"/>
      <polygon class="cls-4" points="52.382 100.454 47.301 96.632 42.237 100.476 44.301 94.463 39.081 90.834 45.438 90.939 47.275 84.852 49.14 90.931 55.496 90.798 50.292 94.45 52.382 100.454"/>
      <polygon class="cls-4" points="236.228 127.031 230.3 123.92 225.687 128.773 226.814 122.173 220.773 119.286 227.398 118.318 228.277 111.681 231.245 117.682 237.828 116.468 233.038 121.145 236.228 127.031"/>
      <polygon class="cls-4" points="195.153 46.05 201.141 43.122 199.96 36.562 204.595 41.352 210.469 38.201 207.346 44.09 212.158 48.703 205.592 47.552 202.692 53.554 201.757 46.954 195.153 46.05"/>
      <polygon class="cls-4" points="162.972 19.123 157.587 17.865 154.906 22.701 154.438 17.191 149.01 16.136 154.106 13.988 153.432 8.5 157.049 12.682 162.061 10.346 159.201 15.078 162.972 19.123"/>
    </g>
    <g class="cls-6">
      <polygon class="cls-7" points="14.309 180.399 19.451 184.902 8.5 188.987 14.309 180.399"/>
      <polygon class="cls-7" points="30.001 157.198 44.509 175.553 34.343 179.346 25.269 182.733 19.015 173.446 24.636 165.127 30.001 157.198"/>
      <polygon class="cls-7" points="75.966 163.816 62.341 168.9 54.132 171.963 35.566 148.973 43.733 136.892 48.24 130.228 75.966 163.816"/>
      <polygon class="cls-7" points="62.341 168.9 54.132 171.963 35.566 148.973 43.733 136.892 62.341 168.9"/>
      <polygon class="cls-7" points="44.509 175.553 34.343 179.346 24.636 165.127 30.001 157.198 44.509 175.553"/>
      <path class="cls-7" d="M117.05,179.0146s14.3593-18.7159,19.5115-41.2567" transform="translate(-61.128 -48.929)"/>
      <path class="cls-8" d="M130.28,182.0335s46.1334-36.1938,57.9415-77.5494" transform="translate(-61.128 -48.929)"/>
      <path class="cls-7" d="M163.1431,175.0488s61.33-47.5224,101.4018-39.6988" transform="translate(-61.128 -48.929)"/>
      <path class="cls-9" d="M142.1254,197.67s27.8742-18.1248,64.21-20.821" transform="translate(-61.128 -48.929)"/>
      <path class="cls-7" d="M143.2985,206.2322s22.0025-10.4357,52.4013-3.2733" transform="translate(-61.128 -48.929)"/>
      <path class="cls-10" d="M148.163,147.4015s13.8163-16.5076,12.7588-47.4445" transform="translate(-61.128 -48.929)"/>
      <path class="cls-10" d="M194.7922,191.73s22.7749-.8788,39.4972,6.6675" transform="translate(-61.128 -48.929)"/>
      <path class="cls-9" d="M187.7083,142.7625s30.29-20.9653,48.0422-51.2581" transform="translate(-61.128 -48.929)"/>
      <polygon class="cls-7" points="80.737 65.299 74.119 63.777 70.846 69.726 70.25 62.962 63.58 61.688 69.829 59.03 68.98 52.293 73.438 57.415 79.583 54.525 76.09 60.348 80.737 65.299"/>
      <polygon class="cls-7" points="136.735 51.01 141.951 46.13 138.682 39.778 144.936 43.231 149.966 38.16 148.614 45.174 154.993 48.392 147.904 49.273 146.815 56.333 143.786 49.864 136.735 51.01"/>
      <polygon class="cls-7" points="164.691 119.953 167.944 118.669 167.597 115.189 169.824 117.885 173.027 116.48 171.15 119.431 173.476 122.043 170.09 121.17 168.325 124.189 168.108 120.699 164.691 119.953"/>
      <polygon class="cls-7" points="156.096 175.657 150.129 173.878 146.787 179.131 146.636 172.906 140.606 171.351 146.48 169.283 146.096 163.069 149.877 168.016 155.669 165.73 152.133 170.855 156.096 175.657"/>
      <polygon class="cls-8" points="104.833 54.065 107.554 48.102 102.562 43.855 109.074 44.6 111.57 38.54 112.874 44.964 119.409 45.465 113.702 48.69 115.245 55.06 110.415 50.629 104.833 54.065"/>
      <polygon class="cls-8" points="192.479 74.843 183.885 72.597 179.376 80.251 178.856 71.383 170.183 69.46 178.456 66.225 177.605 57.382 183.238 64.251 191.385 60.709 186.593 68.189 192.479 74.843"/>
      <polygon class="cls-8" points="192.977 104.57 199.034 108.006 203.994 103.118 202.598 109.94 208.779 113.148 201.859 113.928 200.719 120.798 197.839 114.458 190.953 115.496 196.092 110.797 192.977 104.57"/>
      <polygon class="cls-8" points="182.606 176.61 176.258 172.913 170.967 178.01 172.522 170.83 166.04 167.372 173.349 166.632 174.634 159.399 177.596 166.122 184.872 165.109 179.394 170.004 182.606 176.61"/>
      <polygon class="cls-10" points="133.518 28.885 127.298 25.513 122.355 30.575 123.64 23.618 117.299 20.481 124.312 19.553 125.336 12.553 128.386 18.936 135.36 17.747 130.231 22.62 133.518 28.885"/>
      <polygon class="cls-10" points="215.675 84.875 219.582 82.392 218.262 77.955 221.831 80.903 225.642 78.276 223.941 82.582 227.618 85.395 222.997 85.107 221.457 89.473 220.303 84.99 215.675 84.875"/>
      <polygon class="cls-10" points="218.838 144.63 206.875 147.662 206.523 159.997 199.943 149.557 188.102 153.035 195.997 143.55 189.031 133.363 200.492 137.942 208.027 128.169 207.214 140.483 218.838 144.63"/>
      <polygon class="cls-10" points="120.026 103.56 116.944 102.897 115.464 105.68 115.142 102.544 112.038 101.997 114.921 100.722 114.482 97.6 116.586 99.948 119.419 98.566 117.836 101.292 120.026 103.56"/>
      <polygon class="cls-9" points="78.845 136.179 83.104 135.061 83.192 130.659 85.571 134.364 89.785 133.087 86.997 136.495 89.513 140.108 85.41 138.509 82.751 142.019 83.004 137.623 78.845 136.179"/>
      <polygon class="cls-9" points="87.797 111.403 83.097 109.499 79.981 113.5 80.34 108.442 75.572 106.715 80.493 105.493 80.663 100.425 83.346 104.728 88.218 103.322 84.955 107.204 87.797 111.403"/>
      <polygon class="cls-9" points="52.382 100.454 47.301 96.632 42.237 100.476 44.301 94.463 39.081 90.834 45.438 90.939 47.275 84.852 49.14 90.931 55.496 90.798 50.292 94.45 52.382 100.454"/>
      <polygon class="cls-9" points="236.228 127.031 230.3 123.92 225.687 128.773 226.814 122.173 220.773 119.286 227.398 118.318 228.277 111.681 231.245 117.682 237.828 116.468 233.038 121.145 236.228 127.031"/>
      <polygon class="cls-9" points="195.153 46.05 201.141 43.122 199.96 36.562 204.595 41.352 210.469 38.201 207.346 44.09 212.158 48.703 205.592 47.552 202.692 53.554 201.757 46.954 195.153 46.05"/>
      <polygon class="cls-9" points="162.972 19.123 157.587 17.865 154.906 22.701 154.438 17.191 149.01 16.136 154.106 13.988 153.432 8.5 157.049 12.682 162.061 10.346 159.201 15.078 162.972 19.123"/>
    </g>
    <g class="cls-11">
      <polygon class="cls-12" points="14.309 180.399 19.451 184.902 8.5 188.987 14.309 180.399"/>
      <polygon class="cls-12" points="30.001 157.198 44.509 175.553 34.343 179.346 25.269 182.733 19.015 173.446 24.636 165.127 30.001 157.198"/>
      <polygon class="cls-12" points="75.966 163.816 62.341 168.9 54.132 171.963 35.566 148.973 43.733 136.892 48.24 130.228 75.966 163.816"/>
      <polygon class="cls-12" points="62.341 168.9 54.132 171.963 35.566 148.973 43.733 136.892 62.341 168.9"/>
      <polygon class="cls-12" points="44.509 175.553 34.343 179.346 24.636 165.127 30.001 157.198 44.509 175.553"/>
      <path class="cls-12" d="M117.05,179.0146s14.3593-18.7159,19.5115-41.2567" transform="translate(-61.128 -48.929)"/>
      <path class="cls-13" d="M130.28,182.0335s46.1334-36.1938,57.9415-77.5494" transform="translate(-61.128 -48.929)"/>
      <path class="cls-12" d="M163.1431,175.0488s61.33-47.5224,101.4018-39.6988" transform="translate(-61.128 -48.929)"/>
      <path class="cls-14" d="M142.1254,197.67s27.8742-18.1248,64.21-20.821" transform="translate(-61.128 -48.929)"/>
      <path class="cls-12" d="M143.2985,206.2322s22.0025-10.4357,52.4013-3.2733" transform="translate(-61.128 -48.929)"/>
      <path class="cls-15" d="M148.163,147.4015s13.8163-16.5076,12.7588-47.4445" transform="translate(-61.128 -48.929)"/>
      <path class="cls-15" d="M194.7922,191.73s22.7749-.8788,39.4972,6.6675" transform="translate(-61.128 -48.929)"/>
      <path class="cls-14" d="M187.7083,142.7625s30.29-20.9653,48.0422-51.2581" transform="translate(-61.128 -48.929)"/>
      <polygon class="cls-12" points="80.737 65.299 74.119 63.777 70.846 69.726 70.25 62.962 63.58 61.688 69.829 59.03 68.98 52.293 73.438 57.415 79.583 54.525 76.09 60.348 80.737 65.299"/>
      <polygon class="cls-12" points="136.735 51.01 141.951 46.13 138.682 39.778 144.936 43.231 149.966 38.16 148.614 45.174 154.993 48.392 147.904 49.273 146.815 56.333 143.786 49.864 136.735 51.01"/>
      <polygon class="cls-12" points="164.691 119.953 167.944 118.669 167.597 115.189 169.824 117.885 173.027 116.48 171.15 119.431 173.476 122.043 170.09 121.17 168.325 124.189 168.108 120.699 164.691 119.953"/>
      <polygon class="cls-12" points="156.096 175.657 150.129 173.878 146.787 179.131 146.636 172.906 140.606 171.351 146.48 169.283 146.096 163.069 149.877 168.016 155.669 165.73 152.133 170.855 156.096 175.657"/>
      <polygon class="cls-13" points="104.833 54.065 107.554 48.102 102.562 43.855 109.074 44.6 111.57 38.54 112.874 44.964 119.409 45.465 113.702 48.69 115.245 55.06 110.415 50.629 104.833 54.065"/>
      <polygon class="cls-13" points="192.479 74.843 183.885 72.597 179.376 80.251 178.856 71.383 170.183 69.46 178.456 66.225 177.605 57.382 183.238 64.251 191.385 60.709 186.593 68.189 192.479 74.843"/>
      <polygon class="cls-13" points="192.977 104.57 199.034 108.006 203.994 103.118 202.598 109.94 208.779 113.148 201.859 113.928 200.719 120.798 197.839 114.458 190.953 115.496 196.092 110.797 192.977 104.57"/>
      <polygon class="cls-13" points="182.606 176.61 176.258 172.913 170.967 178.01 172.522 170.83 166.04 167.372 173.349 166.632 174.634 159.399 177.596 166.122 184.872 165.109 179.394 170.004 182.606 176.61"/>
      <polygon class="cls-15" points="133.518 28.885 127.298 25.513 122.355 30.575 123.64 23.618 117.299 20.481 124.312 19.553 125.336 12.553 128.386 18.936 135.36 17.747 130.231 22.62 133.518 28.885"/>
      <polygon class="cls-15" points="215.675 84.875 219.582 82.392 218.262 77.955 221.831 80.903 225.642 78.276 223.941 82.582 227.618 85.395 222.997 85.107 221.457 89.473 220.303 84.99 215.675 84.875"/>
      <polygon class="cls-15" points="218.838 144.63 206.875 147.662 206.523 159.997 199.943 149.557 188.102 153.035 195.997 143.55 189.031 133.363 200.492 137.942 208.027 128.169 207.214 140.483 218.838 144.63"/>
      <polygon class="cls-15" points="120.026 103.56 116.944 102.897 115.464 105.68 115.142 102.544 112.038 101.997 114.921 100.722 114.482 97.6 116.586 99.948 119.419 98.566 117.836 101.292 120.026 103.56"/>
      <polygon class="cls-14" points="78.845 136.179 83.104 135.061 83.192 130.659 85.571 134.364 89.785 133.087 86.997 136.495 89.513 140.108 85.41 138.509 82.751 142.019 83.004 137.623 78.845 136.179"/>
      <polygon class="cls-14" points="87.797 111.403 83.097 109.499 79.981 113.5 80.34 108.442 75.572 106.715 80.493 105.493 80.663 100.425 83.346 104.728 88.218 103.322 84.955 107.204 87.797 111.403"/>
      <polygon class="cls-14" points="52.382 100.454 47.301 96.632 42.237 100.476 44.301 94.463 39.081 90.834 45.438 90.939 47.275 84.852 49.14 90.931 55.496 90.798 50.292 94.45 52.382 100.454"/>
      <polygon class="cls-14" points="236.228 127.031 230.3 123.92 225.687 128.773 226.814 122.173 220.773 119.286 227.398 118.318 228.277 111.681 231.245 117.682 237.828 116.468 233.038 121.145 236.228 127.031"/>
      <polygon class="cls-14" points="195.153 46.05 201.141 43.122 199.96 36.562 204.595 41.352 210.469 38.201 207.346 44.09 212.158 48.703 205.592 47.552 202.692 53.554 201.757 46.954 195.153 46.05"/>
      <polygon class="cls-14" points="162.972 19.123 157.587 17.865 154.906 22.701 154.438 17.191 149.01 16.136 154.106 13.988 153.432 8.5 157.049 12.682 162.061 10.346 159.201 15.078 162.972 19.123"/>
    </g>
    <g class="cls-16">
      <polygon class="cls-17" points="14.309 180.399 19.451 184.902 8.5 188.987 14.309 180.399"/>
      <polygon class="cls-17" points="30.001 157.198 44.509 175.553 34.343 179.346 25.269 182.733 19.015 173.446 24.636 165.127 30.001 157.198"/>
      <polygon class="cls-17" points="75.966 163.816 62.341 168.9 54.132 171.963 35.566 148.973 43.733 136.892 48.24 130.228 75.966 163.816"/>
      <polygon class="cls-17" points="62.341 168.9 54.132 171.963 35.566 148.973 43.733 136.892 62.341 168.9"/>
      <polygon class="cls-17" points="44.509 175.553 34.343 179.346 24.636 165.127 30.001 157.198 44.509 175.553"/>
      <path class="cls-17" d="M117.05,179.0146s14.3593-18.7159,19.5115-41.2567" transform="translate(-61.128 -48.929)"/>
      <path class="cls-18" d="M130.28,182.0335s46.1334-36.1938,57.9415-77.5494" transform="translate(-61.128 -48.929)"/>
      <path class="cls-17" d="M163.1431,175.0488s61.33-47.5224,101.4018-39.6988" transform="translate(-61.128 -48.929)"/>
      <path class="cls-19" d="M142.1254,197.67s27.8742-18.1248,64.21-20.821" transform="translate(-61.128 -48.929)"/>
      <path class="cls-17" d="M143.2985,206.2322s22.0025-10.4357,52.4013-3.2733" transform="translate(-61.128 -48.929)"/>
      <path class="cls-20" d="M148.163,147.4015s13.8163-16.5076,12.7588-47.4445" transform="translate(-61.128 -48.929)"/>
      <path class="cls-20" d="M194.7922,191.73s22.7749-.8788,39.4972,6.6675" transform="translate(-61.128 -48.929)"/>
      <path class="cls-19" d="M187.7083,142.7625s30.29-20.9653,48.0422-51.2581" transform="translate(-61.128 -48.929)"/>
      <polygon class="cls-17" points="80.737 65.299 74.119 63.777 70.846 69.726 70.25 62.962 63.58 61.688 69.829 59.03 68.98 52.293 73.438 57.415 79.583 54.525 76.09 60.348 80.737 65.299"/>
      <polygon class="cls-17" points="136.735 51.01 141.951 46.13 138.682 39.778 144.936 43.231 149.966 38.16 148.614 45.174 154.993 48.392 147.904 49.273 146.815 56.333 143.786 49.864 136.735 51.01"/>
      <polygon class="cls-17" points="164.691 119.953 167.944 118.669 167.597 115.189 169.824 117.885 173.027 116.48 171.15 119.431 173.476 122.043 170.09 121.17 168.325 124.189 168.108 120.699 164.691 119.953"/>
      <polygon class="cls-17" points="156.096 175.657 150.129 173.878 146.787 179.131 146.636 172.906 140.606 171.351 146.48 169.283 146.096 163.069 149.877 168.016 155.669 165.73 152.133 170.855 156.096 175.657"/>
      <polygon class="cls-18" points="104.833 54.065 107.554 48.102 102.562 43.855 109.074 44.6 111.57 38.54 112.874 44.964 119.409 45.465 113.702 48.69 115.245 55.06 110.415 50.629 104.833 54.065"/>
      <polygon class="cls-18" points="192.479 74.843 183.885 72.597 179.376 80.251 178.856 71.383 170.183 69.46 178.456 66.225 177.605 57.382 183.238 64.251 191.385 60.709 186.593 68.189 192.479 74.843"/>
      <polygon class="cls-18" points="192.977 104.57 199.034 108.006 203.994 103.118 202.598 109.94 208.779 113.148 201.859 113.928 200.719 120.798 197.839 114.458 190.953 115.496 196.092 110.797 192.977 104.57"/>
      <polygon class="cls-18" points="182.606 176.61 176.258 172.913 170.967 178.01 172.522 170.83 166.04 167.372 173.349 166.632 174.634 159.399 177.596 166.122 184.872 165.109 179.394 170.004 182.606 176.61"/>
      <polygon class="cls-20" points="133.518 28.885 127.298 25.513 122.355 30.575 123.64 23.618 117.299 20.481 124.312 19.553 125.336 12.553 128.386 18.936 135.36 17.747 130.231 22.62 133.518 28.885"/>
      <polygon class="cls-20" points="215.675 84.875 219.582 82.392 218.262 77.955 221.831 80.903 225.642 78.276 223.941 82.582 227.618 85.395 222.997 85.107 221.457 89.473 220.303 84.99 215.675 84.875"/>
      <polygon class="cls-20" points="218.838 144.63 206.875 147.662 206.523 159.997 199.943 149.557 188.102 153.035 195.997 143.55 189.031 133.363 200.492 137.942 208.027 128.169 207.214 140.483 218.838 144.63"/>
      <polygon class="cls-20" points="120.026 103.56 116.944 102.897 115.464 105.68 115.142 102.544 112.038 101.997 114.921 100.722 114.482 97.6 116.586 99.948 119.419 98.566 117.836 101.292 120.026 103.56"/>
      <polygon class="cls-19" points="78.845 136.179 83.104 135.061 83.192 130.659 85.571 134.364 89.785 133.087 86.997 136.495 89.513 140.108 85.41 138.509 82.751 142.019 83.004 137.623 78.845 136.179"/>
      <polygon class="cls-19" points="87.797 111.403 83.097 109.499 79.981 113.5 80.34 108.442 75.572 106.715 80.493 105.493 80.663 100.425 83.346 104.728 88.218 103.322 84.955 107.204 87.797 111.403"/>
      <polygon class="cls-19" points="52.382 100.454 47.301 96.632 42.237 100.476 44.301 94.463 39.081 90.834 45.438 90.939 47.275 84.852 49.14 90.931 55.496 90.798 50.292 94.45 52.382 100.454"/>
      <polygon class="cls-19" points="236.228 127.031 230.3 123.92 225.687 128.773 226.814 122.173 220.773 119.286 227.398 118.318 228.277 111.681 231.245 117.682 237.828 116.468 233.038 121.145 236.228 127.031"/>
      <polygon class="cls-19" points="195.153 46.05 201.141 43.122 199.96 36.562 204.595 41.352 210.469 38.201 207.346 44.09 212.158 48.703 205.592 47.552 202.692 53.554 201.757 46.954 195.153 46.05"/>
      <polygon class="cls-19" points="162.972 19.123 157.587 17.865 154.906 22.701 154.438 17.191 149.01 16.136 154.106 13.988 153.432 8.5 157.049 12.682 162.061 10.346 159.201 15.078 162.972 19.123"/>
    </g>
    <g class="cls-21">
      <polygon class="cls-22" points="14.309 180.399 19.451 184.902 8.5 188.987 14.309 180.399"/>
      <polygon class="cls-22" points="30.001 157.198 44.509 175.553 34.343 179.346 25.269 182.733 19.015 173.446 24.636 165.127 30.001 157.198"/>
      <polygon class="cls-22" points="75.966 163.816 62.341 168.9 54.132 171.963 35.566 148.973 43.733 136.892 48.24 130.228 75.966 163.816"/>
      <polygon class="cls-22" points="62.341 168.9 54.132 171.963 35.566 148.973 43.733 136.892 62.341 168.9"/>
      <polygon class="cls-22" points="44.509 175.553 34.343 179.346 24.636 165.127 30.001 157.198 44.509 175.553"/>
      <path class="cls-22" d="M117.05,179.0146s14.3593-18.7159,19.5115-41.2567" transform="translate(-61.128 -48.929)"/>
      <path class="cls-23" d="M130.28,182.0335s46.1334-36.1938,57.9415-77.5494" transform="translate(-61.128 -48.929)"/>
      <path class="cls-22" d="M163.1431,175.0488s61.33-47.5224,101.4018-39.6988" transform="translate(-61.128 -48.929)"/>
      <path class="cls-24" d="M142.1254,197.67s27.8742-18.1248,64.21-20.821" transform="translate(-61.128 -48.929)"/>
      <path class="cls-22" d="M143.2985,206.2322s22.0025-10.4357,52.4013-3.2733" transform="translate(-61.128 -48.929)"/>
      <path class="cls-25" d="M148.163,147.4015s13.8163-16.5076,12.7588-47.4445" transform="translate(-61.128 -48.929)"/>
      <path class="cls-25" d="M194.7922,191.73s22.7749-.8788,39.4972,6.6675" transform="translate(-61.128 -48.929)"/>
      <path class="cls-24" d="M187.7083,142.7625s30.29-20.9653,48.0422-51.2581" transform="translate(-61.128 -48.929)"/>
      <polygon class="cls-22" points="80.737 65.299 74.119 63.777 70.846 69.726 70.25 62.962 63.58 61.688 69.829 59.03 68.98 52.293 73.438 57.415 79.583 54.525 76.09 60.348 80.737 65.299"/>
      <polygon class="cls-22" points="136.735 51.01 141.951 46.13 138.682 39.778 144.936 43.231 149.966 38.16 148.614 45.174 154.993 48.392 147.904 49.273 146.815 56.333 143.786 49.864 136.735 51.01"/>
      <polygon class="cls-22" points="164.691 119.953 167.944 118.669 167.597 115.189 169.824 117.885 173.027 116.48 171.15 119.431 173.476 122.043 170.09 121.17 168.325 124.189 168.108 120.699 164.691 119.953"/>
      <polygon class="cls-22" points="156.096 175.657 150.129 173.878 146.787 179.131 146.636 172.906 140.606 171.351 146.48 169.283 146.096 163.069 149.877 168.016 155.669 165.73 152.133 170.855 156.096 175.657"/>
      <polygon class="cls-23" points="104.833 54.065 107.554 48.102 102.562 43.855 109.074 44.6 111.57 38.54 112.874 44.964 119.409 45.465 113.702 48.69 115.245 55.06 110.415 50.629 104.833 54.065"/>
      <polygon class="cls-23" points="192.479 74.843 183.885 72.597 179.376 80.251 178.856 71.383 170.183 69.46 178.456 66.225 177.605 57.382 183.238 64.251 191.385 60.709 186.593 68.189 192.479 74.843"/>
      <polygon class="cls-23" points="192.977 104.57 199.034 108.006 203.994 103.118 202.598 109.94 208.779 113.148 201.859 113.928 200.719 120.798 197.839 114.458 190.953 115.496 196.092 110.797 192.977 104.57"/>
      <polygon class="cls-23" points="182.606 176.61 176.258 172.913 170.967 178.01 172.522 170.83 166.04 167.372 173.349 166.632 174.634 159.399 177.596 166.122 184.872 165.109 179.394 170.004 182.606 176.61"/>
      <polygon class="cls-25" points="133.518 28.885 127.298 25.513 122.355 30.575 123.64 23.618 117.299 20.481 124.312 19.553 125.336 12.553 128.386 18.936 135.36 17.747 130.231 22.62 133.518 28.885"/>
      <polygon class="cls-25" points="215.675 84.875 219.582 82.392 218.262 77.955 221.831 80.903 225.642 78.276 223.941 82.582 227.618 85.395 222.997 85.107 221.457 89.473 220.303 84.99 215.675 84.875"/>
      <polygon class="cls-25" points="218.838 144.63 206.875 147.662 206.523 159.997 199.943 149.557 188.102 153.035 195.997 143.55 189.031 133.363 200.492 137.942 208.027 128.169 207.214 140.483 218.838 144.63"/>
      <polygon class="cls-25" points="120.026 103.56 116.944 102.897 115.464 105.68 115.142 102.544 112.038 101.997 114.921 100.722 114.482 97.6 116.586 99.948 119.419 98.566 117.836 101.292 120.026 103.56"/>
      <polygon class="cls-24" points="78.845 136.179 83.104 135.061 83.192 130.659 85.571 134.364 89.785 133.087 86.997 136.495 89.513 140.108 85.41 138.509 82.751 142.019 83.004 137.623 78.845 136.179"/>
      <polygon class="cls-24" points="87.797 111.403 83.097 109.499 79.981 113.5 80.34 108.442 75.572 106.715 80.493 105.493 80.663 100.425 83.346 104.728 88.218 103.322 84.955 107.204 87.797 111.403"/>
      <polygon class="cls-24" points="52.382 100.454 47.301 96.632 42.237 100.476 44.301 94.463 39.081 90.834 45.438 90.939 47.275 84.852 49.14 90.931 55.496 90.798 50.292 94.45 52.382 100.454"/>
      <polygon class="cls-24" points="236.228 127.031 230.3 123.92 225.687 128.773 226.814 122.173 220.773 119.286 227.398 118.318 228.277 111.681 231.245 117.682 237.828 116.468 233.038 121.145 236.228 127.031"/>
      <polygon class="cls-24" points="195.153 46.05 201.141 43.122 199.96 36.562 204.595 41.352 210.469 38.201 207.346 44.09 212.158 48.703 205.592 47.552 202.692 53.554 201.757 46.954 195.153 46.05"/>
      <polygon class="cls-24" points="162.972 19.123 157.587 17.865 154.906 22.701 154.438 17.191 149.01 16.136 154.106 13.988 153.432 8.5 157.049 12.682 162.061 10.346 159.201 15.078 162.972 19.123"/>
    </g>
    <g class="cls-26">
      <polygon class="cls-27" points="14.309 180.399 19.451 184.902 8.5 188.987 14.309 180.399"/>
      <polygon class="cls-27" points="30.001 157.198 44.509 175.553 34.343 179.346 25.269 182.733 19.015 173.446 24.636 165.127 30.001 157.198"/>
      <polygon class="cls-27" points="75.966 163.816 62.341 168.9 54.132 171.963 35.566 148.973 43.733 136.892 48.24 130.228 75.966 163.816"/>
      <polygon class="cls-27" points="62.341 168.9 54.132 171.963 35.566 148.973 43.733 136.892 62.341 168.9"/>
      <polygon class="cls-27" points="44.509 175.553 34.343 179.346 24.636 165.127 30.001 157.198 44.509 175.553"/>
      <path class="cls-27" d="M117.05,179.0146s14.3593-18.7159,19.5115-41.2567" transform="translate(-61.128 -48.929)"/>
      <path class="cls-28" d="M130.28,182.0335s46.1334-36.1938,57.9415-77.5494" transform="translate(-61.128 -48.929)"/>
      <path class="cls-27" d="M163.1431,175.0488s61.33-47.5224,101.4018-39.6988" transform="translate(-61.128 -48.929)"/>
      <path class="cls-29" d="M142.1254,197.67s27.8742-18.1248,64.21-20.821" transform="translate(-61.128 -48.929)"/>
      <path class="cls-27" d="M143.2985,206.2322s22.0025-10.4357,52.4013-3.2733" transform="translate(-61.128 -48.929)"/>
      <path class="cls-30" d="M148.163,147.4015s13.8163-16.5076,12.7588-47.4445" transform="translate(-61.128 -48.929)"/>
      <path class="cls-30" d="M194.7922,191.73s22.7749-.8788,39.4972,6.6675" transform="translate(-61.128 -48.929)"/>
      <path class="cls-29" d="M187.7083,142.7625s30.29-20.9653,48.0422-51.2581" transform="translate(-61.128 -48.929)"/>
      <polygon class="cls-27" points="80.737 65.299 74.119 63.777 70.846 69.726 70.25 62.962 63.58 61.688 69.829 59.03 68.98 52.293 73.438 57.415 79.583 54.525 76.09 60.348 80.737 65.299"/>
      <polygon class="cls-27" points="136.735 51.01 141.951 46.13 138.682 39.778 144.936 43.231 149.966 38.16 148.614 45.174 154.993 48.392 147.904 49.273 146.815 56.333 143.786 49.864 136.735 51.01"/>
      <polygon class="cls-27" points="164.691 119.953 167.944 118.669 167.597 115.189 169.824 117.885 173.027 116.48 171.15 119.431 173.476 122.043 170.09 121.17 168.325 124.189 168.108 120.699 164.691 119.953"/>
      <polygon class="cls-27" points="156.096 175.657 150.129 173.878 146.787 179.131 146.636 172.906 140.606 171.351 146.48 169.283 146.096 163.069 149.877 168.016 155.669 165.73 152.133 170.855 156.096 175.657"/>
      <polygon class="cls-28" points="104.833 54.065 107.554 48.102 102.562 43.855 109.074 44.6 111.57 38.54 112.874 44.964 119.409 45.465 113.702 48.69 115.245 55.06 110.415 50.629 104.833 54.065"/>
      <polygon class="cls-28" points="192.479 74.843 183.885 72.597 179.376 80.251 178.856 71.383 170.183 69.46 178.456 66.225 177.605 57.382 183.238 64.251 191.385 60.709 186.593 68.189 192.479 74.843"/>
      <polygon class="cls-28" points="192.977 104.57 199.034 108.006 203.994 103.118 202.598 109.94 208.779 113.148 201.859 113.928 200.719 120.798 197.839 114.458 190.953 115.496 196.092 110.797 192.977 104.57"/>
      <polygon class="cls-28" points="182.606 176.61 176.258 172.913 170.967 178.01 172.522 170.83 166.04 167.372 173.349 166.632 174.634 159.399 177.596 166.122 184.872 165.109 179.394 170.004 182.606 176.61"/>
      <polygon class="cls-30" points="133.518 28.885 127.298 25.513 122.355 30.575 123.64 23.618 117.299 20.481 124.312 19.553 125.336 12.553 128.386 18.936 135.36 17.747 130.231 22.62 133.518 28.885"/>
      <polygon class="cls-30" points="215.675 84.875 219.582 82.392 218.262 77.955 221.831 80.903 225.642 78.276 223.941 82.582 227.618 85.395 222.997 85.107 221.457 89.473 220.303 84.99 215.675 84.875"/>
      <polygon class="cls-30" points="218.838 144.63 206.875 147.662 206.523 159.997 199.943 149.557 188.102 153.035 195.997 143.55 189.031 133.363 200.492 137.942 208.027 128.169 207.214 140.483 218.838 144.63"/>
      <polygon class="cls-30" points="120.026 103.56 116.944 102.897 115.464 105.68 115.142 102.544 112.038 101.997 114.921 100.722 114.482 97.6 116.586 99.948 119.419 98.566 117.836 101.292 120.026 103.56"/>
      <polygon class="cls-29" points="78.845 136.179 83.104 135.061 83.192 130.659 85.571 134.364 89.785 133.087 86.997 136.495 89.513 140.108 85.41 138.509 82.751 142.019 83.004 137.623 78.845 136.179"/>
      <polygon class="cls-29" points="87.797 111.403 83.097 109.499 79.981 113.5 80.34 108.442 75.572 106.715 80.493 105.493 80.663 100.425 83.346 104.728 88.218 103.322 84.955 107.204 87.797 111.403"/>
      <polygon class="cls-29" points="52.382 100.454 47.301 96.632 42.237 100.476 44.301 94.463 39.081 90.834 45.438 90.939 47.275 84.852 49.14 90.931 55.496 90.798 50.292 94.45 52.382 100.454"/>
      <polygon class="cls-29" points="236.228 127.031 230.3 123.92 225.687 128.773 226.814 122.173 220.773 119.286 227.398 118.318 228.277 111.681 231.245 117.682 237.828 116.468 233.038 121.145 236.228 127.031"/>
      <polygon class="cls-29" points="195.153 46.05 201.141 43.122 199.96 36.562 204.595 41.352 210.469 38.201 207.346 44.09 212.158 48.703 205.592 47.552 202.692 53.554 201.757 46.954 195.153 46.05"/>
      <polygon class="cls-29" points="162.972 19.123 157.587 17.865 154.906 22.701 154.438 17.191 149.01 16.136 154.106 13.988 153.432 8.5 157.049 12.682 162.061 10.346 159.201 15.078 162.972 19.123"/>
    </g>
    <g class="cls-31">
      <polygon class="cls-32" points="14.309 180.399 19.451 184.902 8.5 188.987 14.309 180.399"/>
      <polygon class="cls-32" points="30.001 157.198 44.509 175.553 34.343 179.346 25.269 182.733 19.015 173.446 24.636 165.127 30.001 157.198"/>
      <polygon class="cls-32" points="75.966 163.816 62.341 168.9 54.132 171.963 35.566 148.973 43.733 136.892 48.24 130.228 75.966 163.816"/>
      <polygon class="cls-32" points="62.341 168.9 54.132 171.963 35.566 148.973 43.733 136.892 62.341 168.9"/>
      <polygon class="cls-32" points="44.509 175.553 34.343 179.346 24.636 165.127 30.001 157.198 44.509 175.553"/>
      <path class="cls-32" d="M117.05,179.0146s14.3593-18.7159,19.5115-41.2567" transform="translate(-61.128 -48.929)"/>
      <path class="cls-33" d="M130.28,182.0335s46.1334-36.1938,57.9415-77.5494" transform="translate(-61.128 -48.929)"/>
      <path class="cls-32" d="M163.1431,175.0488s61.33-47.5224,101.4018-39.6988" transform="translate(-61.128 -48.929)"/>
      <path class="cls-34" d="M142.1254,197.67s27.8742-18.1248,64.21-20.821" transform="translate(-61.128 -48.929)"/>
      <path class="cls-32" d="M143.2985,206.2322s22.0025-10.4357,52.4013-3.2733" transform="translate(-61.128 -48.929)"/>
      <path class="cls-35" d="M148.163,147.4015s13.8163-16.5076,12.7588-47.4445" transform="translate(-61.128 -48.929)"/>
      <path class="cls-35" d="M194.7922,191.73s22.7749-.8788,39.4972,6.6675" transform="translate(-61.128 -48.929)"/>
      <path class="cls-34" d="M187.7083,142.7625s30.29-20.9653,48.0422-51.2581" transform="translate(-61.128 -48.929)"/>
      <polygon class="cls-32" points="80.737 65.299 74.119 63.777 70.846 69.726 70.25 62.962 63.58 61.688 69.829 59.03 68.98 52.293 73.438 57.415 79.583 54.525 76.09 60.348 80.737 65.299"/>
      <polygon class="cls-32" points="136.735 51.01 141.951 46.13 138.682 39.778 144.936 43.231 149.966 38.16 148.614 45.174 154.993 48.392 147.904 49.273 146.815 56.333 143.786 49.864 136.735 51.01"/>
      <polygon class="cls-32" points="164.691 119.953 167.944 118.669 167.597 115.189 169.824 117.885 173.027 116.48 171.15 119.431 173.476 122.043 170.09 121.17 168.325 124.189 168.108 120.699 164.691 119.953"/>
      <polygon class="cls-32" points="156.096 175.657 150.129 173.878 146.787 179.131 146.636 172.906 140.606 171.351 146.48 169.283 146.096 163.069 149.877 168.016 155.669 165.73 152.133 170.855 156.096 175.657"/>
      <polygon class="cls-33" points="104.833 54.065 107.554 48.102 102.562 43.855 109.074 44.6 111.57 38.54 112.874 44.964 119.409 45.465 113.702 48.69 115.245 55.06 110.415 50.629 104.833 54.065"/>
      <polygon class="cls-33" points="192.479 74.843 183.885 72.597 179.376 80.251 178.856 71.383 170.183 69.46 178.456 66.225 177.605 57.382 183.238 64.251 191.385 60.709 186.593 68.189 192.479 74.843"/>
      <polygon class="cls-33" points="192.977 104.57 199.034 108.006 203.994 103.118 202.598 109.94 208.779 113.148 201.859 113.928 200.719 120.798 197.839 114.458 190.953 115.496 196.092 110.797 192.977 104.57"/>
      <polygon class="cls-33" points="182.606 176.61 176.258 172.913 170.967 178.01 172.522 170.83 166.04 167.372 173.349 166.632 174.634 159.399 177.596 166.122 184.872 165.109 179.394 170.004 182.606 176.61"/>
      <polygon class="cls-35" points="133.518 28.885 127.298 25.513 122.355 30.575 123.64 23.618 117.299 20.481 124.312 19.553 125.336 12.553 128.386 18.936 135.36 17.747 130.231 22.62 133.518 28.885"/>
      <polygon class="cls-35" points="215.675 84.875 219.582 82.392 218.262 77.955 221.831 80.903 225.642 78.276 223.941 82.582 227.618 85.395 222.997 85.107 221.457 89.473 220.303 84.99 215.675 84.875"/>
      <polygon class="cls-35" points="218.838 144.63 206.875 147.662 206.523 159.997 199.943 149.557 188.102 153.035 195.997 143.55 189.031 133.363 200.492 137.942 208.027 128.169 207.214 140.483 218.838 144.63"/>
      <polygon class="cls-35" points="120.026 103.56 116.944 102.897 115.464 105.68 115.142 102.544 112.038 101.997 114.921 100.722 114.482 97.6 116.586 99.948 119.419 98.566 117.836 101.292 120.026 103.56"/>
      <polygon class="cls-34" points="78.845 136.179 83.104 135.061 83.192 130.659 85.571 134.364 89.785 133.087 86.997 136.495 89.513 140.108 85.41 138.509 82.751 142.019 83.004 137.623 78.845 136.179"/>
      <polygon class="cls-34" points="87.797 111.403 83.097 109.499 79.981 113.5 80.34 108.442 75.572 106.715 80.493 105.493 80.663 100.425 83.346 104.728 88.218 103.322 84.955 107.204 87.797 111.403"/>
      <polygon class="cls-34" points="52.382 100.454 47.301 96.632 42.237 100.476 44.301 94.463 39.081 90.834 45.438 90.939 47.275 84.852 49.14 90.931 55.496 90.798 50.292 94.45 52.382 100.454"/>
      <polygon class="cls-34" points="236.228 127.031 230.3 123.92 225.687 128.773 226.814 122.173 220.773 119.286 227.398 118.318 228.277 111.681 231.245 117.682 237.828 116.468 233.038 121.145 236.228 127.031"/>
      <polygon class="cls-34" points="195.153 46.05 201.141 43.122 199.96 36.562 204.595 41.352 210.469 38.201 207.346 44.09 212.158 48.703 205.592 47.552 202.692 53.554 201.757 46.954 195.153 46.05"/>
      <polygon class="cls-34" points="162.972 19.123 157.587 17.865 154.906 22.701 154.438 17.191 149.01 16.136 154.106 13.988 153.432 8.5 157.049 12.682 162.061 10.346 159.201 15.078 162.972 19.123"/>
    </g>
    <g class="cls-36">
      <polygon class="cls-37" points="14.309 180.399 19.451 184.902 8.5 188.987 14.309 180.399"/>
      <polygon class="cls-37" points="30.001 157.198 44.509 175.553 34.343 179.346 25.269 182.733 19.015 173.446 24.636 165.127 30.001 157.198"/>
      <polygon class="cls-37" points="75.966 163.816 62.341 168.9 54.132 171.963 35.566 148.973 43.733 136.892 48.24 130.228 75.966 163.816"/>
      <polygon class="cls-37" points="62.341 168.9 54.132 171.963 35.566 148.973 43.733 136.892 62.341 168.9"/>
      <polygon class="cls-37" points="44.509 175.553 34.343 179.346 24.636 165.127 30.001 157.198 44.509 175.553"/>
      <path class="cls-37" d="M117.05,179.0146s14.3593-18.7159,19.5115-41.2567" transform="translate(-61.128 -48.929)"/>
      <path class="cls-38" d="M130.28,182.0335s46.1334-36.1938,57.9415-77.5494" transform="translate(-61.128 -48.929)"/>
      <path class="cls-37" d="M163.1431,175.0488s61.33-47.5224,101.4018-39.6988" transform="translate(-61.128 -48.929)"/>
      <path class="cls-39" d="M142.1254,197.67s27.8742-18.1248,64.21-20.821" transform="translate(-61.128 -48.929)"/>
      <path class="cls-37" d="M143.2985,206.2322s22.0025-10.4357,52.4013-3.2733" transform="translate(-61.128 -48.929)"/>
      <path class="cls-40" d="M148.163,147.4015s13.8163-16.5076,12.7588-47.4445" transform="translate(-61.128 -48.929)"/>
      <path class="cls-40" d="M194.7922,191.73s22.7749-.8788,39.4972,6.6675" transform="translate(-61.128 -48.929)"/>
      <path class="cls-39" d="M187.7083,142.7625s30.29-20.9653,48.0422-51.2581" transform="translate(-61.128 -48.929)"/>
      <polygon class="cls-37" points="80.737 65.299 74.119 63.777 70.846 69.726 70.25 62.962 63.58 61.688 69.829 59.03 68.98 52.293 73.438 57.415 79.583 54.525 76.09 60.348 80.737 65.299"/>
      <polygon class="cls-37" points="136.735 51.01 141.951 46.13 138.682 39.778 144.936 43.231 149.966 38.16 148.614 45.174 154.993 48.392 147.904 49.273 146.815 56.333 143.786 49.864 136.735 51.01"/>
      <polygon class="cls-37" points="164.691 119.953 167.944 118.669 167.597 115.189 169.824 117.885 173.027 116.48 171.15 119.431 173.476 122.043 170.09 121.17 168.325 124.189 168.108 120.699 164.691 119.953"/>
      <polygon class="cls-37" points="156.096 175.657 150.129 173.878 146.787 179.131 146.636 172.906 140.606 171.351 146.48 169.283 146.096 163.069 149.877 168.016 155.669 165.73 152.133 170.855 156.096 175.657"/>
      <polygon class="cls-38" points="104.833 54.065 107.554 48.102 102.562 43.855 109.074 44.6 111.57 38.54 112.874 44.964 119.409 45.465 113.702 48.69 115.245 55.06 110.415 50.629 104.833 54.065"/>
      <polygon class="cls-38" points="192.479 74.843 183.885 72.597 179.376 80.251 178.856 71.383 170.183 69.46 178.456 66.225 177.605 57.382 183.238 64.251 191.385 60.709 186.593 68.189 192.479 74.843"/>
      <polygon class="cls-38" points="192.977 104.57 199.034 108.006 203.994 103.118 202.598 109.94 208.779 113.148 201.859 113.928 200.719 120.798 197.839 114.458 190.953 115.496 196.092 110.797 192.977 104.57"/>
      <polygon class="cls-38" points="182.606 176.61 176.258 172.913 170.967 178.01 172.522 170.83 166.04 167.372 173.349 166.632 174.634 159.399 177.596 166.122 184.872 165.109 179.394 170.004 182.606 176.61"/>
      <polygon class="cls-40" points="133.518 28.885 127.298 25.513 122.355 30.575 123.64 23.618 117.299 20.481 124.312 19.553 125.336 12.553 128.386 18.936 135.36 17.747 130.231 22.62 133.518 28.885"/>
      <polygon class="cls-40" points="215.675 84.875 219.582 82.392 218.262 77.955 221.831 80.903 225.642 78.276 223.941 82.582 227.618 85.395 222.997 85.107 221.457 89.473 220.303 84.99 215.675 84.875"/>
      <polygon class="cls-40" points="218.838 144.63 206.875 147.662 206.523 159.997 199.943 149.557 188.102 153.035 195.997 143.55 189.031 133.363 200.492 137.942 208.027 128.169 207.214 140.483 218.838 144.63"/>
      <polygon class="cls-40" points="120.026 103.56 116.944 102.897 115.464 105.68 115.142 102.544 112.038 101.997 114.921 100.722 114.482 97.6 116.586 99.948 119.419 98.566 117.836 101.292 120.026 103.56"/>
      <polygon class="cls-39" points="78.845 136.179 83.104 135.061 83.192 130.659 85.571 134.364 89.785 133.087 86.997 136.495 89.513 140.108 85.41 138.509 82.751 142.019 83.004 137.623 78.845 136.179"/>
      <polygon class="cls-39" points="87.797 111.403 83.097 109.499 79.981 113.5 80.34 108.442 75.572 106.715 80.493 105.493 80.663 100.425 83.346 104.728 88.218 103.322 84.955 107.204 87.797 111.403"/>
      <polygon class="cls-39" points="52.382 100.454 47.301 96.632 42.237 100.476 44.301 94.463 39.081 90.834 45.438 90.939 47.275 84.852 49.14 90.931 55.496 90.798 50.292 94.45 52.382 100.454"/>
      <polygon class="cls-39" points="236.228 127.031 230.3 123.92 225.687 128.773 226.814 122.173 220.773 119.286 227.398 118.318 228.277 111.681 231.245 117.682 237.828 116.468 233.038 121.145 236.228 127.031"/>
      <polygon class="cls-39" points="195.153 46.05 201.141 43.122 199.96 36.562 204.595 41.352 210.469 38.201 207.346 44.09 212.158 48.703 205.592 47.552 202.692 53.554 201.757 46.954 195.153 46.05"/>
      <polygon class="cls-39" points="162.972 19.123 157.587 17.865 154.906 22.701 154.438 17.191 149.01 16.136 154.106 13.988 153.432 8.5 157.049 12.682 162.061 10.346 159.201 15.078 162.972 19.123"/>
    </g>
    <g class="cls-41">
      <polygon class="cls-42" points="14.309 180.399 19.451 184.902 8.5 188.987 14.309 180.399"/>
      <polygon class="cls-42" points="30.001 157.198 44.509 175.553 34.343 179.346 25.269 182.733 19.015 173.446 24.636 165.127 30.001 157.198"/>
      <polygon class="cls-42" points="75.966 163.816 62.341 168.9 54.132 171.963 35.566 148.973 43.733 136.892 48.24 130.228 75.966 163.816"/>
      <polygon class="cls-42" points="62.341 168.9 54.132 171.963 35.566 148.973 43.733 136.892 62.341 168.9"/>
      <polygon class="cls-42" points="44.509 175.553 34.343 179.346 24.636 165.127 30.001 157.198 44.509 175.553"/>
      <path class="cls-42" d="M117.05,179.0146s14.3593-18.7159,19.5115-41.2567" transform="translate(-61.128 -48.929)"/>
      <path class="cls-43" d="M130.28,182.0335s46.1334-36.1938,57.9415-77.5494" transform="translate(-61.128 -48.929)"/>
      <path class="cls-42" d="M163.1431,175.0488s61.33-47.5224,101.4018-39.6988" transform="translate(-61.128 -48.929)"/>
      <path class="cls-44" d="M142.1254,197.67s27.8742-18.1248,64.21-20.821" transform="translate(-61.128 -48.929)"/>
      <path class="cls-42" d="M143.2985,206.2322s22.0025-10.4357,52.4013-3.2733" transform="translate(-61.128 -48.929)"/>
      <path class="cls-45" d="M148.163,147.4015s13.8163-16.5076,12.7588-47.4445" transform="translate(-61.128 -48.929)"/>
      <path class="cls-45" d="M194.7922,191.73s22.7749-.8788,39.4972,6.6675" transform="translate(-61.128 -48.929)"/>
      <path class="cls-44" d="M187.7083,142.7625s30.29-20.9653,48.0422-51.2581" transform="translate(-61.128 -48.929)"/>
      <polygon class="cls-42" points="80.737 65.299 74.119 63.777 70.846 69.726 70.25 62.962 63.58 61.688 69.829 59.03 68.98 52.293 73.438 57.415 79.583 54.525 76.09 60.348 80.737 65.299"/>
      <polygon class="cls-42" points="136.735 51.01 141.951 46.13 138.682 39.778 144.936 43.231 149.966 38.16 148.614 45.174 154.993 48.392 147.904 49.273 146.815 56.333 143.786 49.864 136.735 51.01"/>
      <polygon class="cls-42" points="164.691 119.953 167.944 118.669 167.597 115.189 169.824 117.885 173.027 116.48 171.15 119.431 173.476 122.043 170.09 121.17 168.325 124.189 168.108 120.699 164.691 119.953"/>
      <polygon class="cls-42" points="156.096 175.657 150.129 173.878 146.787 179.131 146.636 172.906 140.606 171.351 146.48 169.283 146.096 163.069 149.877 168.016 155.669 165.73 152.133 170.855 156.096 175.657"/>
      <polygon class="cls-43" points="104.833 54.065 107.554 48.102 102.562 43.855 109.074 44.6 111.57 38.54 112.874 44.964 119.409 45.465 113.702 48.69 115.245 55.06 110.415 50.629 104.833 54.065"/>
      <polygon class="cls-43" points="192.479 74.843 183.885 72.597 179.376 80.251 178.856 71.383 170.183 69.46 178.456 66.225 177.605 57.382 183.238 64.251 191.385 60.709 186.593 68.189 192.479 74.843"/>
      <polygon class="cls-43" points="192.977 104.57 199.034 108.006 203.994 103.118 202.598 109.94 208.779 113.148 201.859 113.928 200.719 120.798 197.839 114.458 190.953 115.496 196.092 110.797 192.977 104.57"/>
      <polygon class="cls-43" points="182.606 176.61 176.258 172.913 170.967 178.01 172.522 170.83 166.04 167.372 173.349 166.632 174.634 159.399 177.596 166.122 184.872 165.109 179.394 170.004 182.606 176.61"/>
      <polygon class="cls-45" points="133.518 28.885 127.298 25.513 122.355 30.575 123.64 23.618 117.299 20.481 124.312 19.553 125.336 12.553 128.386 18.936 135.36 17.747 130.231 22.62 133.518 28.885"/>
      <polygon class="cls-45" points="215.675 84.875 219.582 82.392 218.262 77.955 221.831 80.903 225.642 78.276 223.941 82.582 227.618 85.395 222.997 85.107 221.457 89.473 220.303 84.99 215.675 84.875"/>
      <polygon class="cls-45" points="218.838 144.63 206.875 147.662 206.523 159.997 199.943 149.557 188.102 153.035 195.997 143.55 189.031 133.363 200.492 137.942 208.027 128.169 207.214 140.483 218.838 144.63"/>
      <polygon class="cls-45" points="120.026 103.56 116.944 102.897 115.464 105.68 115.142 102.544 112.038 101.997 114.921 100.722 114.482 97.6 116.586 99.948 119.419 98.566 117.836 101.292 120.026 103.56"/>
      <polygon class="cls-44" points="78.845 136.179 83.104 135.061 83.192 130.659 85.571 134.364 89.785 133.087 86.997 136.495 89.513 140.108 85.41 138.509 82.751 142.019 83.004 137.623 78.845 136.179"/>
      <polygon class="cls-44" points="87.797 111.403 83.097 109.499 79.981 113.5 80.34 108.442 75.572 106.715 80.493 105.493 80.663 100.425 83.346 104.728 88.218 103.322 84.955 107.204 87.797 111.403"/>
      <polygon class="cls-44" points="52.382 100.454 47.301 96.632 42.237 100.476 44.301 94.463 39.081 90.834 45.438 90.939 47.275 84.852 49.14 90.931 55.496 90.798 50.292 94.45 52.382 100.454"/>
      <polygon class="cls-44" points="236.228 127.031 230.3 123.92 225.687 128.773 226.814 122.173 220.773 119.286 227.398 118.318 228.277 111.681 231.245 117.682 237.828 116.468 233.038 121.145 236.228 127.031"/>
      <polygon class="cls-44" points="195.153 46.05 201.141 43.122 199.96 36.562 204.595 41.352 210.469 38.201 207.346 44.09 212.158 48.703 205.592 47.552 202.692 53.554 201.757 46.954 195.153 46.05"/>
      <polygon class="cls-44" points="162.972 19.123 157.587 17.865 154.906 22.701 154.438 17.191 149.01 16.136 154.106 13.988 153.432 8.5 157.049 12.682 162.061 10.346 159.201 15.078 162.972 19.123"/>
    </g>
    <g class="cls-46">
      <polygon class="cls-47" points="14.309 180.399 19.451 184.902 8.5 188.987 14.309 180.399"/>
      <polygon class="cls-47" points="30.001 157.198 44.509 175.553 34.343 179.346 25.269 182.733 19.015 173.446 24.636 165.127 30.001 157.198"/>
      <polygon class="cls-47" points="75.966 163.816 62.341 168.9 54.132 171.963 35.566 148.973 43.733 136.892 48.24 130.228 75.966 163.816"/>
      <polygon class="cls-47" points="62.341 168.9 54.132 171.963 35.566 148.973 43.733 136.892 62.341 168.9"/>
      <polygon class="cls-47" points="44.509 175.553 34.343 179.346 24.636 165.127 30.001 157.198 44.509 175.553"/>
      <path class="cls-47" d="M117.05,179.0146s14.3593-18.7159,19.5115-41.2567" transform="translate(-61.128 -48.929)"/>
      <path class="cls-48" d="M130.28,182.0335s46.1334-36.1938,57.9415-77.5494" transform="translate(-61.128 -48.929)"/>
      <path class="cls-47" d="M163.1431,175.0488s61.33-47.5224,101.4018-39.6988" transform="translate(-61.128 -48.929)"/>
      <path class="cls-49" d="M142.1254,197.67s27.8742-18.1248,64.21-20.821" transform="translate(-61.128 -48.929)"/>
      <path class="cls-47" d="M143.2985,206.2322s22.0025-10.4357,52.4013-3.2733" transform="translate(-61.128 -48.929)"/>
      <path class="cls-50" d="M148.163,147.4015s13.8163-16.5076,12.7588-47.4445" transform="translate(-61.128 -48.929)"/>
      <path class="cls-50" d="M194.7922,191.73s22.7749-.8788,39.4972,6.6675" transform="translate(-61.128 -48.929)"/>
      <path class="cls-49" d="M187.7083,142.7625s30.29-20.9653,48.0422-51.2581" transform="translate(-61.128 -48.929)"/>
      <polygon class="cls-47" points="80.737 65.299 74.119 63.777 70.846 69.726 70.25 62.962 63.58 61.688 69.829 59.03 68.98 52.293 73.438 57.415 79.583 54.525 76.09 60.348 80.737 65.299"/>
      <polygon class="cls-47" points="136.735 51.01 141.951 46.13 138.682 39.778 144.936 43.231 149.966 38.16 148.614 45.174 154.993 48.392 147.904 49.273 146.815 56.333 143.786 49.864 136.735 51.01"/>
      <polygon class="cls-47" points="164.691 119.953 167.944 118.669 167.597 115.189 169.824 117.885 173.027 116.48 171.15 119.431 173.476 122.043 170.09 121.17 168.325 124.189 168.108 120.699 164.691 119.953"/>
      <polygon class="cls-47" points="156.096 175.657 150.129 173.878 146.787 179.131 146.636 172.906 140.606 171.351 146.48 169.283 146.096 163.069 149.877 168.016 155.669 165.73 152.133 170.855 156.096 175.657"/>
      <polygon class="cls-48" points="104.833 54.065 107.554 48.102 102.562 43.855 109.074 44.6 111.57 38.54 112.874 44.964 119.409 45.465 113.702 48.69 115.245 55.06 110.415 50.629 104.833 54.065"/>
      <polygon class="cls-48" points="192.479 74.843 183.885 72.597 179.376 80.251 178.856 71.383 170.183 69.46 178.456 66.225 177.605 57.382 183.238 64.251 191.385 60.709 186.593 68.189 192.479 74.843"/>
      <polygon class="cls-48" points="192.977 104.57 199.034 108.006 203.994 103.118 202.598 109.94 208.779 113.148 201.859 113.928 200.719 120.798 197.839 114.458 190.953 115.496 196.092 110.797 192.977 104.57"/>
      <polygon class="cls-48" points="182.606 176.61 176.258 172.913 170.967 178.01 172.522 170.83 166.04 167.372 173.349 166.632 174.634 159.399 177.596 166.122 184.872 165.109 179.394 170.004 182.606 176.61"/>
      <polygon class="cls-50" points="133.518 28.885 127.298 25.513 122.355 30.575 123.64 23.618 117.299 20.481 124.312 19.553 125.336 12.553 128.386 18.936 135.36 17.747 130.231 22.62 133.518 28.885"/>
      <polygon class="cls-50" points="215.675 84.875 219.582 82.392 218.262 77.955 221.831 80.903 225.642 78.276 223.941 82.582 227.618 85.395 222.997 85.107 221.457 89.473 220.303 84.99 215.675 84.875"/>
      <polygon class="cls-50" points="218.838 144.63 206.875 147.662 206.523 159.997 199.943 149.557 188.102 153.035 195.997 143.55 189.031 133.363 200.492 137.942 208.027 128.169 207.214 140.483 218.838 144.63"/>
      <polygon class="cls-50" points="120.026 103.56 116.944 102.897 115.464 105.68 115.142 102.544 112.038 101.997 114.921 100.722 114.482 97.6 116.586 99.948 119.419 98.566 117.836 101.292 120.026 103.56"/>
      <polygon class="cls-49" points="78.845 136.179 83.104 135.061 83.192 130.659 85.571 134.364 89.785 133.087 86.997 136.495 89.513 140.108 85.41 138.509 82.751 142.019 83.004 137.623 78.845 136.179"/>
      <polygon class="cls-49" points="87.797 111.403 83.097 109.499 79.981 113.5 80.34 108.442 75.572 106.715 80.493 105.493 80.663 100.425 83.346 104.728 88.218 103.322 84.955 107.204 87.797 111.403"/>
      <polygon class="cls-49" points="52.382 100.454 47.301 96.632 42.237 100.476 44.301 94.463 39.081 90.834 45.438 90.939 47.275 84.852 49.14 90.931 55.496 90.798 50.292 94.45 52.382 100.454"/>
      <polygon class="cls-49" points="236.228 127.031 230.3 123.92 225.687 128.773 226.814 122.173 220.773 119.286 227.398 118.318 228.277 111.681 231.245 117.682 237.828 116.468 233.038 121.145 236.228 127.031"/>
      <polygon class="cls-49" points="195.153 46.05 201.141 43.122 199.96 36.562 204.595 41.352 210.469 38.201 207.346 44.09 212.158 48.703 205.592 47.552 202.692 53.554 201.757 46.954 195.153 46.05"/>
      <polygon class="cls-49" points="162.972 19.123 157.587 17.865 154.906 22.701 154.438 17.191 149.01 16.136 154.106 13.988 153.432 8.5 157.049 12.682 162.061 10.346 159.201 15.078 162.972 19.123"/>
    </g>
    <g class="cls-51">
      <polygon class="cls-52" points="14.309 180.399 19.451 184.902 8.5 188.987 14.309 180.399"/>
      <polygon class="cls-52" points="30.001 157.198 44.509 175.553 34.343 179.346 25.269 182.733 19.015 173.446 24.636 165.127 30.001 157.198"/>
      <polygon class="cls-52" points="75.966 163.816 62.341 168.9 54.132 171.963 35.566 148.973 43.733 136.892 48.24 130.228 75.966 163.816"/>
      <polygon class="cls-52" points="62.341 168.9 54.132 171.963 35.566 148.973 43.733 136.892 62.341 168.9"/>
      <polygon class="cls-52" points="44.509 175.553 34.343 179.346 24.636 165.127 30.001 157.198 44.509 175.553"/>
      <path class="cls-52" d="M117.05,179.0146s14.3593-18.7159,19.5115-41.2567" transform="translate(-61.128 -48.929)"/>
      <path class="cls-53" d="M130.28,182.0335s46.1334-36.1938,57.9415-77.5494" transform="translate(-61.128 -48.929)"/>
      <path class="cls-52" d="M163.1431,175.0488s61.33-47.5224,101.4018-39.6988" transform="translate(-61.128 -48.929)"/>
      <path class="cls-54" d="M142.1254,197.67s27.8742-18.1248,64.21-20.821" transform="translate(-61.128 -48.929)"/>
      <path class="cls-52" d="M143.2985,206.2322s22.0025-10.4357,52.4013-3.2733" transform="translate(-61.128 -48.929)"/>
      <path class="cls-55" d="M148.163,147.4015s13.8163-16.5076,12.7588-47.4445" transform="translate(-61.128 -48.929)"/>
      <path class="cls-55" d="M194.7922,191.73s22.7749-.8788,39.4972,6.6675" transform="translate(-61.128 -48.929)"/>
      <path class="cls-54" d="M187.7083,142.7625s30.29-20.9653,48.0422-51.2581" transform="translate(-61.128 -48.929)"/>
      <polygon class="cls-52" points="80.737 65.299 74.119 63.777 70.846 69.726 70.25 62.962 63.58 61.688 69.829 59.03 68.98 52.293 73.438 57.415 79.583 54.525 76.09 60.348 80.737 65.299"/>
      <polygon class="cls-52" points="136.735 51.01 141.951 46.13 138.682 39.778 144.936 43.231 149.966 38.16 148.614 45.174 154.993 48.392 147.904 49.273 146.815 56.333 143.786 49.864 136.735 51.01"/>
      <polygon class="cls-52" points="164.691 119.953 167.944 118.669 167.597 115.189 169.824 117.885 173.027 116.48 171.15 119.431 173.476 122.043 170.09 121.17 168.325 124.189 168.108 120.699 164.691 119.953"/>
      <polygon class="cls-52" points="156.096 175.657 150.129 173.878 146.787 179.131 146.636 172.906 140.606 171.351 146.48 169.283 146.096 163.069 149.877 168.016 155.669 165.73 152.133 170.855 156.096 175.657"/>
      <polygon class="cls-53" points="104.833 54.065 107.554 48.102 102.562 43.855 109.074 44.6 111.57 38.54 112.874 44.964 119.409 45.465 113.702 48.69 115.245 55.06 110.415 50.629 104.833 54.065"/>
      <polygon class="cls-53" points="192.479 74.843 183.885 72.597 179.376 80.251 178.856 71.383 170.183 69.46 178.456 66.225 177.605 57.382 183.238 64.251 191.385 60.709 186.593 68.189 192.479 74.843"/>
      <polygon class="cls-53" points="192.977 104.57 199.034 108.006 203.994 103.118 202.598 109.94 208.779 113.148 201.859 113.928 200.719 120.798 197.839 114.458 190.953 115.496 196.092 110.797 192.977 104.57"/>
      <polygon class="cls-53" points="182.606 176.61 176.258 172.913 170.967 178.01 172.522 170.83 166.04 167.372 173.349 166.632 174.634 159.399 177.596 166.122 184.872 165.109 179.394 170.004 182.606 176.61"/>
      <polygon class="cls-55" points="133.518 28.885 127.298 25.513 122.355 30.575 123.64 23.618 117.299 20.481 124.312 19.553 125.336 12.553 128.386 18.936 135.36 17.747 130.231 22.62 133.518 28.885"/>
      <polygon class="cls-55" points="215.675 84.875 219.582 82.392 218.262 77.955 221.831 80.903 225.642 78.276 223.941 82.582 227.618 85.395 222.997 85.107 221.457 89.473 220.303 84.99 215.675 84.875"/>
      <polygon class="cls-55" points="218.838 144.63 206.875 147.662 206.523 159.997 199.943 149.557 188.102 153.035 195.997 143.55 189.031 133.363 200.492 137.942 208.027 128.169 207.214 140.483 218.838 144.63"/>
      <polygon class="cls-55" points="120.026 103.56 116.944 102.897 115.464 105.68 115.142 102.544 112.038 101.997 114.921 100.722 114.482 97.6 116.586 99.948 119.419 98.566 117.836 101.292 120.026 103.56"/>
      <polygon class="cls-54" points="78.845 136.179 83.104 135.061 83.192 130.659 85.571 134.364 89.785 133.087 86.997 136.495 89.513 140.108 85.41 138.509 82.751 142.019 83.004 137.623 78.845 136.179"/>
      <polygon class="cls-54" points="87.797 111.403 83.097 109.499 79.981 113.5 80.34 108.442 75.572 106.715 80.493 105.493 80.663 100.425 83.346 104.728 88.218 103.322 84.955 107.204 87.797 111.403"/>
      <polygon class="cls-54" points="52.382 100.454 47.301 96.632 42.237 100.476 44.301 94.463 39.081 90.834 45.438 90.939 47.275 84.852 49.14 90.931 55.496 90.798 50.292 94.45 52.382 100.454"/>
      <polygon class="cls-54" points="236.228 127.031 230.3 123.92 225.687 128.773 226.814 122.173 220.773 119.286 227.398 118.318 228.277 111.681 231.245 117.682 237.828 116.468 233.038 121.145 236.228 127.031"/>
      <polygon class="cls-54" points="195.153 46.05 201.141 43.122 199.96 36.562 204.595 41.352 210.469 38.201 207.346 44.09 212.158 48.703 205.592 47.552 202.692 53.554 201.757 46.954 195.153 46.05"/>
      <polygon class="cls-54" points="162.972 19.123 157.587 17.865 154.906 22.701 154.438 17.191 149.01 16.136 154.106 13.988 153.432 8.5 157.049 12.682 162.061 10.346 159.201 15.078 162.972 19.123"/>
    </g>
    <g class="cls-56">
      <polygon class="cls-57" points="14.309 180.399 19.451 184.902 8.5 188.987 14.309 180.399"/>
      <polygon class="cls-57" points="30.001 157.198 44.509 175.553 34.343 179.346 25.269 182.733 19.015 173.446 24.636 165.127 30.001 157.198"/>
      <polygon class="cls-57" points="75.966 163.816 62.341 168.9 54.132 171.963 35.566 148.973 43.733 136.892 48.24 130.228 75.966 163.816"/>
      <polygon class="cls-57" points="62.341 168.9 54.132 171.963 35.566 148.973 43.733 136.892 62.341 168.9"/>
      <polygon class="cls-57" points="44.509 175.553 34.343 179.346 24.636 165.127 30.001 157.198 44.509 175.553"/>
      <path class="cls-57" d="M117.05,179.0146s14.3593-18.7159,19.5115-41.2567" transform="translate(-61.128 -48.929)"/>
      <path class="cls-58" d="M130.28,182.0335s46.1334-36.1938,57.9415-77.5494" transform="translate(-61.128 -48.929)"/>
      <path class="cls-57" d="M163.1431,175.0488s61.33-47.5224,101.4018-39.6988" transform="translate(-61.128 -48.929)"/>
      <path class="cls-59" d="M142.1254,197.67s27.8742-18.1248,64.21-20.821" transform="translate(-61.128 -48.929)"/>
      <path class="cls-57" d="M143.2985,206.2322s22.0025-10.4357,52.4013-3.2733" transform="translate(-61.128 -48.929)"/>
      <path class="cls-60" d="M148.163,147.4015s13.8163-16.5076,12.7588-47.4445" transform="translate(-61.128 -48.929)"/>
      <path class="cls-60" d="M194.7922,191.73s22.7749-.8788,39.4972,6.6675" transform="translate(-61.128 -48.929)"/>
      <path class="cls-59" d="M187.7083,142.7625s30.29-20.9653,48.0422-51.2581" transform="translate(-61.128 -48.929)"/>
      <polygon class="cls-57" points="80.737 65.299 74.119 63.777 70.846 69.726 70.25 62.962 63.58 61.688 69.829 59.03 68.98 52.293 73.438 57.415 79.583 54.525 76.09 60.348 80.737 65.299"/>
      <polygon class="cls-57" points="136.735 51.01 141.951 46.13 138.682 39.778 144.936 43.231 149.966 38.16 148.614 45.174 154.993 48.392 147.904 49.273 146.815 56.333 143.786 49.864 136.735 51.01"/>
      <polygon class="cls-57" points="164.691 119.953 167.944 118.669 167.597 115.189 169.824 117.885 173.027 116.48 171.15 119.431 173.476 122.043 170.09 121.17 168.325 124.189 168.108 120.699 164.691 119.953"/>
      <polygon class="cls-57" points="156.096 175.657 150.129 173.878 146.787 179.131 146.636 172.906 140.606 171.351 146.48 169.283 146.096 163.069 149.877 168.016 155.669 165.73 152.133 170.855 156.096 175.657"/>
      <polygon class="cls-58" points="104.833 54.065 107.554 48.102 102.562 43.855 109.074 44.6 111.57 38.54 112.874 44.964 119.409 45.465 113.702 48.69 115.245 55.06 110.415 50.629 104.833 54.065"/>
      <polygon class="cls-58" points="192.479 74.843 183.885 72.597 179.376 80.251 178.856 71.383 170.183 69.46 178.456 66.225 177.605 57.382 183.238 64.251 191.385 60.709 186.593 68.189 192.479 74.843"/>
      <polygon class="cls-58" points="192.977 104.57 199.034 108.006 203.994 103.118 202.598 109.94 208.779 113.148 201.859 113.928 200.719 120.798 197.839 114.458 190.953 115.496 196.092 110.797 192.977 104.57"/>
      <polygon class="cls-58" points="182.606 176.61 176.258 172.913 170.967 178.01 172.522 170.83 166.04 167.372 173.349 166.632 174.634 159.399 177.596 166.122 184.872 165.109 179.394 170.004 182.606 176.61"/>
      <polygon class="cls-60" points="133.518 28.885 127.298 25.513 122.355 30.575 123.64 23.618 117.299 20.481 124.312 19.553 125.336 12.553 128.386 18.936 135.36 17.747 130.231 22.62 133.518 28.885"/>
      <polygon class="cls-60" points="215.675 84.875 219.582 82.392 218.262 77.955 221.831 80.903 225.642 78.276 223.941 82.582 227.618 85.395 222.997 85.107 221.457 89.473 220.303 84.99 215.675 84.875"/>
      <polygon class="cls-60" points="218.838 144.63 206.875 147.662 206.523 159.997 199.943 149.557 188.102 153.035 195.997 143.55 189.031 133.363 200.492 137.942 208.027 128.169 207.214 140.483 218.838 144.63"/>
      <polygon class="cls-60" points="120.026 103.56 116.944 102.897 115.464 105.68 115.142 102.544 112.038 101.997 114.921 100.722 114.482 97.6 116.586 99.948 119.419 98.566 117.836 101.292 120.026 103.56"/>
      <polygon class="cls-59" points="78.845 136.179 83.104 135.061 83.192 130.659 85.571 134.364 89.785 133.087 86.997 136.495 89.513 140.108 85.41 138.509 82.751 142.019 83.004 137.623 78.845 136.179"/>
      <polygon class="cls-59" points="87.797 111.403 83.097 109.499 79.981 113.5 80.34 108.442 75.572 106.715 80.493 105.493 80.663 100.425 83.346 104.728 88.218 103.322 84.955 107.204 87.797 111.403"/>
      <polygon class="cls-59" points="52.382 100.454 47.301 96.632 42.237 100.476 44.301 94.463 39.081 90.834 45.438 90.939 47.275 84.852 49.14 90.931 55.496 90.798 50.292 94.45 52.382 100.454"/>
      <polygon class="cls-59" points="236.228 127.031 230.3 123.92 225.687 128.773 226.814 122.173 220.773 119.286 227.398 118.318 228.277 111.681 231.245 117.682 237.828 116.468 233.038 121.145 236.228 127.031"/>
      <polygon class="cls-59" points="195.153 46.05 201.141 43.122 199.96 36.562 204.595 41.352 210.469 38.201 207.346 44.09 212.158 48.703 205.592 47.552 202.692 53.554 201.757 46.954 195.153 46.05"/>
      <polygon class="cls-59" points="162.972 19.123 157.587 17.865 154.906 22.701 154.438 17.191 149.01 16.136 154.106 13.988 153.432 8.5 157.049 12.682 162.061 10.346 159.201 15.078 162.972 19.123"/>
    </g>
    <g class="cls-61">
      <polygon class="cls-62" points="14.309 180.399 19.451 184.902 8.5 188.987 14.309 180.399"/>
      <polygon class="cls-62" points="30.001 157.198 44.509 175.553 34.343 179.346 25.269 182.733 19.015 173.446 24.636 165.127 30.001 157.198"/>
      <polygon class="cls-62" points="75.966 163.816 62.341 168.9 54.132 171.963 35.566 148.973 43.733 136.892 48.24 130.228 75.966 163.816"/>
      <polygon class="cls-62" points="62.341 168.9 54.132 171.963 35.566 148.973 43.733 136.892 62.341 168.9"/>
      <polygon class="cls-62" points="44.509 175.553 34.343 179.346 24.636 165.127 30.001 157.198 44.509 175.553"/>
      <path class="cls-62" d="M117.05,179.0146s14.3593-18.7159,19.5115-41.2567" transform="translate(-61.128 -48.929)"/>
      <path class="cls-63" d="M130.28,182.0335s46.1334-36.1938,57.9415-77.5494" transform="translate(-61.128 -48.929)"/>
      <path class="cls-62" d="M163.1431,175.0488s61.33-47.5224,101.4018-39.6988" transform="translate(-61.128 -48.929)"/>
      <path class="cls-64" d="M142.1254,197.67s27.8742-18.1248,64.21-20.821" transform="translate(-61.128 -48.929)"/>
      <path class="cls-62" d="M143.2985,206.2322s22.0025-10.4357,52.4013-3.2733" transform="translate(-61.128 -48.929)"/>
      <path class="cls-65" d="M148.163,147.4015s13.8163-16.5076,12.7588-47.4445" transform="translate(-61.128 -48.929)"/>
      <path class="cls-65" d="M194.7922,191.73s22.7749-.8788,39.4972,6.6675" transform="translate(-61.128 -48.929)"/>
      <path class="cls-64" d="M187.7083,142.7625s30.29-20.9653,48.0422-51.2581" transform="translate(-61.128 -48.929)"/>
      <polygon class="cls-62" points="80.737 65.299 74.119 63.777 70.846 69.726 70.25 62.962 63.58 61.688 69.829 59.03 68.98 52.293 73.438 57.415 79.583 54.525 76.09 60.348 80.737 65.299"/>
      <polygon class="cls-62" points="136.735 51.01 141.951 46.13 138.682 39.778 144.936 43.231 149.966 38.16 148.614 45.174 154.993 48.392 147.904 49.273 146.815 56.333 143.786 49.864 136.735 51.01"/>
      <polygon class="cls-62" points="164.691 119.953 167.944 118.669 167.597 115.189 169.824 117.885 173.027 116.48 171.15 119.431 173.476 122.043 170.09 121.17 168.325 124.189 168.108 120.699 164.691 119.953"/>
      <polygon class="cls-62" points="156.096 175.657 150.129 173.878 146.787 179.131 146.636 172.906 140.606 171.351 146.48 169.283 146.096 163.069 149.877 168.016 155.669 165.73 152.133 170.855 156.096 175.657"/>
      <polygon class="cls-63" points="104.833 54.065 107.554 48.102 102.562 43.855 109.074 44.6 111.57 38.54 112.874 44.964 119.409 45.465 113.702 48.69 115.245 55.06 110.415 50.629 104.833 54.065"/>
      <polygon class="cls-63" points="192.479 74.843 183.885 72.597 179.376 80.251 178.856 71.383 170.183 69.46 178.456 66.225 177.605 57.382 183.238 64.251 191.385 60.709 186.593 68.189 192.479 74.843"/>
      <polygon class="cls-63" points="192.977 104.57 199.034 108.006 203.994 103.118 202.598 109.94 208.779 113.148 201.859 113.928 200.719 120.798 197.839 114.458 190.953 115.496 196.092 110.797 192.977 104.57"/>
      <polygon class="cls-63" points="182.606 176.61 176.258 172.913 170.967 178.01 172.522 170.83 166.04 167.372 173.349 166.632 174.634 159.399 177.596 166.122 184.872 165.109 179.394 170.004 182.606 176.61"/>
      <polygon class="cls-65" points="133.518 28.885 127.298 25.513 122.355 30.575 123.64 23.618 117.299 20.481 124.312 19.553 125.336 12.553 128.386 18.936 135.36 17.747 130.231 22.62 133.518 28.885"/>
      <polygon class="cls-65" points="215.675 84.875 219.582 82.392 218.262 77.955 221.831 80.903 225.642 78.276 223.941 82.582 227.618 85.395 222.997 85.107 221.457 89.473 220.303 84.99 215.675 84.875"/>
      <polygon class="cls-65" points="218.838 144.63 206.875 147.662 206.523 159.997 199.943 149.557 188.102 153.035 195.997 143.55 189.031 133.363 200.492 137.942 208.027 128.169 207.214 140.483 218.838 144.63"/>
      <polygon class="cls-65" points="120.026 103.56 116.944 102.897 115.464 105.68 115.142 102.544 112.038 101.997 114.921 100.722 114.482 97.6 116.586 99.948 119.419 98.566 117.836 101.292 120.026 103.56"/>
      <polygon class="cls-64" points="78.845 136.179 83.104 135.061 83.192 130.659 85.571 134.364 89.785 133.087 86.997 136.495 89.513 140.108 85.41 138.509 82.751 142.019 83.004 137.623 78.845 136.179"/>
      <polygon class="cls-64" points="87.797 111.403 83.097 109.499 79.981 113.5 80.34 108.442 75.572 106.715 80.493 105.493 80.663 100.425 83.346 104.728 88.218 103.322 84.955 107.204 87.797 111.403"/>
      <polygon class="cls-64" points="52.382 100.454 47.301 96.632 42.237 100.476 44.301 94.463 39.081 90.834 45.438 90.939 47.275 84.852 49.14 90.931 55.496 90.798 50.292 94.45 52.382 100.454"/>
      <polygon class="cls-64" points="236.228 127.031 230.3 123.92 225.687 128.773 226.814 122.173 220.773 119.286 227.398 118.318 228.277 111.681 231.245 117.682 237.828 116.468 233.038 121.145 236.228 127.031"/>
      <polygon class="cls-64" points="195.153 46.05 201.141 43.122 199.96 36.562 204.595 41.352 210.469 38.201 207.346 44.09 212.158 48.703 205.592 47.552 202.692 53.554 201.757 46.954 195.153 46.05"/>
      <polygon class="cls-64" points="162.972 19.123 157.587 17.865 154.906 22.701 154.438 17.191 149.01 16.136 154.106 13.988 153.432 8.5 157.049 12.682 162.061 10.346 159.201 15.078 162.972 19.123"/>
    </g>
    <g class="cls-66">
      <polygon class="cls-67" points="14.309 180.399 19.451 184.902 8.5 188.987 14.309 180.399"/>
      <polygon class="cls-67" points="30.001 157.198 44.509 175.553 34.343 179.346 25.269 182.733 19.015 173.446 24.636 165.127 30.001 157.198"/>
      <polygon class="cls-67" points="75.966 163.816 62.341 168.9 54.132 171.963 35.566 148.973 43.733 136.892 48.24 130.228 75.966 163.816"/>
      <polygon class="cls-67" points="62.341 168.9 54.132 171.963 35.566 148.973 43.733 136.892 62.341 168.9"/>
      <polygon class="cls-67" points="44.509 175.553 34.343 179.346 24.636 165.127 30.001 157.198 44.509 175.553"/>
      <path class="cls-67" d="M117.05,179.0146s14.3593-18.7159,19.5115-41.2567" transform="translate(-61.128 -48.929)"/>
      <path class="cls-68" d="M130.28,182.0335s46.1334-36.1938,57.9415-77.5494" transform="translate(-61.128 -48.929)"/>
      <path class="cls-67" d="M163.1431,175.0488s61.33-47.5224,101.4018-39.6988" transform="translate(-61.128 -48.929)"/>
      <path class="cls-69" d="M142.1254,197.67s27.8742-18.1248,64.21-20.821" transform="translate(-61.128 -48.929)"/>
      <path class="cls-67" d="M143.2985,206.2322s22.0025-10.4357,52.4013-3.2733" transform="translate(-61.128 -48.929)"/>
      <path class="cls-70" d="M148.163,147.4015s13.8163-16.5076,12.7588-47.4445" transform="translate(-61.128 -48.929)"/>
      <path class="cls-70" d="M194.7922,191.73s22.7749-.8788,39.4972,6.6675" transform="translate(-61.128 -48.929)"/>
      <path class="cls-69" d="M187.7083,142.7625s30.29-20.9653,48.0422-51.2581" transform="translate(-61.128 -48.929)"/>
      <polygon class="cls-67" points="80.737 65.299 74.119 63.777 70.846 69.726 70.25 62.962 63.58 61.688 69.829 59.03 68.98 52.293 73.438 57.415 79.583 54.525 76.09 60.348 80.737 65.299"/>
      <polygon class="cls-67" points="136.735 51.01 141.951 46.13 138.682 39.778 144.936 43.231 149.966 38.16 148.614 45.174 154.993 48.392 147.904 49.273 146.815 56.333 143.786 49.864 136.735 51.01"/>
      <polygon class="cls-67" points="164.691 119.953 167.944 118.669 167.597 115.189 169.824 117.885 173.027 116.48 171.15 119.431 173.476 122.043 170.09 121.17 168.325 124.189 168.108 120.699 164.691 119.953"/>
      <polygon class="cls-67" points="156.096 175.657 150.129 173.878 146.787 179.131 146.636 172.906 140.606 171.351 146.48 169.283 146.096 163.069 149.877 168.016 155.669 165.73 152.133 170.855 156.096 175.657"/>
      <polygon class="cls-68" points="104.833 54.065 107.554 48.102 102.562 43.855 109.074 44.6 111.57 38.54 112.874 44.964 119.409 45.465 113.702 48.69 115.245 55.06 110.415 50.629 104.833 54.065"/>
      <polygon class="cls-68" points="192.479 74.843 183.885 72.597 179.376 80.251 178.856 71.383 170.183 69.46 178.456 66.225 177.605 57.382 183.238 64.251 191.385 60.709 186.593 68.189 192.479 74.843"/>
      <polygon class="cls-68" points="192.977 104.57 199.034 108.006 203.994 103.118 202.598 109.94 208.779 113.148 201.859 113.928 200.719 120.798 197.839 114.458 190.953 115.496 196.092 110.797 192.977 104.57"/>
      <polygon class="cls-68" points="182.606 176.61 176.258 172.913 170.967 178.01 172.522 170.83 166.04 167.372 173.349 166.632 174.634 159.399 177.596 166.122 184.872 165.109 179.394 170.004 182.606 176.61"/>
      <polygon class="cls-70" points="133.518 28.885 127.298 25.513 122.355 30.575 123.64 23.618 117.299 20.481 124.312 19.553 125.336 12.553 128.386 18.936 135.36 17.747 130.231 22.62 133.518 28.885"/>
      <polygon class="cls-70" points="215.675 84.875 219.582 82.392 218.262 77.955 221.831 80.903 225.642 78.276 223.941 82.582 227.618 85.395 222.997 85.107 221.457 89.473 220.303 84.99 215.675 84.875"/>
      <polygon class="cls-70" points="218.838 144.63 206.875 147.662 206.523 159.997 199.943 149.557 188.102 153.035 195.997 143.55 189.031 133.363 200.492 137.942 208.027 128.169 207.214 140.483 218.838 144.63"/>
      <polygon class="cls-70" points="120.026 103.56 116.944 102.897 115.464 105.68 115.142 102.544 112.038 101.997 114.921 100.722 114.482 97.6 116.586 99.948 119.419 98.566 117.836 101.292 120.026 103.56"/>
      <polygon class="cls-69" points="78.845 136.179 83.104 135.061 83.192 130.659 85.571 134.364 89.785 133.087 86.997 136.495 89.513 140.108 85.41 138.509 82.751 142.019 83.004 137.623 78.845 136.179"/>
      <polygon class="cls-69" points="87.797 111.403 83.097 109.499 79.981 113.5 80.34 108.442 75.572 106.715 80.493 105.493 80.663 100.425 83.346 104.728 88.218 103.322 84.955 107.204 87.797 111.403"/>
      <polygon class="cls-69" points="52.382 100.454 47.301 96.632 42.237 100.476 44.301 94.463 39.081 90.834 45.438 90.939 47.275 84.852 49.14 90.931 55.496 90.798 50.292 94.45 52.382 100.454"/>
      <polygon class="cls-69" points="236.228 127.031 230.3 123.92 225.687 128.773 226.814 122.173 220.773 119.286 227.398 118.318 228.277 111.681 231.245 117.682 237.828 116.468 233.038 121.145 236.228 127.031"/>
      <polygon class="cls-69" points="195.153 46.05 201.141 43.122 199.96 36.562 204.595 41.352 210.469 38.201 207.346 44.09 212.158 48.703 205.592 47.552 202.692 53.554 201.757 46.954 195.153 46.05"/>
      <polygon class="cls-69" points="162.972 19.123 157.587 17.865 154.906 22.701 154.438 17.191 149.01 16.136 154.106 13.988 153.432 8.5 157.049 12.682 162.061 10.346 159.201 15.078 162.972 19.123"/>
    </g>
    <g class="cls-71">
      <polygon class="cls-72" points="14.309 180.399 19.451 184.902 8.5 188.987 14.309 180.399"/>
      <polygon class="cls-72" points="30.001 157.198 44.509 175.553 34.343 179.346 25.269 182.733 19.015 173.446 24.636 165.127 30.001 157.198"/>
      <polygon class="cls-72" points="75.966 163.816 62.341 168.9 54.132 171.963 35.566 148.973 43.733 136.892 48.24 130.228 75.966 163.816"/>
      <polygon class="cls-72" points="62.341 168.9 54.132 171.963 35.566 148.973 43.733 136.892 62.341 168.9"/>
      <polygon class="cls-72" points="44.509 175.553 34.343 179.346 24.636 165.127 30.001 157.198 44.509 175.553"/>
      <path class="cls-72" d="M117.05,179.0146s14.3593-18.7159,19.5115-41.2567" transform="translate(-61.128 -48.929)"/>
      <path class="cls-73" d="M130.28,182.0335s46.1334-36.1938,57.9415-77.5494" transform="translate(-61.128 -48.929)"/>
      <path class="cls-72" d="M163.1431,175.0488s61.33-47.5224,101.4018-39.6988" transform="translate(-61.128 -48.929)"/>
      <path class="cls-74" d="M142.1254,197.67s27.8742-18.1248,64.21-20.821" transform="translate(-61.128 -48.929)"/>
      <path class="cls-72" d="M143.2985,206.2322s22.0025-10.4357,52.4013-3.2733" transform="translate(-61.128 -48.929)"/>
      <path class="cls-75" d="M148.163,147.4015s13.8163-16.5076,12.7588-47.4445" transform="translate(-61.128 -48.929)"/>
      <path class="cls-75" d="M194.7922,191.73s22.7749-.8788,39.4972,6.6675" transform="translate(-61.128 -48.929)"/>
      <path class="cls-74" d="M187.7083,142.7625s30.29-20.9653,48.0422-51.2581" transform="translate(-61.128 -48.929)"/>
      <polygon class="cls-72" points="80.737 65.299 74.119 63.777 70.846 69.726 70.25 62.962 63.58 61.688 69.829 59.03 68.98 52.293 73.438 57.415 79.583 54.525 76.09 60.348 80.737 65.299"/>
      <polygon class="cls-72" points="136.735 51.01 141.951 46.13 138.682 39.778 144.936 43.231 149.966 38.16 148.614 45.174 154.993 48.392 147.904 49.273 146.815 56.333 143.786 49.864 136.735 51.01"/>
      <polygon class="cls-72" points="164.691 119.953 167.944 118.669 167.597 115.189 169.824 117.885 173.027 116.48 171.15 119.431 173.476 122.043 170.09 121.17 168.325 124.189 168.108 120.699 164.691 119.953"/>
      <polygon class="cls-72" points="156.096 175.657 150.129 173.878 146.787 179.131 146.636 172.906 140.606 171.351 146.48 169.283 146.096 163.069 149.877 168.016 155.669 165.73 152.133 170.855 156.096 175.657"/>
      <polygon class="cls-73" points="104.833 54.065 107.554 48.102 102.562 43.855 109.074 44.6 111.57 38.54 112.874 44.964 119.409 45.465 113.702 48.69 115.245 55.06 110.415 50.629 104.833 54.065"/>
      <polygon class="cls-73" points="192.479 74.843 183.885 72.597 179.376 80.251 178.856 71.383 170.183 69.46 178.456 66.225 177.605 57.382 183.238 64.251 191.385 60.709 186.593 68.189 192.479 74.843"/>
      <polygon class="cls-73" points="192.977 104.57 199.034 108.006 203.994 103.118 202.598 109.94 208.779 113.148 201.859 113.928 200.719 120.798 197.839 114.458 190.953 115.496 196.092 110.797 192.977 104.57"/>
      <polygon class="cls-73" points="182.606 176.61 176.258 172.913 170.967 178.01 172.522 170.83 166.04 167.372 173.349 166.632 174.634 159.399 177.596 166.122 184.872 165.109 179.394 170.004 182.606 176.61"/>
      <polygon class="cls-75" points="133.518 28.885 127.298 25.513 122.355 30.575 123.64 23.618 117.299 20.481 124.312 19.553 125.336 12.553 128.386 18.936 135.36 17.747 130.231 22.62 133.518 28.885"/>
      <polygon class="cls-75" points="215.675 84.875 219.582 82.392 218.262 77.955 221.831 80.903 225.642 78.276 223.941 82.582 227.618 85.395 222.997 85.107 221.457 89.473 220.303 84.99 215.675 84.875"/>
      <polygon class="cls-75" points="218.838 144.63 206.875 147.662 206.523 159.997 199.943 149.557 188.102 153.035 195.997 143.55 189.031 133.363 200.492 137.942 208.027 128.169 207.214 140.483 218.838 144.63"/>
      <polygon class="cls-75" points="120.026 103.56 116.944 102.897 115.464 105.68 115.142 102.544 112.038 101.997 114.921 100.722 114.482 97.6 116.586 99.948 119.419 98.566 117.836 101.292 120.026 103.56"/>
      <polygon class="cls-74" points="78.845 136.179 83.104 135.061 83.192 130.659 85.571 134.364 89.785 133.087 86.997 136.495 89.513 140.108 85.41 138.509 82.751 142.019 83.004 137.623 78.845 136.179"/>
      <polygon class="cls-74" points="87.797 111.403 83.097 109.499 79.981 113.5 80.34 108.442 75.572 106.715 80.493 105.493 80.663 100.425 83.346 104.728 88.218 103.322 84.955 107.204 87.797 111.403"/>
      <polygon class="cls-74" points="52.382 100.454 47.301 96.632 42.237 100.476 44.301 94.463 39.081 90.834 45.438 90.939 47.275 84.852 49.14 90.931 55.496 90.798 50.292 94.45 52.382 100.454"/>
      <polygon class="cls-74" points="236.228 127.031 230.3 123.92 225.687 128.773 226.814 122.173 220.773 119.286 227.398 118.318 228.277 111.681 231.245 117.682 237.828 116.468 233.038 121.145 236.228 127.031"/>
      <polygon class="cls-74" points="195.153 46.05 201.141 43.122 199.96 36.562 204.595 41.352 210.469 38.201 207.346 44.09 212.158 48.703 205.592 47.552 202.692 53.554 201.757 46.954 195.153 46.05"/>
      <polygon class="cls-74" points="162.972 19.123 157.587 17.865 154.906 22.701 154.438 17.191 149.01 16.136 154.106 13.988 153.432 8.5 157.049 12.682 162.061 10.346 159.201 15.078 162.972 19.123"/>
    </g>
    <g>
      <polygon class="cls-76" points="14.309 180.399 19.451 184.902 8.5 188.987 14.309 180.399"/>
      <polygon class="cls-76" points="30.001 157.198 44.509 175.553 34.343 179.346 25.269 182.733 19.015 173.446 24.636 165.127 30.001 157.198"/>
      <polygon class="cls-76" points="75.966 163.816 62.341 168.9 54.132 171.963 35.566 148.973 43.733 136.892 48.24 130.228 75.966 163.816"/>
      <polygon class="cls-76" points="62.341 168.9 54.132 171.963 35.566 148.973 43.733 136.892 62.341 168.9"/>
      <polygon class="cls-76" points="44.509 175.553 34.343 179.346 24.636 165.127 30.001 157.198 44.509 175.553"/>
      <path class="cls-76" d="M117.05,179.0146s14.3593-18.7159,19.5115-41.2567" transform="translate(-61.128 -48.929)"/>
      <path class="cls-77" d="M130.28,182.0335s46.1334-36.1938,57.9415-77.5494" transform="translate(-61.128 -48.929)"/>
      <path class="cls-76" d="M163.1431,175.0488s61.33-47.5224,101.4018-39.6988" transform="translate(-61.128 -48.929)"/>
      <path class="cls-78" d="M142.1254,197.67s27.8742-18.1248,64.21-20.821" transform="translate(-61.128 -48.929)"/>
      <path class="cls-76" d="M143.2985,206.2322s22.0025-10.4357,52.4013-3.2733" transform="translate(-61.128 -48.929)"/>
      <path class="cls-79" d="M148.163,147.4015s13.8163-16.5076,12.7588-47.4445" transform="translate(-61.128 -48.929)"/>
      <path class="cls-79" d="M194.7922,191.73s22.7749-.8788,39.4972,6.6675" transform="translate(-61.128 -48.929)"/>
      <path class="cls-78" d="M187.7083,142.7625s30.29-20.9653,48.0422-51.2581" transform="translate(-61.128 -48.929)"/>
      <polygon class="cls-76" points="80.737 65.299 74.119 63.777 70.846 69.726 70.25 62.962 63.58 61.688 69.829 59.03 68.98 52.293 73.438 57.415 79.583 54.525 76.09 60.348 80.737 65.299"/>
      <polygon class="cls-76" points="136.735 51.01 141.951 46.13 138.682 39.778 144.936 43.231 149.966 38.16 148.614 45.174 154.993 48.392 147.904 49.273 146.815 56.333 143.786 49.864 136.735 51.01"/>
      <polygon class="cls-76" points="164.691 119.953 167.944 118.669 167.597 115.189 169.824 117.885 173.027 116.48 171.15 119.431 173.476 122.043 170.09 121.17 168.325 124.189 168.108 120.699 164.691 119.953"/>
      <polygon class="cls-76" points="156.096 175.657 150.129 173.878 146.787 179.131 146.636 172.906 140.606 171.351 146.48 169.283 146.096 163.069 149.877 168.016 155.669 165.73 152.133 170.855 156.096 175.657"/>
      <polygon class="cls-77" points="104.833 54.065 107.554 48.102 102.562 43.855 109.074 44.6 111.57 38.54 112.874 44.964 119.409 45.465 113.702 48.69 115.245 55.06 110.415 50.629 104.833 54.065"/>
      <polygon class="cls-77" points="192.479 74.843 183.885 72.597 179.376 80.251 178.856 71.383 170.183 69.46 178.456 66.225 177.605 57.382 183.238 64.251 191.385 60.709 186.593 68.189 192.479 74.843"/>
      <polygon class="cls-77" points="192.977 104.57 199.034 108.006 203.994 103.118 202.598 109.94 208.779 113.148 201.859 113.928 200.719 120.798 197.839 114.458 190.953 115.496 196.092 110.797 192.977 104.57"/>
      <polygon class="cls-77" points="182.606 176.61 176.258 172.913 170.967 178.01 172.522 170.83 166.04 167.372 173.349 166.632 174.634 159.399 177.596 166.122 184.872 165.109 179.394 170.004 182.606 176.61"/>
      <polygon class="cls-79" points="133.518 28.885 127.298 25.513 122.355 30.575 123.64 23.618 117.299 20.481 124.312 19.553 125.336 12.553 128.386 18.936 135.36 17.747 130.231 22.62 133.518 28.885"/>
      <polygon class="cls-79" points="215.675 84.875 219.582 82.392 218.262 77.955 221.831 80.903 225.642 78.276 223.941 82.582 227.618 85.395 222.997 85.107 221.457 89.473 220.303 84.99 215.675 84.875"/>
      <polygon class="cls-79" points="218.838 144.63 206.875 147.662 206.523 159.997 199.943 149.557 188.102 153.035 195.997 143.55 189.031 133.363 200.492 137.942 208.027 128.169 207.214 140.483 218.838 144.63"/>
      <polygon class="cls-79" points="120.026 103.56 116.944 102.897 115.464 105.68 115.142 102.544 112.038 101.997 114.921 100.722 114.482 97.6 116.586 99.948 119.419 98.566 117.836 101.292 120.026 103.56"/>
      <polygon class="cls-78" points="78.845 136.179 83.104 135.061 83.192 130.659 85.571 134.364 89.785 133.087 86.997 136.495 89.513 140.108 85.41 138.509 82.751 142.019 83.004 137.623 78.845 136.179"/>
      <polygon class="cls-78" points="87.797 111.403 83.097 109.499 79.981 113.5 80.34 108.442 75.572 106.715 80.493 105.493 80.663 100.425 83.346 104.728 88.218 103.322 84.955 107.204 87.797 111.403"/>
      <polygon class="cls-78" points="52.382 100.454 47.301 96.632 42.237 100.476 44.301 94.463 39.081 90.834 45.438 90.939 47.275 84.852 49.14 90.931 55.496 90.798 50.292 94.45 52.382 100.454"/>
      <polygon class="cls-78" points="236.228 127.031 230.3 123.92 225.687 128.773 226.814 122.173 220.773 119.286 227.398 118.318 228.277 111.681 231.245 117.682 237.828 116.468 233.038 121.145 236.228 127.031"/>
      <polygon class="cls-78" points="195.153 46.05 201.141 43.122 199.96 36.562 204.595 41.352 210.469 38.201 207.346 44.09 212.158 48.703 205.592 47.552 202.692 53.554 201.757 46.954 195.153 46.05"/>
      <polygon class="cls-78" points="162.972 19.123 157.587 17.865 154.906 22.701 154.438 17.191 149.01 16.136 154.106 13.988 153.432 8.5 157.049 12.682 162.061 10.346 159.201 15.078 162.972 19.123"/>
    </g>
    <g>
      <polygon class="cls-80" points="14.309 180.399 19.451 184.902 8.5 188.987 14.309 180.399"/>
      <polygon class="cls-80" points="30.001 157.198 44.509 175.553 34.343 179.346 25.269 182.733 19.015 173.446 24.636 165.127 30.001 157.198"/>
      <polygon class="cls-80" points="75.966 163.816 62.341 168.9 54.132 171.963 35.566 148.973 43.733 136.892 48.24 130.228 75.966 163.816"/>
      <polygon class="cls-80" points="62.341 168.9 54.132 171.963 35.566 148.973 43.733 136.892 62.341 168.9"/>
      <polygon class="cls-80" points="44.509 175.553 34.343 179.346 24.636 165.127 30.001 157.198 44.509 175.553"/>
      <path class="cls-80" d="M117.05,179.0146s14.3593-18.7159,19.5115-41.2567" transform="translate(-61.128 -48.929)"/>
      <path class="cls-81" d="M130.28,182.0335s46.1334-36.1938,57.9415-77.5494" transform="translate(-61.128 -48.929)"/>
      <path class="cls-80" d="M163.1431,175.0488s61.33-47.5224,101.4018-39.6988" transform="translate(-61.128 -48.929)"/>
      <path class="cls-82" d="M142.1254,197.67s27.8742-18.1248,64.21-20.821" transform="translate(-61.128 -48.929)"/>
      <path class="cls-80" d="M143.2985,206.2322s22.0025-10.4357,52.4013-3.2733" transform="translate(-61.128 -48.929)"/>
      <path class="cls-83" d="M148.163,147.4015s13.8163-16.5076,12.7588-47.4445" transform="translate(-61.128 -48.929)"/>
      <path class="cls-83" d="M194.7922,191.73s22.7749-.8788,39.4972,6.6675" transform="translate(-61.128 -48.929)"/>
      <path class="cls-82" d="M187.7083,142.7625s30.29-20.9653,48.0422-51.2581" transform="translate(-61.128 -48.929)"/>
      <polygon class="cls-80" points="80.737 65.299 74.119 63.777 70.846 69.726 70.25 62.962 63.58 61.688 69.829 59.03 68.98 52.293 73.438 57.415 79.583 54.525 76.09 60.348 80.737 65.299"/>
      <polygon class="cls-80" points="136.735 51.01 141.951 46.13 138.682 39.778 144.936 43.231 149.966 38.16 148.614 45.174 154.993 48.392 147.904 49.273 146.815 56.333 143.786 49.864 136.735 51.01"/>
      <polygon class="cls-80" points="164.691 119.953 167.944 118.669 167.597 115.189 169.824 117.885 173.027 116.48 171.15 119.431 173.476 122.043 170.09 121.17 168.325 124.189 168.108 120.699 164.691 119.953"/>
      <polygon class="cls-80" points="156.096 175.657 150.129 173.878 146.787 179.131 146.636 172.906 140.606 171.351 146.48 169.283 146.096 163.069 149.877 168.016 155.669 165.73 152.133 170.855 156.096 175.657"/>
      <polygon class="cls-81" points="104.833 54.065 107.554 48.102 102.562 43.855 109.074 44.6 111.57 38.54 112.874 44.964 119.409 45.465 113.702 48.69 115.245 55.06 110.415 50.629 104.833 54.065"/>
      <polygon class="cls-81" points="192.479 74.843 183.885 72.597 179.376 80.251 178.856 71.383 170.183 69.46 178.456 66.225 177.605 57.382 183.238 64.251 191.385 60.709 186.593 68.189 192.479 74.843"/>
      <polygon class="cls-81" points="192.977 104.57 199.034 108.006 203.994 103.118 202.598 109.94 208.779 113.148 201.859 113.928 200.719 120.798 197.839 114.458 190.953 115.496 196.092 110.797 192.977 104.57"/>
      <polygon class="cls-81" points="182.606 176.61 176.258 172.913 170.967 178.01 172.522 170.83 166.04 167.372 173.349 166.632 174.634 159.399 177.596 166.122 184.872 165.109 179.394 170.004 182.606 176.61"/>
      <polygon class="cls-83" points="133.518 28.885 127.298 25.513 122.355 30.575 123.64 23.618 117.299 20.481 124.312 19.553 125.336 12.553 128.386 18.936 135.36 17.747 130.231 22.62 133.518 28.885"/>
      <polygon class="cls-83" points="215.675 84.875 219.582 82.392 218.262 77.955 221.831 80.903 225.642 78.276 223.941 82.582 227.618 85.395 222.997 85.107 221.457 89.473 220.303 84.99 215.675 84.875"/>
      <polygon class="cls-83" points="218.838 144.63 206.875 147.662 206.523 159.997 199.943 149.557 188.102 153.035 195.997 143.55 189.031 133.363 200.492 137.942 208.027 128.169 207.214 140.483 218.838 144.63"/>
      <polygon class="cls-83" points="120.026 103.56 116.944 102.897 115.464 105.68 115.142 102.544 112.038 101.997 114.921 100.722 114.482 97.6 116.586 99.948 119.419 98.566 117.836 101.292 120.026 103.56"/>
      <polygon class="cls-82" points="78.845 136.179 83.104 135.061 83.192 130.659 85.571 134.364 89.785 133.087 86.997 136.495 89.513 140.108 85.41 138.509 82.751 142.019 83.004 137.623 78.845 136.179"/>
      <polygon class="cls-82" points="87.797 111.403 83.097 109.499 79.981 113.5 80.34 108.442 75.572 106.715 80.493 105.493 80.663 100.425 83.346 104.728 88.218 103.322 84.955 107.204 87.797 111.403"/>
      <polygon class="cls-82" points="52.382 100.454 47.301 96.632 42.237 100.476 44.301 94.463 39.081 90.834 45.438 90.939 47.275 84.852 49.14 90.931 55.496 90.798 50.292 94.45 52.382 100.454"/>
      <polygon class="cls-82" points="236.228 127.031 230.3 123.92 225.687 128.773 226.814 122.173 220.773 119.286 227.398 118.318 228.277 111.681 231.245 117.682 237.828 116.468 233.038 121.145 236.228 127.031"/>
      <polygon class="cls-82" points="195.153 46.05 201.141 43.122 199.96 36.562 204.595 41.352 210.469 38.201 207.346 44.09 212.158 48.703 205.592 47.552 202.692 53.554 201.757 46.954 195.153 46.05"/>
      <polygon class="cls-82" points="162.972 19.123 157.587 17.865 154.906 22.701 154.438 17.191 149.01 16.136 154.106 13.988 153.432 8.5 157.049 12.682 162.061 10.346 159.201 15.078 162.972 19.123"/>
    </g>
  </g>
</svg>
